<?xml version="1.0" encoding="utf-8"?>
<!-- Generator: Adobe Illustrator 16.0.0, SVG Export Plug-In . SVG Version: 6.00 Build 0)  -->
<!DOCTYPE svg PUBLIC "-//W3C//DTD SVG 1.1//EN" "http://www.w3.org/Graphics/SVG/1.1/DTD/svg11.dtd">
<svg version="1.1" id="形状_113_副本_6_1_" xmlns="http://www.w3.org/2000/svg" xmlns:xlink="http://www.w3.org/1999/xlink"
	 x="0px" y="0px" width="35px" height="20px" viewBox="0 0 35 20" enable-background="new 0 0 35 20" xml:space="preserve">
<g id="形状_113_副本_6">
	<g>
		<path fill-rule="evenodd" clip-rule="evenodd" fill="#6E7072" d="M26.995,13.96c-1.667,0-3.019,1.352-3.019,3.019
			s1.352,3.018,3.019,3.018s3.019-1.351,3.019-3.018S28.662,13.96,26.995,13.96z M26.986,18.063c-0.598,0-1.082-0.484-1.082-1.083
			c0-0.598,0.484-1.082,1.082-1.082s1.082,0.484,1.082,1.082C28.068,17.578,27.584,18.063,26.986,18.063z M7.995,13.96
			c-1.667,0-3.018,1.352-3.018,3.019s1.351,3.018,3.018,3.018s3.019-1.351,3.019-3.018S9.662,13.96,7.995,13.96z M7.987,18.063
			c-0.598,0-1.083-0.484-1.083-1.083c0-0.598,0.485-1.082,1.083-1.082s1.082,0.484,1.082,1.082
			C9.069,17.578,8.584,18.063,7.987,18.063z M33.985,8.974H27.55c-0.315,0-0.569-0.256-0.569-0.57V4.557
			c0-0.315,0.254-0.57,0.569-0.57h5.647c-1.386-3.579-4.177-2.97-4.969-2.989h-4.731c-0.823,0-1.491,0.668-1.491,1.491v12.014
			c0,0.021,0.006,0.042,0.007,0.063h0.74v1.223c0.128,0.075,0.271,0.125,0.418,0.16c0.467-1.681,1.992-2.922,3.822-2.922
			c1.847,0,3.386,1.263,3.837,2.968h1.67c0.824,0,1.492-0.668,1.492-1.492V9.427C33.992,9.271,33.987,9.125,33.985,8.974z
			 M0.988,15.971h3.176c0.459-1.692,1.991-2.944,3.829-2.944s3.37,1.252,3.829,2.944h9.159v-2.957H0.988V15.971z M20.979-0.021
			H0.992v12.013h19.986V-0.021z"/>
	</g>
</g>
</svg>
