<?xml version="1.0" encoding="utf-8"?>
<!-- Generator: Adobe Illustrator 16.0.0, SVG Export Plug-In . SVG Version: 6.00 Build 0)  -->
<!DOCTYPE svg PUBLIC "-//W3C//DTD SVG 1.1//EN" "http://www.w3.org/Graphics/SVG/1.1/DTD/svg11.dtd">
<svg version="1.1" id="图层_1" xmlns="http://www.w3.org/2000/svg" xmlns:xlink="http://www.w3.org/1999/xlink" x="0px" y="0px"
	 width="32px" height="32px" viewBox="0 0 32 32" enable-background="new 0 0 32 32" xml:space="preserve">
<g id="形状_113_副本_6_1_" display="none" enable-background="new    ">
	<g id="形状_113_副本_6" display="inline">
		<g>
			<path fill="#6E7072" d="M7.595,19.068c-1.496,0-2.708,1.195-2.708,2.666c0,1.475,1.212,2.668,2.708,2.668
				c1.496,0,2.709-1.193,2.709-2.668C10.304,20.264,9.091,19.068,7.595,19.068z M7.587,22.693c-0.536,0-0.971-0.428-0.971-0.957
				c0-0.527,0.435-0.955,0.971-0.955c0.537,0,0.972,0.428,0.972,0.955C8.559,22.266,8.124,22.693,7.587,22.693z M1.307,20.846h2.85
				c0.412-1.494,1.787-2.602,3.436-2.602c1.65,0,3.024,1.105,3.436,2.602h8.219v-2.613H1.307V20.846z M19.247,6.718H1.311V17.33
				h17.937L19.247,6.718L19.247,6.718z M30.911,14.665h-5.769c-0.281,0-0.513-0.225-0.513-0.504v-3.398
				c0-0.278,0.229-0.503,0.513-0.503h5.063c-1.245-3.157-3.745-2.624-4.456-2.641h-4.246c-0.736,0-1.339,0.589-1.339,1.317v10.613
				c0,0.02,0.011,0.035,0.011,0.055h0.661v1.063c0.117,0.067,0.244,0.118,0.377,0.153c0.42-1.48,1.787-2.575,3.429-2.575
				c1.656,0,3.039,1.116,3.441,2.623h1.5c0.738,0,1.338-0.593,1.338-1.318v-4.484C30.924,14.921,30.913,14.802,30.911,14.665z
				 M24.646,19.068c-1.496,0-2.709,1.195-2.709,2.666c0,1.475,1.213,2.668,2.709,2.668s2.709-1.193,2.709-2.668
				C27.354,20.264,26.143,19.068,24.646,19.068z M24.639,22.693c-0.537,0-0.973-0.428-0.973-0.957c0-0.527,0.436-0.955,0.973-0.955
				c0.536,0,0.971,0.428,0.971,0.955C25.607,22.266,25.175,22.693,24.639,22.693z"/>
		</g>
	</g>
</g>
<g id="形状_113_副本_9_1_" display="none" enable-background="new    ">
	<g id="形状_113_副本_9" display="inline">
		<g>
			<path fill="#6E7072" d="M6.963,19.064c-1.496,0-2.709,1.193-2.709,2.666c0,1.475,1.213,2.668,2.709,2.668
				c1.495,0,2.709-1.193,2.709-2.668C9.672,20.26,8.458,19.064,6.963,19.064z M6.955,22.689c-0.536,0-0.972-0.428-0.972-0.957
				c0-0.527,0.436-0.955,0.972-0.955s0.972,0.428,0.972,0.955C7.927,22.262,7.491,22.689,6.955,22.689z M0.675,20.842h2.85
				c0.412-1.494,1.786-2.602,3.436-2.602c1.649,0,3.024,1.105,3.436,2.602h8.218v-2.646H0.675V20.842z M30.277,14.661H24.51
				c-0.281,0-0.512-0.225-0.512-0.504v-3.398c0-0.278,0.229-0.503,0.512-0.503h5.064C28.33,7.099,25.83,7.631,25.12,7.615h-4.246
				c-0.74,0-1.339,0.589-1.339,1.317v10.613c0,0.02,0.011,0.035,0.012,0.055h0.659v1.063c0.117,0.067,0.244,0.118,0.377,0.153
				c0.421-1.48,1.788-2.575,3.429-2.575c1.657,0,3.039,1.116,3.443,2.622h1.497c0.739,0,1.339-0.592,1.339-1.317v-4.484
				C30.291,14.917,30.279,14.798,30.277,14.661z M17.734,8.5h-4.482V6.722h-0.9V8.5H6.971V6.722H6.069V8.5H1.586V6.722h-0.9v10.612
				h0.9v-0.029h4.483v0.029H6.97v-0.029h5.381v0.029h0.9v-0.029h4.483v0.029h0.899V6.722h-0.899V8.5L17.734,8.5z M6.069,15.539
				H1.586v-1.738h4.483V15.539z M6.069,12.035H1.586v-1.768h4.483V12.035z M12.352,15.539H6.971v-1.738h5.381V15.539z
				 M12.352,12.035H6.971v-1.768h5.381V12.035z M17.734,15.539h-4.482v-1.738h4.482V15.539z M17.734,12.035h-4.482v-1.768h4.482
				V12.035z M24.014,19.064c-1.496,0-2.709,1.193-2.709,2.666c0,1.475,1.213,2.668,2.709,2.668c1.495,0,2.709-1.193,2.709-2.668
				C26.723,20.26,25.509,19.064,24.014,19.064z M24.006,22.689c-0.535,0-0.972-0.428-0.972-0.957c0-0.527,0.437-0.955,0.972-0.955
				c0.536,0,0.971,0.428,0.971,0.955C24.977,22.262,24.542,22.689,24.006,22.689z"/>
		</g>
	</g>
</g>
<g id="形状_113_副本_8_1_" display="none" enable-background="new    ">
	<g id="形状_113_副本_8" display="inline">
		<g>
			<path fill="#6E7072" d="M0.675,20.408h2.85c0.412-1.494,1.786-2.602,3.436-2.602c1.649,0,3.023,1.105,3.436,2.602h8.218v-2.646
				H0.675V20.408z M6.963,18.632c-1.496,0-2.709,1.194-2.709,2.666c0,1.474,1.213,2.667,2.709,2.667
				c1.495,0,2.709-1.193,2.709-2.667C9.672,19.826,8.458,18.632,6.963,18.632z M6.955,22.256c-0.536,0-0.972-0.428-0.972-0.956
				c0-0.526,0.436-0.956,0.972-0.956s0.972,0.43,0.972,0.956C7.927,21.828,7.491,22.256,6.955,22.256z M30.277,14.227H24.51
				c-0.281,0-0.512-0.225-0.512-0.504v-3.398c0-0.278,0.229-0.503,0.512-0.503h5.064C28.33,6.665,25.83,7.198,25.12,7.181h-4.246
				c-0.74,0-1.339,0.589-1.339,1.317v10.613c0,0.02,0.011,0.035,0.012,0.056h0.659v1.062c0.117,0.068,0.244,0.119,0.377,0.154
				c0.421-1.48,1.788-2.576,3.429-2.576c1.657,0,3.038,1.117,3.442,2.623h1.498c0.739,0,1.339-0.591,1.339-1.318v-4.482
				C30.291,14.484,30.279,14.365,30.277,14.227z M24.014,18.632c-1.496,0-2.709,1.194-2.709,2.666c0,1.474,1.213,2.667,2.709,2.667
				c1.495,0,2.709-1.193,2.709-2.667C26.723,19.826,25.509,18.632,24.014,18.632z M24.006,22.256c-0.535,0-0.972-0.428-0.972-0.956
				c0-0.526,0.437-0.956,0.972-0.956c0.536,0,0.971,0.43,0.971,0.956C24.977,21.828,24.542,22.256,24.006,22.256z"/>
		</g>
	</g>
</g>
<g id="形状_113_副本_11_1_" display="none" enable-background="new    ">
	<g id="形状_113_副本_11" display="inline">
		<g>
			<path fill="#6E7072" d="M5.168,18.632c-1.496,0-2.709,1.194-2.709,2.666c0,1.474,1.213,2.667,2.709,2.667
				s2.708-1.193,2.708-2.667C7.876,19.826,6.664,18.632,5.168,18.632z M5.16,22.256c-0.536,0-0.971-0.428-0.971-0.956
				c0-0.526,0.435-0.956,0.971-0.956c0.536,0,0.972,0.43,0.972,0.956C6.132,21.828,5.696,22.256,5.16,22.256z M30.277,14.227H24.51
				c-0.281,0-0.512-0.225-0.512-0.504v-3.398c0-0.278,0.229-0.503,0.512-0.503h5.064C28.33,6.665,25.83,7.198,25.12,7.181h-4.246
				c-0.74,0-1.339,0.589-1.339,1.317v10.613c0,0.02,0.011,0.035,0.012,0.056h0.659v1.062c0.117,0.068,0.244,0.119,0.377,0.154
				c0.421-1.48,1.788-2.576,3.429-2.576c1.657,0,3.038,1.117,3.442,2.623h1.498c0.739,0,1.339-0.591,1.339-1.318v-4.482
				C30.291,14.484,30.279,14.365,30.277,14.227z M11.453,16.018h7.162V15.14H0.675v5.269H1.73c0.413-1.494,1.787-2.603,3.436-2.603
				s3.023,1.106,3.436,2.603h2.852v-3.519h-0.001V16.018z M15.935,17.807c1.074,0,2.025,0.479,2.681,1.215v-2.131h-6.273v3.52H12.5
				C12.911,18.914,14.286,17.807,15.935,17.807z M15.937,18.632c-1.496,0-2.709,1.194-2.709,2.666c0,1.474,1.213,2.667,2.709,2.667
				c1.495,0,2.708-1.193,2.708-2.667C18.645,19.826,17.432,18.632,15.937,18.632z M15.929,22.256c-0.536,0-0.971-0.428-0.971-0.956
				c0-0.526,0.435-0.956,0.971-0.956c0.536,0,0.971,0.428,0.971,0.956S16.465,22.256,15.929,22.256z M24.014,18.632
				c-1.496,0-2.709,1.194-2.709,2.666c0,1.474,1.213,2.667,2.709,2.667c1.495,0,2.709-1.193,2.709-2.667
				C26.723,19.826,25.509,18.632,24.014,18.632z M24.006,22.256c-0.535,0-0.972-0.428-0.972-0.956c0-0.526,0.437-0.956,0.972-0.956
				c0.536,0,0.971,0.43,0.971,0.956C24.977,21.828,24.542,22.256,24.006,22.256z M18.624,8.943h-0.89v6.177h0.89V8.943z"/>
		</g>
	</g>
</g>
<g id="形状_113_副本_13_1_" enable-background="new    ">
	<g id="形状_113_副本_13">
		<g>
			<path fill="#6A6A6A" d="M0,21.703h3.08c0.445-1.615,1.93-2.813,3.713-2.813c1.782,0,3.266,1.196,3.712,2.813h8.88v-2.857H0
				V21.703z M6.794,19.784c-1.617,0-2.927,1.29-2.927,2.881c0,1.593,1.311,2.883,2.927,2.883c1.616,0,2.927-1.29,2.927-2.883
				C9.722,21.074,8.41,19.784,6.794,19.784z M6.786,23.701c-0.58,0-1.051-0.465-1.051-1.034s0.471-1.032,1.051-1.032
				c0.579,0,1.05,0.463,1.05,1.032S7.365,23.701,6.786,23.701z M31.986,15.025h-6.232c-0.304,0-0.553-0.244-0.553-0.546v-3.67
				c0-0.3,0.247-0.543,0.553-0.543h5.473c-1.345-3.411-4.047-2.835-4.813-2.854h-4.589c-0.8,0-1.446,0.637-1.446,1.422v11.467
				c0,0.021,0.012,0.039,0.014,0.063h0.711v1.146c0.127,0.073,0.266,0.128,0.408,0.166c0.454-1.6,1.932-2.782,3.705-2.782
				c1.79,0,3.282,1.207,3.719,2.834h1.619c0.801,0,1.446-0.639,1.446-1.424v-4.846C32.001,15.303,31.988,15.174,31.986,15.025z
				 M25.218,19.784c-1.616,0-2.927,1.29-2.927,2.881c0,1.593,1.311,2.883,2.927,2.883s2.929-1.29,2.929-2.883
				C28.146,21.074,26.834,19.784,25.218,19.784z M25.21,23.701c-0.578,0-1.05-0.465-1.05-1.034s0.472-1.032,1.05-1.032
				c0.579,0,1.049,0.463,1.049,1.032S25.789,23.701,25.21,23.701z M6.394,17.587l4.04-2.958l5.917-4.335H10.64l4.183-3.841h-4.395
				l-5.365,5.719h5.421L6.394,17.587z"/>
		</g>
	</g>
</g>
<g id="形状_113_副本_13_拷贝_1_" display="none" enable-background="new    ">
	<g id="形状_113_副本_13_拷贝" display="inline">
		<g>
			<path fill="#6E7072" d="M6.596,17.755c-1.496,0-2.709,1.194-2.709,2.666c0,1.474,1.213,2.666,2.709,2.666
				c1.495,0,2.708-1.192,2.708-2.666C9.304,18.949,8.091,17.755,6.596,17.755z M6.588,21.379c-0.537,0-0.972-0.429-0.972-0.957
				c0-0.527,0.435-0.956,0.972-0.956c0.536,0,0.971,0.429,0.971,0.956C7.559,20.95,7.124,21.379,6.588,21.379z M30.836,16.871
				c0-0.999-0.816-1.809-1.824-1.809c-0.098,0-0.188,0.014-0.283,0.028l-4.599-5.059c0-0.487-0.401-0.883-0.897-0.883h-0.484V8.915
				c0-0.488-0.4-0.883-0.896-0.883H2.078c-0.496,0-0.897,0.396-0.897,0.883v7.3H1.164v3.367l1.982-0.014
				c0.399-1.516,1.784-2.639,3.447-2.639c1.646,0,3.018,1.1,3.434,2.592l10.206-0.07c0.439-1.454,1.793-2.521,3.412-2.521
				c1.604,0,2.941,1.045,3.396,2.475l1.488-0.01c0.141,0.086,0.295,0.148,0.471,0.148h0.926c0.496,0,0.897-0.395,0.897-0.884v-0.662
				c0-0.158-0.056-0.3-0.13-0.427C30.785,17.355,30.836,17.119,30.836,16.871z M7.406,13.304c0,0.488-0.401,0.884-0.897,0.884H3.816
				c-0.495,0-0.897-0.396-0.897-0.884v-1.738c0-0.488,0.402-0.884,0.897-0.884h2.692c0.496,0,0.897,0.396,0.897,0.884L7.406,13.304
				L7.406,13.304z M15.482,13.332c0,0.487-0.401,0.884-0.897,0.884H9.201c-0.495,0-0.897-0.396-0.897-0.884v-1.767
				c0-0.488,0.402-0.884,0.897-0.884h5.384c0.496,0,0.897,0.396,0.897,0.884V13.332z M24.248,14.207h-5.131
				c-0.495,0-0.896-0.33-0.896-0.736v-2.059c0-0.406,0.401-0.736,0.896-0.736h2.734l3.104,3.071
				C24.957,14.153,24.744,14.207,24.248,14.207z M23.646,17.755c-1.498,0-2.709,1.194-2.709,2.666c0,1.474,1.211,2.666,2.709,2.666
				c1.494,0,2.709-1.192,2.709-2.666C26.355,18.949,25.143,17.755,23.646,17.755z M23.639,21.379c-0.537,0-0.972-0.429-0.972-0.957
				c0-0.527,0.435-0.956,0.972-0.956c0.535,0,0.971,0.429,0.971,0.956C24.609,20.95,24.174,21.379,23.639,21.379z"/>
		</g>
	</g>
</g>
<g id="椭圆_1_1_" display="none" enable-background="new    ">
	<g id="椭圆_1" display="inline">
		<g>
			<path fill="#6E7072" d="M16.245,19.525c-0.999,0-1.809,0.791-1.809,1.766s0.811,1.764,1.809,1.764c1,0,1.812-0.789,1.812-1.764
				S17.245,19.525,16.245,19.525z M16.322,8.945c-2.719,0-4.923,2.025-4.923,4.524c0,0.225,0.025,0.443,0.061,0.659h2.808
				c-0.074-0.202-0.123-0.414-0.123-0.638c0-1.112,0.984-2.015,2.198-2.015s2.198,0.902,2.198,2.015
				c0,1.114-0.984,2.017-2.198,2.017c-0.514,0-0.98-0.168-1.354-0.439v3.569h2.699v-0.843c2.051-0.547,3.56-2.265,3.56-4.325
				C21.245,10.971,19.041,8.945,16.322,8.945z"/>
		</g>
	</g>
</g>
</svg>
