<?xml version="1.0" encoding="utf-8"?>
<!-- Generator: Adobe Illustrator 16.0.0, SVG Export Plug-In . SVG Version: 6.00 Build 0)  -->
<!DOCTYPE svg PUBLIC "-//W3C//DTD SVG 1.1//EN" "http://www.w3.org/Graphics/SVG/1.1/DTD/svg11.dtd">
<svg version="1.1" id="按里程_1_" xmlns="http://www.w3.org/2000/svg" xmlns:xlink="http://www.w3.org/1999/xlink" x="0px"
	 y="0px" width="28.138px" height="22.345px" viewBox="0 0 28.138 22.345" enable-background="new 0 0 28.138 22.345"
	 xml:space="preserve">
<g id="按里程">
	<g>
		<path fill-rule="evenodd" clip-rule="evenodd" fill="#6E7072" d="M11.676,21.067c-0.634-1.013-5.173-3.807-5.678-7.082
			c-0.222-1.443,1.306-2.492,4.864-3.522c7.555-2.187,5.349-3.831,5.349-3.831H16.8c0,0,1.559,1.434-1.022,2.813
			c-2.042,1.091-6.35,1.981-7.278,4.023c-0.415,0.913,0.534,2.451,8.706,7.911c0.458,0.306,0.815,0.699,1.019,0.948l9.641-0.006
			c0,0-1.045-0.838-4.234-2.314c-3.492-1.616-9.572-3.98-9.148-6.474c0.467-2.749,7.4-2.51,6.801-5.885
			c-0.201-1.132-1.939-2.212-2.917-2.524c-1.27-0.405-1.77-0.934-1.975-1.313h3.341l-9.1-3.128L8.274,3.813h3.914
			c0.085,0.215,0.301,0.496,0.814,0.842c2.266,1.53,2.126,2.905-3.133,3.541C4.518,8.844-3.666,12.488,2.478,18.323
			c1.773,1.684,1.53,2.055,2.183,4.014l7.737-0.005C12.233,21.881,11.981,21.553,11.676,21.067z"/>
	</g>
</g>
</svg>
