<?xml version="1.0" encoding="utf-8"?>
<!-- Generator: Adobe Illustrator 16.0.0, SVG Export Plug-In . SVG Version: 6.00 Build 0)  -->
<!DOCTYPE svg PUBLIC "-//W3C//DTD SVG 1.1//EN" "http://www.w3.org/Graphics/SVG/1.1/DTD/svg11.dtd">
<svg version="1.1" id="按重量_1_" xmlns="http://www.w3.org/2000/svg" xmlns:xlink="http://www.w3.org/1999/xlink" x="0px"
	 y="0px" width="27.31px" height="24px" viewBox="0 0 27.31 24" enable-background="new 0 0 27.31 24" xml:space="preserve">
<g id="按重量">
	<g>
		<path fill-rule="evenodd" clip-rule="evenodd" fill="#6E7072" d="M9.835,5.432h0.094c0.176-1.676,1.577-2.988,3.3-2.988
			c1.724,0,3.124,1.312,3.299,2.988h0.097l1.217,3.838c0.737-0.972,1.18-2.179,1.18-3.493c0-3.199-2.593-5.792-5.792-5.792
			c-3.199,0-5.792,2.593-5.792,5.792c0,1.314,0.443,2.522,1.181,3.495L9.835,5.432z M21.16,10.769h-4.549l-1.118-4.163h-4.526
			l-1.118,4.163H5.299L2.059,23.975h22.342L21.16,10.769z M17.376,15.716h-3.309v4.967H12.41v-4.967H9.098v-1.669h8.279V15.716z"/>
	</g>
</g>
</svg>
