<?xml version="1.0" encoding="utf-8"?>
<!-- Generator: Adobe Illustrator 16.0.0, SVG Export Plug-In . SVG Version: 6.00 Build 0)  -->
<!DOCTYPE svg PUBLIC "-//W3C//DTD SVG 1.1//EN" "http://www.w3.org/Graphics/SVG/1.1/DTD/svg11.dtd">
<svg version="1.1" id="图层_1" xmlns="http://www.w3.org/2000/svg" xmlns:xlink="http://www.w3.org/1999/xlink" x="0px" y="0px"
	 width="32px" height="32px" viewBox="0 0 32 32" enable-background="new 0 0 32 32" xml:space="preserve">
<g id="形状_14_1_" display="none" enable-background="new    ">
	<g id="形状_14" display="inline">
		<g>
			<path fill="#3179E4" d="M15.999,8.049c-4.438,0-8.037,3.561-8.037,7.952c0,4.39,3.599,7.95,8.037,7.95
				c4.438,0,8.039-3.561,8.039-7.95C24.038,11.609,20.438,8.049,15.999,8.049z M20.499,16.891h-3.601v3.561h-1.799v-3.561H11.5
				V15.11h3.6v-3.56h1.8v3.561h3.6L20.499,16.891L20.499,16.891z"/>
		</g>
	</g>
</g>
<g id="图层_1_xA0_图像_1_" display="none">
</g>
<g id="箭头_1_" display="none" enable-background="new    ">
	<g id="箭头" display="inline">
		<g>
			<polygon fill="#262626" points="16,18.262 12.595,13.739 11.006,13.739 16,20.371 20.994,13.739 19.404,13.739 			"/>
		</g>
	</g>
</g>
<g id="按车次_1_" display="none" enable-background="new    ">
	<g id="按车次" display="inline">
		<g>
			<path fill="#6E7072" d="M19.253,6.648H1.271V17.34h17.981L19.253,6.648L19.253,6.648z M7.572,19.094
				c-1.499,0-2.716,1.202-2.716,2.686c0,1.484,1.217,2.687,2.716,2.687c1.5,0,2.716-1.202,2.716-2.687
				C10.288,20.296,9.072,19.094,7.572,19.094z M7.564,22.744c-0.538,0-0.974-0.432-0.974-0.965c0-0.53,0.436-0.963,0.974-0.963
				s0.975,0.433,0.975,0.963C8.539,22.313,8.103,22.744,7.564,22.744z M1.268,20.883h2.858c0.413-1.507,1.79-2.621,3.444-2.621
				c1.654,0,3.032,1.114,3.445,2.621h8.241V18.25H1.268V20.883z M24.668,19.094c-1.5,0-2.717,1.202-2.717,2.686
				c0,1.484,1.217,2.687,2.717,2.687c1.499,0,2.715-1.202,2.715-2.687C27.383,20.296,26.167,19.094,24.668,19.094z M24.66,22.744
				c-0.538,0-0.975-0.432-0.975-0.965c0-0.53,0.437-0.963,0.975-0.963s0.974,0.433,0.974,0.963
				C25.634,22.313,25.198,22.744,24.66,22.744z M30.95,14.653h-5.783c-0.283,0-0.513-0.227-0.513-0.507v-3.423
				c0-0.281,0.229-0.508,0.513-0.508h5.077c-1.248-3.18-3.756-2.643-4.467-2.661H21.52c-0.74,0-1.342,0.595-1.342,1.328v10.693
				c0,0.021,0.012,0.036,0.012,0.056h0.66V20.7c0.118,0.067,0.246,0.118,0.379,0.155c0.424-1.492,1.795-2.594,3.438-2.594
				c1.66,0,3.044,1.123,3.45,2.641h1.504c0.741,0,1.343-0.594,1.343-1.326v-4.519C30.963,14.913,30.952,14.792,30.95,14.653z"/>
		</g>
	</g>
</g>
<g id="按件数_1_" display="none" enable-background="new    ">
	<g id="按件数" display="inline">
		<g>
			<path fill="#6E7072" d="M20.954,3.979H7.447v11.583h13.507V3.979z M16.268,7.531l-4.071,0.013
				C11.756,7.549,11.4,7.156,11.4,6.665c0-0.491,0.356-0.895,0.796-0.9l4.071-0.012c0.44-0.006,0.797,0.388,0.797,0.879
				C17.064,7.122,16.708,7.524,16.268,7.531z M2.049,28.021h13.507V16.439H2.049V28.021z M6.798,18.225l4.071-0.013
				c0.44-0.005,0.796,0.39,0.796,0.879c0,0.491-0.356,0.894-0.796,0.9l-4.071,0.013c-0.44,0.006-0.796-0.389-0.796-0.879
				C6.001,18.634,6.358,18.23,6.798,18.225z M16.445,16.439v11.583h13.506V16.439H16.445z M25.266,19.991l-4.07,0.013
				c-0.44,0.006-0.799-0.389-0.799-0.879c0-0.491,0.357-0.895,0.799-0.9l4.07-0.013c0.439-0.005,0.797,0.39,0.797,0.879
				C26.063,19.582,25.705,19.984,25.266,19.991z"/>
		</g>
	</g>
</g>
<g id="按方量_1_" enable-background="new    ">
	<g id="按方量">
		<g>
			<path fill="#6E7072" d="M22.55,9.104v19.868L32,23.65V3.852L22.55,9.104z M0,29.467l21.359,0.023V9.557L0,9.572V29.467z
				 M8.023,11.903l5.36-0.017c0.578-0.008,1.049,0.511,1.049,1.157c0,0.646-0.47,1.177-1.049,1.182l-5.36,0.018
				c-0.579,0.007-1.049-0.51-1.049-1.156S7.444,11.91,8.023,11.903z M30.18,2.539L10.25,2.51L0.016,8.368l19.931,0.028L30.18,2.539z
				"/>
		</g>
	</g>
</g>
<g id="按重量_1_" display="none" enable-background="new    ">
	<g id="按重量" display="inline">
		<g>
			<path fill="#6E7072" d="M12.31,8.958h0.104c0.19-1.803,1.712-3.214,3.586-3.214c1.873,0,3.396,1.411,3.587,3.213h0.104
				l1.324,4.129c0.801-1.045,1.281-2.344,1.281-3.758c0-3.44-2.818-6.229-6.297-6.229c-3.479,0-6.298,2.79-6.298,6.23
				c0,1.414,0.481,2.714,1.284,3.759L12.31,8.958z M24.622,14.697h-4.945l-1.216-4.476H13.54l-1.216,4.476H7.379L3.855,28.898h24.29
				L24.622,14.697z M20.509,20.02h-3.597v5.34h-1.803v-5.34h-3.602v-1.797h9.001L20.509,20.02L20.509,20.02z"/>
		</g>
	</g>
</g>
<g id="按里程_1_" display="none" enable-background="new    ">
	<g id="按里程" display="inline">
		<g>
			<path fill="#6E7072" d="M13.391,26.148c-0.69-1.088-5.624-4.094-6.173-7.614c-0.242-1.554,1.42-2.68,5.289-3.788
				c8.212-2.352,5.813-4.121,5.813-4.121h0.643c0,0,1.691,1.542-1.111,3.025c-2.221,1.173-6.903,2.13-7.914,4.327
				c-0.451,0.98,0.581,2.637,9.464,8.508c0.496,0.328,0.887,0.752,1.105,1.021l10.482-0.007c0,0-1.137-0.9-4.604-2.486
				c-3.797-1.738-10.408-4.283-9.947-6.964c0.508-2.957,8.044-2.699,7.395-6.329c-0.219-1.218-2.108-2.379-3.172-2.715
				C19.289,8.57,18.732,8,18.509,7.593h3.64l-9.893-3.364L9.692,7.594h4.254c0.092,0.231,0.327,0.533,0.885,0.906
				c2.463,1.645,2.312,3.124-3.405,3.808C5.607,13.004-3.289,16.923,3.39,23.197c1.928,1.813,1.663,2.209,2.374,4.318l8.412-0.006
				C13.997,27.027,13.722,26.673,13.391,26.148z"/>
		</g>
	</g>
</g>
</svg>
