<?xml version="1.0" encoding="utf-8"?>
<!-- Generator: Adobe Illustrator 16.0.0, SVG Export Plug-In . SVG Version: 6.00 Build 0)  -->
<!DOCTYPE svg PUBLIC "-//W3C//DTD SVG 1.1//EN" "http://www.w3.org/Graphics/SVG/1.1/DTD/svg11.dtd">
<svg version="1.1" id="按车次_1_" xmlns="http://www.w3.org/2000/svg" xmlns:xlink="http://www.w3.org/1999/xlink" x="0px"
	 y="0px" width="27.31px" height="24px" viewBox="0 0 27.31 24" enable-background="new 0 0 27.31 24" xml:space="preserve">
<g id="按车次">
	<g>
		<path fill-rule="evenodd" clip-rule="evenodd" fill="#6E7072" d="M-0.01,16.527h2.629c0.38-1.401,1.647-2.437,3.168-2.437
			s2.788,1.035,3.168,2.437h7.58V14.08H-0.01V16.527z M5.789,14.863c-1.379,0-2.498,1.119-2.498,2.498
			c0,1.38,1.118,2.499,2.498,2.499c1.38,0,2.498-1.119,2.498-2.499C8.287,15.982,7.169,14.863,5.789,14.863z M5.782,18.259
			c-0.495,0-0.896-0.4-0.896-0.896c0-0.494,0.401-0.896,0.896-0.896s0.896,0.401,0.896,0.896
			C6.678,17.858,6.277,18.259,5.782,18.259z M16.534,3.293h-16.54v9.941h16.54V3.293z M27.292,10.737h-5.319
			c-0.26,0-0.472-0.211-0.472-0.472V7.082c0-0.26,0.212-0.472,0.472-0.472h4.67c-1.147-2.956-3.453-2.458-4.108-2.474h-3.915
			c-0.682,0-1.234,0.553-1.234,1.234v9.943c0,0.019,0.01,0.034,0.011,0.053h0.607v0.993c0.108,0.063,0.226,0.11,0.349,0.145
			c0.388-1.389,1.648-2.412,3.16-2.412c1.529,0,2.802,1.045,3.175,2.456h1.383c0.682,0,1.234-0.553,1.234-1.234v-4.201
			C27.303,10.978,27.293,10.866,27.292,10.737z M21.513,14.863c-1.38,0-2.498,1.119-2.498,2.498c0,1.38,1.118,2.499,2.498,2.499
			s2.498-1.119,2.498-2.499C24.011,15.982,22.893,14.863,21.513,14.863z M21.506,18.259c-0.494,0-0.896-0.4-0.896-0.896
			c0-0.494,0.401-0.896,0.896-0.896c0.495,0,0.896,0.401,0.896,0.896C22.402,17.858,22.001,18.259,21.506,18.259z"/>
	</g>
</g>
</svg>
