<?xml version="1.0" encoding="utf-8"?>
<!-- Generator: Adobe Illustrator 16.0.0, SVG Export Plug-In . SVG Version: 6.00 Build 0)  -->
<!DOCTYPE svg PUBLIC "-//W3C//DTD SVG 1.1//EN" "http://www.w3.org/Graphics/SVG/1.1/DTD/svg11.dtd">
<svg version="1.1" id="形状_113_副本_9_1_" xmlns="http://www.w3.org/2000/svg" xmlns:xlink="http://www.w3.org/1999/xlink"
	 x="0px" y="0px" width="35px" height="20px" viewBox="0 0 35 20" enable-background="new 0 0 35 20" xml:space="preserve">
<g id="形状_113_副本_9">
	<g>
		<path fill-rule="evenodd" clip-rule="evenodd" fill="#6E7072" d="M6.995,13.96c-1.667,0-3.018,1.352-3.018,3.019
			s1.351,3.018,3.018,3.018s3.019-1.351,3.019-3.018S8.662,13.96,6.995,13.96z M6.987,18.063c-0.598,0-1.083-0.484-1.083-1.083
			c0-0.598,0.484-1.082,1.083-1.082c0.598,0,1.082,0.484,1.082,1.082C8.069,17.578,7.584,18.063,6.987,18.063z M-0.012,15.971h3.176
			c0.459-1.692,1.991-2.944,3.829-2.944s3.37,1.252,3.829,2.944h9.159v-2.996H-0.012V15.971z M32.985,8.974H26.55
			c-0.315,0-0.569-0.256-0.569-0.57V4.557c0-0.315,0.254-0.57,0.569-0.57h5.647c-1.387-3.579-4.177-2.97-4.969-2.989h-4.731
			c-0.823,0-1.491,0.668-1.491,1.491v12.014c0,0.021,0.006,0.042,0.007,0.063h0.74v1.223c0.128,0.075,0.271,0.125,0.418,0.16
			c0.467-1.681,1.992-2.922,3.822-2.922c1.847,0,3.386,1.263,3.837,2.968h1.67c0.824,0,1.492-0.668,1.492-1.492V9.427
			C32.992,9.271,32.987,9.125,32.985,8.974z M25.995,13.96c-1.667,0-3.019,1.352-3.019,3.019s1.352,3.018,3.019,3.018
			s3.019-1.351,3.019-3.018S27.662,13.96,25.995,13.96z M25.986,18.063c-0.598,0-1.082-0.484-1.082-1.083
			c0-0.598,0.484-1.082,1.082-1.082s1.082,0.484,1.082,1.082C27.068,17.578,26.584,18.063,25.986,18.063z M19,2h-4.996v-2.013H13V2
			H7.004v-2.013H6V2H1.004v-2.013H0V12h1.004v-0.031H6V12h1.004v-0.031H13V12h1.004v-0.031H19V12h1.004V-0.013H19V2z M6,9.969H1.004
			V8H6V9.969z M6,6H1.004V4H6V6z M13,9.969H7.004V8H13V9.969z M13,6H7.004V4H13V6z M19,9.969h-4.996V8H19V9.969z M19,6h-4.996V4H19
			V6z"/>
	</g>
</g>
</svg>
