<?xml version="1.0" encoding="utf-8"?>
<!-- Generator: Adobe Illustrator 16.0.0, SVG Export Plug-In . SVG Version: 6.00 Build 0)  -->
<!DOCTYPE svg PUBLIC "-//W3C//DTD SVG 1.1//EN" "http://www.w3.org/Graphics/SVG/1.1/DTD/svg11.dtd">
<svg version="1.1" id="图层_1" xmlns="http://www.w3.org/2000/svg" xmlns:xlink="http://www.w3.org/1999/xlink" x="0px" y="0px"
	 width="32px" height="32px" viewBox="0 0 32 32" enable-background="new 0 0 32 32" xml:space="preserve">
<g id="矩形_1_1_" enable-background="new    ">
	<g id="矩形_1">
		<g>
			<polygon fill="#6A6A6A" points="32,12.801 19.244,12.801 19.244,0 12.969,0 12.969,12.801 0,12.801 0,19.201 12.969,19.201 
				12.969,32 19.244,32 19.244,19.201 32,19.201 			"/>
		</g>
	</g>
</g>
<g id="形状_1_副本_8_1_" display="none" enable-background="new    ">
	<g id="形状_1_副本_8" display="inline">
		<g>
			<path fill="#6A6A6A" d="M19.367,20.523h0.229c0.954,0.029,1.879-0.797,1.957-1.172l0.022-0.147
				c0.001-0.005,0.005-0.011,0.006-0.015c0.369-1.849,0.802-4.099,1.219-6.188c0.085-0.263,0.11-0.477,0.115-0.671l0.01-0.065
				c0.082-0.507-0.425-1.137-0.999-1.108h-0.764l0.001-0.006H4.312c-0.542,0-0.99,0.213-1.339,0.476
				c-0.01-0.004-0.02-0.008-0.02-0.008s-0.211,0.167-0.466,0.466c-0.039,0.045-0.075,0.086-0.108,0.128
				c-0.003,0.004-0.006,0.008-0.01,0.012c-0.171,0.219-0.267,0.388-0.267,0.388h0.005c-0.213,0.351-0.406,0.786-0.491,1.304
				c0,0,0.714-1.218,2.245-1.278c0.104-0.004,0.186-0.014,0.255-0.026h16.499l-0.383,1.936H3.919c-0.75,0-1.34,0.352-1.771,0.735
				l-0.003-0.001c0,0-0.034,0.029-0.08,0.072c-0.47,0.442-0.722,0.901-0.722,0.901h0.004c-0.237,0.396-0.455,0.899-0.533,1.503
				c0,0,0.712-1.312,2.321-1.426c0.262-0.018,0.527-0.07,0.729-0.074c0.006,0,0.007-0.002,0.012-0.003h16.019l-0.443,2.239H3.292
				c-1.213,0.104-1.94,0.755-2.349,1.294c-0.154,0.17-0.926,1.091-0.954,2.437c0,0,0.528-1.31,2.013-1.574
				c0.217-0.037,0.451-0.084,0.618-0.115h16.743L19.367,20.523z M5.026,7.757h1.458l-0.522,2.294h2.751l0.522-2.294H9.86
				c1.823,0,2.172-1.208,2.172-1.208l0.58-2.616h-2.3L9.99,5.327C9.73,6.468,8.351,6.266,8.351,6.266H5.969
				c-0.888,0-1.525,0.264-1.98,0.569c-0.001,0-0.007-0.002-0.007-0.002s-0.046,0.034-0.11,0.084c-0.544,0.402-0.78,0.84-0.78,0.84
				h0.006C2.864,8.095,2.645,8.52,2.531,9.035C2.531,9.035,3.514,7.845,5.026,7.757z M22.258,21.188
				c-1.895,0-3.662,1.352-3.955,3.017c-0.291,1.666,1.008,3.017,2.901,3.017s3.664-1.351,3.955-3.017
				C25.451,22.538,24.15,21.188,22.258,21.188z M23.289,24.204c-0.133,0.758-0.938,1.371-1.798,1.371
				c-0.859,0-1.449-0.613-1.317-1.371c0.131-0.757,0.936-1.37,1.797-1.37C22.831,22.834,23.421,23.447,23.289,24.204z
				 M15.291,10.028h8.068l0.42-1.621h-6.813c0,0-0.828,0.129-0.507-0.823l0.188-0.974h7.359l0.401-1.545h-7.464l0.227-1.167H14.98
				L13.963,8.57C13.963,8.57,13.85,10.028,15.291,10.028z M25.323,7.625l-2.446,12.551c1.83,0.158,3.158,1.271,3.448,2.784h4.034
				l1.553-8.154C32.827,6.919,25.323,7.625,25.323,7.625z M28.956,21.236h-1.404c-0.661-1.148-1.677-1.83-2.721-2.223l1.942-9.609
				c0,0,3.539,0.31,3.609,3.723C30.41,14.4,28.956,21.236,28.956,21.236z M7.216,21.188c-1.893,0-3.663,1.352-3.955,3.017
				c-0.291,1.666,1.008,3.017,2.901,3.017s3.665-1.351,3.956-3.017S9.11,21.188,7.216,21.188z M8.249,24.204
				c-0.132,0.758-0.937,1.371-1.797,1.371c-0.86,0-1.45-0.613-1.318-1.371c0.132-0.757,0.937-1.37,1.798-1.37
				C7.79,22.834,8.381,23.447,8.249,24.204z"/>
		</g>
	</g>
</g>
</svg>
