<?xml version="1.0" encoding="utf-8"?>
<!-- Generated by IcoMoon.io -->
<!DOCTYPE svg PUBLIC "-//W3C//DTD SVG 1.1//EN" "http://www.w3.org/Graphics/SVG/1.1/DTD/svg11.dtd">
<svg version="1.1" xmlns="http://www.w3.org/2000/svg" xmlns:xlink="http://www.w3.org/1999/xlink" width="32" height="32" viewBox="0 0 32 32">
<path fill="#6a6a6a" d="M14.911 9.138c3.314 0 5.443 1.538 6.977 3.897h3.35c-1.551-3.504-5.479-6.026-10.335-6.026s-9.186 2.522-10.917 6.026h3.501c1.544-2.36 4.111-3.897 7.424-3.897zM26.077 13.9h-22.453c-0.060 0.168-0.124 0.335-0.171 0.508-2.129 0.845-3.453 2.61-3.453 4.669 0 1.335 0.569 2.537 1.534 3.459 0.621 0 1.369 0 2.201 0 0.505 1.426 1.856 2.455 3.461 2.455s2.955-1.029 3.461-2.455c3.792 0 8.053 0 10.81 0 0.505 1.426 1.855 2.455 3.459 2.455s2.955-1.029 3.461-2.455c0.899 0 1.619 0 2.080 0 0.966-0.922 1.533-2.124 1.533-3.459-0.001-2.77-2.385-5.014-5.923-5.177zM7.194 23.538c-1.229 0-2.224-0.995-2.224-2.218 0-1.225 0.995-2.217 2.224-2.217s2.225 0.992 2.225 2.217c-0.001 1.223-0.997 2.218-2.225 2.218zM24.924 23.538c-1.228 0-2.223-0.995-2.223-2.218 0-1.225 0.995-2.217 2.223-2.217 1.229 0 2.224 0.992 2.224 2.217 0.002 1.223-0.995 2.218-2.224 2.218z"></path>
</svg>
