<?xml version="1.0" encoding="utf-8"?>
<!-- Generated by IcoMoon.io -->
<!DOCTYPE svg PUBLIC "-//W3C//DTD SVG 1.1//EN" "http://www.w3.org/Graphics/SVG/1.1/DTD/svg11.dtd">
<svg version="1.1" xmlns="http://www.w3.org/2000/svg" xmlns:xlink="http://www.w3.org/1999/xlink" width="32" height="32" viewBox="0 0 32 32">
<path fill="#6a6a6a" d="M16.723 0.489c-0.114-0.309-0.411-0.496-0.725-0.489-0.314-0.009-0.613 0.178-0.725 0.488l-4.576 10.118h10.602l-4.576-10.117zM22 12.16h-12.005l-3.771 8.336h19.546l-3.77-8.336zM30.57 30.365h-29.139c-0.453 0-0.819 0.366-0.819 0.818s0.367 0.817 0.819 0.817h29.139c0.451 0 0.818-0.364 0.818-0.816s-0.367-0.819-0.818-0.819zM28.842 29.242c0 0 0.59-0.569 0.449-0.957l-2.805-6.203h-20.977l-2.805 6.203c-0.141 0.388 0.449 0.957 0.449 0.957h25.689z"></path>
</svg>
