<?xml version="1.0" encoding="utf-8"?>
<!-- Generated by IcoMoon.io -->
<!DOCTYPE svg PUBLIC "-//W3C//DTD SVG 1.1//EN" "http://www.w3.org/Graphics/SVG/1.1/DTD/svg11.dtd">
<svg version="1.1" xmlns="http://www.w3.org/2000/svg" xmlns:xlink="http://www.w3.org/1999/xlink" width="32" height="32" viewBox="0 0 32 32">
<path fill="#6a6a6a" d="M24.828 0h-17.656c-1.477 0-2.675 1.195-2.675 2.666v26.669c0 1.472 1.198 2.665 2.675 2.665h17.656c1.479 0 2.676-1.195 2.676-2.665v-26.668c0-1.472-1.197-2.667-2.676-2.667zM14.062 1.334h3.878c0.258 0 0.471 0.209 0.471 0.468 0 0.256-0.213 0.466-0.471 0.466h-3.878c-0.259 0-0.468-0.21-0.468-0.466 0-0.259 0.209-0.468 0.468-0.468zM16.001 31.069c-0.886 0-1.605-0.716-1.605-1.601s0.719-1.601 1.605-1.601 1.604 0.717 1.604 1.601c0 0.886-0.718 1.601-1.604 1.601zM25.162 25.069c0 0.883-0.719 1.601-1.605 1.601h-15.114c-0.887 0-1.605-0.718-1.605-1.601v-20.135c0-0.883 0.719-1.6 1.605-1.6h15.115c0.885 0 1.604 0.717 1.604 1.6v20.135z"></path>
</svg>
