<?xml version="1.0" encoding="utf-8"?>
<!-- Generated by IcoMoon.io -->
<!DOCTYPE svg PUBLIC "-//W3C//DTD SVG 1.1//EN" "http://www.w3.org/Graphics/SVG/1.1/DTD/svg11.dtd">
<svg version="1.1" xmlns="http://www.w3.org/2000/svg" xmlns:xlink="http://www.w3.org/1999/xlink" width="32" height="32" viewBox="0 0 32 32">
<path fill="#6a6a6a" d="M3.993 16.959c-0.904 0.226-1.67-0.529-2.621-0.266 0.395-0.649 0.789-1.299 1.184-1.949 0.084-0.029 0.169-0.059 0.254-0.088 0.367 0.502 0.732 1.004 1.1 1.506 0.367-0.029 0.733-0.060 1.1-0.089 1.187-1.906-1.675-3.549-3.097-2.873-2.059 0.739-2.778 3.961-0.54 5.353 1.981 1.232 4.112-0.602 4.143-2.48-0.508 0.295-1.016 0.592-1.523 0.886z"></path>
<path fill="#6a6a6a" d="M8.585 13.566c-0.116-0.026-0.23-0.049-0.345-0.074-0.275 0.157-0.551 0.313-0.826 0.469 0.401-0.061 0.803-0.12 1.205-0.18-0.011-0.072-0.023-0.144-0.034-0.215zM19.912 15.117c0.012-0.013 0.022-0.024 0.034-0.037 0.012 0.3 0.023 0.602 0.035 0.902 0.021 0.023 0.045 0.048 0.068 0.072 0.19 0.237 0.378-0.060 0.62 0.036 0.137 0.156 0.273 0.313 0.411 0.469 0.128-0.035 0.253-0.071 0.379-0.107v-1.552c-0.058-0.061-0.114-0.121-0.171-0.181-0.331-0.104-0.837 0.005-1.067 0 0.046-0.084 0.092-0.168 0.138-0.252-0.115-0.036-0.229-0.072-0.345-0.108v-0.036c0.192-0.086 0.411-0.176 0.655-0.107-0.069 0.12-0.14 0.24-0.208 0.36h0.035c0.167 0.060 0.443-0.097 0.584-0.181-0.045-0.084-0.090-0.169-0.138-0.253 0.207-0.035 0.413-0.071 0.619-0.107v-0.072c-0.223-0.157-0.886-0.21-1.204-0.325-0.178 0.329-0.471 0.416-0.93 0.434-0.035 0.023-0.067 0.048-0.104 0.071 0.063 0.28 0.149 0.272 0.482 0.253 0.023 0.228 0.049 0.246 0.206 0.324v0.072c-0.471 0.297-0.616 0.651-0.516 1.443l0.105 0.145c0.312-0.115 0.199-0.966 0.312-1.263zM20.291 14.9c0.080-0.012 0.161-0.024 0.239-0.036-0.046 0.156-0.091 0.313-0.138 0.468l0.447-0.179-0.104-0.397c0.012-0.012 0.023-0.025 0.034-0.037 0.067 0.012 0.139 0.024 0.207 0.037 0.198 0.149 0.118 0.987 0.104 1.334-0.012 0.012-0.022 0.024-0.035 0.036h-0.067c-0.067-0.036-0.139-0.072-0.207-0.108 0.080-0.167 0.161-0.336 0.241-0.505-0.021-0.035-0.047-0.072-0.069-0.107-0.23 0.012-0.459 0.024-0.689 0.036-0.021 0.023-0.045 0.049-0.067 0.072 0.013 0.036 0.022 0.072 0.034 0.108 0.113-0.012 0.229-0.024 0.344-0.036 0.013 0.036 0.022 0.072 0.035 0.107-0.058 0.062-0.115 0.121-0.172 0.181-0.115-0.035-0.23-0.071-0.345-0.107-0.012-0.012-0.022-0.024-0.034-0.036 0.059-0.406 0.205-0.516 0.242-0.831zM9.961 16.703c0.286-0.146 0.424-0.495 0.517-0.829 0.161-0.023 0.321-0.048 0.482-0.071-0.045 0.229-0.091 0.457-0.138 0.686 0.579-0.129 0.444-0.849 0.896-1.118-0.034-0.107-0.068-0.216-0.104-0.325-0.422-0.058-0.376 0.099-0.654 0.398-0.045 0.012-0.091 0.023-0.138 0.036-0.011-0.013-0.022-0.024-0.034-0.036-0.011-0.036-0.023-0.072-0.034-0.109 0.112-0.331 0.357-0.58 0.62-0.757-0.084-0.44-0.139-0.459 0.275-0.648-0.013-0.062-0.023-0.121-0.035-0.181-0.421-0.090-0.727 0.031-0.999 0.181v0.181h0.448c0.023 0.012 0.046 0.023 0.068 0.035v0.073c-0.171 0.121-0.344 0.24-0.516 0.36 0.106 0.669-0.424 1.278-0.689 1.948 0.012 0.056 0.024 0.117 0.035 0.176zM14.404 15.296c-0.168 0.065-0.122 0.106-0.275 0.035 0.172-0.12 0.344-0.24 0.516-0.359v-0.36c-0.363 0.159-0.431 0.487-0.896 0.542 0.004-0.799 0.584-0.475 0.964-0.831 0.072-0.114 0.050-0.119 0.035-0.288-0.098-0.050-0.757 0.036-0.757 0.036-0.12-0.209 0.098-0.226-0.171-0.36-0.035 0.012-0.070 0.023-0.104 0.036-0.023 0.145-0.045 0.289-0.069 0.433-0.034 0.048-0.069 0.097-0.103 0.145-0.251-0.044-0.204-0.116-0.31-0.288-0.034 0.012-0.069 0.024-0.104 0.036-0.129 0.285-0.204 0.539-0.068 0.83 0.265-0.083 0.312-0.264 0.516-0.398-0.161 0.454-0.547 0.726-0.585 1.263 0.034 0.036 0.068 0.072 0.104 0.107 0.197-0.085 0.204-0.229 0.31-0.396-0.011 0.336-0.023 0.672-0.034 1.010 0.034 0.036 0.069 0.071 0.104 0.108 0.378-0.112 0.707-0.486 0.792-0.903 0.331 0.096 0.516 0.251 0.689 0.506 0.158-0.040 0.095 0.002 0.172-0.108-0.181-0.344-0.618-0.406-0.726-0.796zM14.024 14.142c0.069 0.014 0.138 0.024 0.207 0.037-0.046 0.048-0.092 0.097-0.137 0.145-0.047-0.013-0.094-0.024-0.138-0.036 0.023-0.049 0.044-0.098 0.068-0.146zM13.783 16.090c-0.035 0.012-0.069 0.024-0.103 0.036v-0.505c0.057-0.062 0.115-0.121 0.171-0.181 0.070 0.012 0.138 0.023 0.207 0.037 0.023 0.023 0.046 0.048 0.069 0.071-0.076 0.277-0.185 0.367-0.344 0.542zM16.503 15.043c-0.088 0.391-0.334 0.495-0.482 0.83 0.023 0.062 0.046 0.121 0.069 0.181 0.011 0.036 0.022 0.072 0.034 0.108 0.081-0.048 0.161-0.096 0.241-0.146 0.125 0.089 0.15 0.203 0.173 0.398 0.045 0.012 0.092 0.024 0.138 0.036h0.035c0.069-0.439 0.063-0.934 0.207-1.264 0.237 0.077 0.655-0.369 0.929-0.18v1.082c-0.281-0.056-0.414-0.196-0.585-0.36-0.012-0.012-0.022-0.023-0.034-0.037v-0.107c0.153-0.025 0.177-0.006 0.275 0.107 0.081-0.023 0.16-0.048 0.24-0.071-0.022-0.084-0.047-0.169-0.068-0.253-0.297-0.061-0.378 0.032-0.551 0.18 0.177 0.611 0.419 0.664 0.825 1.083 0.035 0.013 0.068 0.023 0.104 0.037 0.040-0.437-0.137-1.182 0-1.588 0.077-0.228 0.259-0.118 0.31-0.469-0.090-0.013-0.184-0.024-0.274-0.036v-0.722c-0.012-0.036-0.021-0.071-0.034-0.107-0.115 0.061-0.23 0.12-0.345 0.181 0.072 0.087 0.095 0.092 0.206 0.145-0.012 0.18-0.021 0.36-0.033 0.541-0.352 0.176-0.69 0.367-0.999 0.505 0.060-0.413-0.007-0.905-0.207-1.155-0.112 0.168-0.185 0.299-0.207 0.577-0.209 0.137-0.4 0.223-0.757 0.217v0.107c0.257 0.214 0.439 0.333 0.79 0.18zM28.657 16.018c-0.202-0.224-0.53-0.568-0.759-0.54-0.011-0.024-0.021-0.048-0.033-0.072 0.206-0.145 0.414-0.288 0.619-0.433v-0.146c-0.264-0.062-0.634 0.441-0.931 0.613v0.037c0.059 0.048 0.115 0.096 0.174 0.145-0.068 0.227-0.188 0.276-0.311 0.433h-0.068c-0.193-0.446 0.011-1.013 0.446-0.938-0.013-0.43-0.009-0.919 0.173-1.155-0.093-0.184-0.134-0.194-0.414-0.18 0.047 0.061 0.094 0.12 0.139 0.18-0.013 0.108-0.022 0.217-0.033 0.325v0.107h-0.035c-0.093-0.072-0.185-0.145-0.274-0.217-0.059-0.012-0.116-0.023-0.173-0.037 0.020 0.253-0.023 0.555-0.070 0.86 0.012-0.009 0.023-0.019 0.035-0.029-0.010 0.052-0.037 0.105-0.056 0.16-0.080 0.502-0.154 0.996 0.022 1.284 0.021 0.048 0.045 0.096 0.067 0.144 0.342-0.114 0.535-0.414 0.723-0.686 0.257-0.006 0.341 0.189 0.481 0.397 0.069-0.036 0.139-0.072 0.208-0.107 0.023-0.048 0.047-0.096 0.070-0.145zM31.479 14.178c-0.021-0.061-0.045-0.12-0.068-0.181-0.142-0.111-0.224-0.171-0.48-0.18 0.070 0.34 0.056 0.406 0 0.758 0.172-0.189 0.289-0.284 0.548-0.397zM29.38 15.441c0.011 0.072 0.022 0.145 0.034 0.217 0.206 0.022 0.297-0.092 0.481-0.181-0.012 0.204-0.022 0.409-0.034 0.612 0.034 0.024 0.067 0.048 0.104 0.072 0.208-0.25 0.613-1.055 0.516-1.444-0.147 0.113-0.151-0.049-0.344-0.181 0.081-0.107 0.159-0.217 0.239-0.324-0.010-0.060-0.021-0.121-0.033-0.181-0.119-0.102-0.139-0.147-0.345-0.181-0.147 0.472-0.54 0.523-0.344 0.974l0.24-0.035c-0.094 0.288-0.303 0.489-0.514 0.652zM30.069 15.225c0.068-0.071 0.138-0.145 0.206-0.217 0.049 0.097-0.021 0.139-0.104 0.289-0.033 0.012-0.068 0.023-0.104 0.035v-0.107h0.002zM23.321 15.332c0.011 0.229 0.021 0.458 0.033 0.686-0.114 0.049-0.229 0.098-0.346 0.146 0.023 0.061 0.048 0.12 0.070 0.181 0.417 0.105 1.067-0.062 1.376-0.217 0.014-0.012 0.023-0.024 0.035-0.036-0.090-0.146-0.213-0.189-0.379-0.252 0.12-0.448 0.507-0.439 0.653-0.866-0.161-0.151-0.319-0.196-0.653-0.181 0.021-0.383 0.18-0.515 0.172-0.83-0.022-0.023-0.045-0.048-0.068-0.072h-0.311v0.037c0.143 0.446 0.021 0.926 0 1.443-0.045 0.036-0.093 0.072-0.138 0.108-0.046-0.024-0.093-0.048-0.138-0.072 0.045-0.145 0.092-0.288 0.138-0.433-0.059 0.013-0.115 0.023-0.173 0.036 0.013-0.181 0.023-0.36 0.035-0.541-0.163-0.123-0.231-0.206-0.518-0.217 0.102 0.257 0.179 0.45 0.173 0.83-0.26 0.123-0.526 0.092-0.826 0.037v0.036c0.045 0.155 0.092 0.312 0.138 0.469 0.305 0.048 0.479-0.174 0.727-0.292zM24.18 14.864h0.208l-0.035 0.108c-0.045 0.036-0.092 0.071-0.138 0.107-0.035 0.012-0.068 0.023-0.104 0.037h-0.034l0.103-0.252zM9.033 14.827c-0.035-0.131-0.069-0.264-0.104-0.396h-0.517v-0.036c0.252-0.072 0.505-0.145 0.757-0.217 0.011-0.023 0.023-0.048 0.034-0.071-0.178-0.148-0.711-0.129-0.999-0.146-0.395 0.265-1.131 0.31-1.617 0.471v0.036c0.518 0.204 0.989-0.041 1.481-0.181 0.011 0.048 0.022 0.096 0.034 0.145 0.023 0.012 0.045 0.023 0.068 0.036v0.035c-0.125 0.073-0.252 0.145-0.378 0.217h0.344c0.011 0.037 0.023 0.072 0.034 0.107-0.068 0.024-0.138 0.048-0.207 0.073-0.199-0.081-0.272-0.191-0.345-0.398h-0.17v0.037c0.077 0.324 0.197 0.627 0.138 0.974 0.023 0.048 0.046 0.097 0.069 0.146 0.125-0.024 0.252-0.048 0.378-0.072 0.012 0.024 0.023 0.048 0.035 0.072-0.103 0.035-0.207 0.071-0.31 0.107-0.030 0.202 0.032 0.22 0.138 0.36-0.104 0.084-0.207 0.169-0.311 0.252 0.023 0.12 0.046 0.242 0.069 0.36 0.328-0.135 0.554-0.263 1.033-0.252 0.011-0.036 0.022-0.072 0.034-0.108-0.081-0.071-0.161-0.145-0.241-0.216l0.171-0.253c-0.073-0.184-0.146-0.21-0.275-0.324v-0.072c0.148-0.061 0.298-0.12 0.448-0.181-0.056-0.247 0.049-0.384 0.209-0.505zM8.137 15.225c-0.057 0.024-0.114 0.048-0.171 0.072-0.011-0.013-0.023-0.024-0.035-0.036 0.034-0.061 0.069-0.121 0.103-0.181 0.035 0.012 0.070 0.023 0.104 0.037l-0.001 0.108zM8.481 15.080c-0.034-0.012-0.069-0.024-0.104-0.036 0.122-0.149 0.067-0.147 0.034-0.397 0.045-0.035 0.092-0.071 0.138-0.107h0.171c0.011 0.012 0.023 0.024 0.034 0.036-0.089 0.168-0.18 0.335-0.273 0.504zM25.662 15.405c0.536-0.15 0.453-1.018 0.859-1.154-0.047-0.183-0.041-0.22-0.206-0.289-0.212 0.462-0.411 0.8-0.792 1.082v0.253c0.086 0.095 0.055 0.083 0.139 0.108zM26.694 15.332c0.012-0.215 0.022-0.432 0.035-0.648 0.053-0.147 0.23-0.173 0.31-0.36-0.080-0.12-0.16-0.24-0.241-0.36h-0.207c0.047 0.193 0.092 0.385 0.139 0.577-0.243 0.014-0.294 0.061-0.447 0.145-0.012 0.013-0.022 0.024-0.034 0.036 0.080 0.061 0.161 0.121 0.24 0.181-0.077 0.159-0.12 0.183-0.24 0.288 0.058 0.062 0.114 0.121 0.173 0.181-0.158 0.226-0.334 0.388-0.346 0.758 0.046 0.048 0.093 0.097 0.138 0.145 0.326-0.201 0.725-0.686 0.874-1.138 0.007-0.043 0.014-0.087 0.020-0.131-0.14 0.106-0.277 0.217-0.414 0.326zM31.824 14.936h0.035c-0.013-0.084-0.023-0.168-0.035-0.253-0.092-0.048-0.184-0.097-0.274-0.145-0.32 0.157-0.643 0.313-0.965 0.469-0.012 0.013-0.022 0.024-0.034 0.036l0.034 0.109c0.296-0.008 0.753-0.308 1.239-0.216zM30.585 16.126c0.116 0.18 0.414 0.281 0.688 0.289 0.012-0.013 0.023-0.023 0.034-0.037v-1.191c-0.080-0.035-0.159-0.071-0.24-0.107 0.061 0.283 0.093 0.642 0 0.902-0.127 0.106-0.243 0.145-0.482 0.144zM11.855 16.523c0.034 0.013 0.069 0.022 0.104 0.035 0.023-0.022 0.045-0.048 0.068-0.071-0.029-0.402-0.162-0.622-0.448-0.758 0.092 0.266 0.184 0.529 0.276 0.794zM7.414 18.219c-0.022-0.024-0.045-0.049-0.069-0.072v-0.722c0.085-0.051 0.117-0.063 0.275-0.071 0.045 0.071 0.091 0.144 0.138 0.216v-0.29h-0.344l-0.345 0.289c-0.016 0.346 0.044 0.43 0.207 0.649 0.172 0.012 0.344 0.022 0.517 0.035-0.012-0.097-0.023-0.191-0.034-0.288-0.093 0.17-0.109 0.223-0.345 0.254zM9.204 17.28c-0.201 0.122-0.444 0.302-0.311 0.648 0.058 0.098 0.115 0.194 0.172 0.29l0.344 0.035c-0.068-0.013-0.138-0.023-0.207-0.035-0.084-0.218-0.077-0.6-0.034-0.865 0.057-0.013 0.115-0.024 0.172-0.036 0.011 0.012 0.023 0.023 0.034 0.036 0.083 0.23 0.084 0.599 0 0.828 0.012 0.013 0.023 0.023 0.035 0.037 0.124-0.058 0.104-0.033 0.171-0.146 0.115-0.092 0.177-0.254 0.104-0.433-0.064-0.251-0.183-0.346-0.48-0.359zM11.202 18.146c-0.011 0.023-0.023 0.048-0.035 0.072h0.172c0.057-0.121 0.115-0.241 0.171-0.36h-0.413c0.079 0.106 0.089 0.087 0.105 0.288zM10.995 17.462v-0.108c0.045-0.013 0.091-0.024 0.137-0.036 0.093 0.096 0.184 0.191 0.275 0.288 0.013-0.097 0.024-0.192 0.035-0.288-0.137-0.012-0.275-0.024-0.413-0.037-0.104 0.073-0.207 0.145-0.31 0.217-0.012 0.156-0.023 0.314-0.035 0.469 0.068 0.085 0.138 0.169 0.207 0.253h0.241c-0.206-0.079-0.25-0.509-0.137-0.758zM12.234 17.354c-0.114-0.024-0.229-0.048-0.344-0.073-0.191 0.145-0.258 0.209-0.345 0.47 0.088 0.35 0.254 0.459 0.414 0.722 0.137 0.012 0.275 0.023 0.414 0.036v-0.036c-0.081-0.023-0.161-0.049-0.241-0.071 0.096-0.342 0.275-0.325 0.275-0.83-0.058-0.075-0.115-0.147-0.173-0.218zM12.062 18.219h-0.070c-0.185-0.129-0.159-0.502-0.137-0.831 0.034-0.022 0.069-0.047 0.104-0.070 0.058 0.023 0.114 0.048 0.172 0.070-0.023 0.278-0.046 0.554-0.069 0.831zM14.127 17.462c0.212-0.193 0.304-0.099 0.448 0.145 0.011-0.098 0.023-0.191 0.034-0.288-0.138-0.013-0.275-0.025-0.414-0.037-0.104 0.073-0.207 0.146-0.311 0.218-0.011 0.155-0.022 0.313-0.034 0.469 0.070 0.085 0.138 0.169 0.207 0.253h0.241c-0.233-0.097-0.194-0.424-0.171-0.76zM14.368 18.146c-0.011 0.023-0.022 0.048-0.034 0.072h0.172c0.057-0.121 0.114-0.241 0.172-0.36h-0.413c0.078 0.106 0.087 0.087 0.103 0.288zM18.844 18.182c-0.004-0.292-0.031-0.685 0.068-0.864h-0.412c0.094 0.182 0.081 0.572 0.069 0.864h-0.105c-0.091-0.3-0.183-0.6-0.273-0.901h-0.104c-0.104 0.281-0.189 0.74-0.413 0.901-0.025-0.228-0.044-0.308-0.207-0.396 0.107-0.097 0.145-0.098 0.207-0.253-0.14-0.301-0.677-0.243-1.103-0.216 0.118 0.164 0.12 0.479 0.104 0.793-0.011 0.014-0.021 0.023-0.033 0.036-0.081 0.012-0.162 0.024-0.242 0.036-0.064-0.224-0.059-0.694 0.035-0.865h-0.448c0.131 0.168 0.089 0.569 0.138 0.829 0.129 0.077 0.214 0.11 0.447 0.106 0.046-0.035 0.093-0.070 0.139-0.106 0.011-0.252 0.022-0.505 0.034-0.758 0.011-0.012 0.023-0.023 0.033-0.035h0.173c0.009 0.319 0.037 0.702-0.104 0.864h0.446c-0.096-0.113-0.111-0.188-0.102-0.433h0.138l0.103 0.397c0.124 0.057 0.324 0.104 0.481 0.035-0.033-0.012-0.068-0.023-0.103-0.035 0.063-0.188 0.044-0.195 0.274-0.218h0.034c0.029 0.175 0.035 0.143 0 0.253 0.366 0.013 0.733 0.023 1.103 0.035-0.013-0.096-0.022-0.19-0.035-0.288-0.091 0.164-0.105 0.198-0.342 0.219zM17.363 17.713c-0.045 0.013-0.091 0.023-0.138 0.035-0.012-0.131-0.022-0.264-0.033-0.396h0.171c0.012 0.012 0.022 0.023 0.035 0.035-0.011 0.11-0.023 0.218-0.035 0.326zM17.914 17.929v-0.034c0.023-0.084 0.047-0.169 0.068-0.254l0.104 0.146 0.035 0.145h-0.208v-0.003zM20.015 18.182c-0.012-0.275-0.021-0.553-0.033-0.828 0.057-0.013 0.113-0.024 0.172-0.036 0.080 0.084 0.16 0.168 0.24 0.252 0-0.329-0.050-0.284-0.344-0.289-0.068 0.037-0.14 0.073-0.207 0.107-0.097 0.148-0.156 0.221-0.172 0.471 0.069 0.107 0.138 0.217 0.206 0.323 0.185 0.023 0.367 0.049 0.552 0.072-0.012-0.097-0.024-0.191-0.035-0.288-0.119 0.167-0.146 0.259-0.379 0.216zM20.84 17.28c-0.176 0.133-0.229 0.193-0.343 0.397 0.015 0.302 0.086 0.373 0.206 0.541 0.127 0.013 0.253 0.023 0.378 0.035 0.081-0.070 0.161-0.144 0.241-0.215 0.012-0.145 0.022-0.289 0.034-0.434-0.058-0.085-0.114-0.168-0.172-0.252-0.113-0.023-0.228-0.046-0.344-0.072zM21.014 18.219c-0.069-0.014-0.139-0.024-0.207-0.037v-0.685c0.033-0.061 0.068-0.121 0.104-0.181 0.033 0.013 0.068 0.022 0.104 0.036 0.021 0.252 0.046 0.505 0.068 0.757-0.023 0.037-0.047 0.073-0.069 0.11zM26.040 17.569c0.121-0.298-0.063-0.299-0.344-0.289-0.365 0.246-0.422 0.57-0.138 0.938 0.161 0.013 0.319 0.023 0.48 0.035 0.012-0.096 0.021-0.19 0.034-0.288-0.125 0.154-0.115 0.223-0.379 0.253-0.012-0.012-0.022-0.023-0.033-0.035v-0.687c0.116-0.285 0.291-0.14 0.38 0.073zM27.692 18.182c-0.016-0.277-0.055-0.716 0.104-0.828v-0.036h-0.445c0.092 0.182 0.078 0.572 0.067 0.864h-0.067c-0.116-0.3-0.23-0.6-0.347-0.901-0.161 0.139-0.271 0.505-0.311 0.759l-0.104 0.145h-0.103c-0.019-0.278-0.055-0.716 0.103-0.829v-0.036h-0.447c0.15 0.177 0.154 0.727 0 0.9h0.654c-0.035-0.023-0.068-0.047-0.104-0.071 0.106-0.318 0.339-0.165 0.31 0.106h1.067v-0.288c-0.122 0.145-0.11 0.197-0.377 0.215zM26.763 17.929c0.035-0.096 0.068-0.191 0.105-0.288l0.103 0.288h-0.208zM31.583 18.254c0.139-0.012 0.276-0.022 0.414-0.035-0.149-0.216-0.299-0.433-0.447-0.648 0.114-0.071 0.229-0.146 0.345-0.216v-0.036h-0.345c0.104 0.155 0.023 0.173-0.104 0.359-0.012 0.013-0.023 0.023-0.035 0.037-0.060-0.145-0.022-0.294 0.035-0.397h-0.724c0.122 0.105 0.2 0.282 0.104 0.505-0.104-0.169-0.206-0.337-0.31-0.505h-0.379c0.128 0.16 0.12 0.516 0.103 0.829-0.011 0.012-0.021 0.023-0.033 0.035h-0.069c-0.115-0.3-0.229-0.6-0.345-0.901-0.24 0.223-0.251 0.703-0.482 0.938h0.276c-0.035-0.023-0.068-0.047-0.104-0.071 0.068-0.172 0.052-0.168 0.275-0.182 0.012 0.098 0.021 0.192 0.033 0.288 0.208-0.012 0.414-0.022 0.619-0.035-0.136-0.127-0.209-0.498-0.103-0.757 0.172 0.265 0.344 0.528 0.517 0.792 0.033-0.012 0.068-0.022 0.104-0.035-0.012-0.265-0.021-0.528-0.035-0.794 0.023-0.022 0.046-0.047 0.068-0.070h0.139c0.005 0.291 0.032 0.685-0.067 0.864h0.446c-0.101-0.094-0.141-0.227-0.067-0.396 0.101 0.178 0.159 0.239 0.171 0.431zM29.552 17.929c0.035-0.096 0.068-0.191 0.104-0.288l0.104 0.288h-0.208zM8.378 17.317c0.022 0.145 0.045 0.288 0.068 0.433h-0.241l0.069-0.433h-0.412c0.104 0.186 0.104 0.715 0 0.901h0.414c-0.023-0.145-0.046-0.29-0.069-0.434h0.241c-0.023 0.144-0.046 0.289-0.068 0.434h0.412c-0.104-0.188-0.104-0.716 0-0.901h-0.414zM10.443 17.822c-0.103-0.169-0.207-0.337-0.31-0.505h-0.343c0.132 0.233 0.104 0.755-0.069 0.901h0.311c-0.132-0.13-0.212-0.497-0.105-0.758 0.16 0.253 0.321 0.506 0.482 0.759 0.283-0.002 0.026-0.683 0.241-0.865v-0.036h-0.275c0.089 0.115 0.147 0.309 0.068 0.504zM13.611 17.822c-0.104-0.169-0.207-0.337-0.311-0.505h-0.344c0.093 0.182 0.080 0.572 0.069 0.864h-0.207c-0.017-0.277-0.055-0.716 0.104-0.828v-0.036h-0.448c0.104 0.186 0.104 0.715 0 0.901h0.724c-0.147-0.147-0.187-0.481-0.104-0.759 0.161 0.253 0.321 0.506 0.482 0.759 0.283-0.002 0.026-0.683 0.241-0.865v-0.036h-0.276c0.091 0.116 0.15 0.31 0.070 0.505zM15.711 17.786c0.122-0.104 0.173-0.114 0.241-0.289-0.035-0.048-0.070-0.096-0.104-0.144-0.252-0.013-0.505-0.024-0.757-0.036 0.151 0.176 0.155 0.726 0 0.901h0.448c-0.083-0.139-0.123-0.335 0.034-0.434 0.046 0.144 0.092 0.289 0.138 0.434h0.31c-0.121-0.154-0.132-0.326-0.31-0.432zM15.643 17.678c-0.057 0.022-0.115 0.048-0.171 0.070v-0.395h0.137c0.012 0.012 0.023 0.022 0.035 0.034l-0.001 0.291zM23.252 17.317c-0.068 0.18-0.139 0.36-0.207 0.541-0.058-0.181-0.114-0.361-0.171-0.541h-0.346c0.095 0.182 0.081 0.572 0.069 0.864h-0.173c-0.004-0.292-0.031-0.685 0.067-0.864h-0.343c-0.058 0.18-0.116 0.36-0.173 0.541-0.058-0.169-0.114-0.338-0.174-0.505-0.137-0.013-0.273-0.024-0.411-0.036 0.15 0.176 0.152 0.726 0 0.901h0.274c-0.128-0.127-0.208-0.436-0.104-0.687l0.241 0.722h0.069c0.079-0.253 0.159-0.506 0.24-0.757 0.076 0.185 0.043 0.585-0.034 0.722h0.724c-0.161-0.145-0.159-0.39-0.138-0.722h0.033c0.068 0.251 0.14 0.504 0.207 0.757h0.067l0.241-0.722c0.114 0.266 0.077 0.501-0.033 0.687h0.412c-0.104-0.188-0.104-0.716 0-0.901h-0.337zM23.974 18.182v-0.253c0.023-0.047 0.046-0.096 0.068-0.144 0.058 0.048 0.115 0.097 0.173 0.144v-0.359c-0.068 0.062-0.138 0.12-0.205 0.181v-0.396c0.232 0.032 0.229 0.073 0.343 0.216v-0.252h-0.722c0.151 0.176 0.153 0.726 0 0.901 0.251 0.012 0.504 0.022 0.757 0.035-0.012-0.107-0.022-0.215-0.035-0.325-0.105 0.191-0.092 0.24-0.379 0.252zM25.008 17.786c0.125-0.098 0.169-0.086 0.241-0.253l-0.035-0.108c-0.185-0.105-0.473-0.122-0.791-0.106 0.104 0.187 0.104 0.715 0 0.9h0.447c-0.096-0.113-0.111-0.188-0.104-0.433h0.137c0.047 0.145 0.093 0.289 0.139 0.433h0.275c-0.114-0.17-0.099-0.343-0.309-0.433zM24.903 17.713c-0.033 0.013-0.068 0.023-0.104 0.035-0.011-0.131-0.021-0.264-0.033-0.396h0.173c0.011 0.084 0.021 0.167 0.033 0.252-0.022 0.037-0.045 0.074-0.069 0.109zM29.139 17.75c0.137-0.103 0.152-0.082 0.172-0.325-0.011-0.012-0.021-0.022-0.033-0.035-0.077-0.008-0.151-0.016-0.228-0.021 0.007 0.008 0.014 0.016 0.021 0.021v0.288c-0.059 0.023-0.116 0.049-0.173 0.072h-0.035v-0.396h0.041c-0.129-0.013-0.257-0.024-0.385-0.036 0.104 0.186 0.104 0.715 0 0.901 0.24 0.107 0.626 0.021 0.758-0.108 0.022-0.013 0.045-0.022 0.068-0.036-0.031-0.246-0.062-0.216-0.206-0.325zM29.071 18.146c-0.013 0.012-0.022 0.023-0.035 0.035h-0.173v-0.396h0.173c0.013 0.013 0.022 0.024 0.035 0.036v0.325zM29.036 17.354h-0.134c0.049 0.005 0.099 0.009 0.147 0.014-0.004-0.006-0.009-0.010-0.013-0.014z"></path>
</svg>
