<?xml version="1.0" encoding="utf-8"?>
<!-- Generated by IcoMoon.io -->
<!DOCTYPE svg PUBLIC "-//W3C//DTD SVG 1.1//EN" "http://www.w3.org/Graphics/SVG/1.1/DTD/svg11.dtd">
<svg version="1.1" xmlns="http://www.w3.org/2000/svg" xmlns:xlink="http://www.w3.org/1999/xlink" width="32" height="32" viewBox="0 0 32 32">
<path fill="#6a6a6a" d="M23.476 15.031c0.615-0.567 1.008-1.375 1.008-2.278v-9.578c0-1.713-1.386-3.103-3.096-3.103h-10.938c-1.708 0-3.093 1.39-3.093 3.103v9.577c0 0.889 0.378 1.688 0.977 2.253-1.326 0.562-2.256 1.878-2.256 3.412v9.951c0 2.044 1.653 3.703 3.691 3.703h12.226c2.039 0 3.689-1.657 3.689-3.703v-9.951c0-1.515-0.91-2.813-2.208-3.386zM11 3.716h9.825v11.042h-9.825v-11.042zM22.147 28.369h-12.456v-9.951h12.457v9.951z"></path>
</svg>
