<?xml version="1.0" encoding="utf-8"?>
<!-- Generated by IcoMoon.io -->
<!DOCTYPE svg PUBLIC "-//W3C//DTD SVG 1.1//EN" "http://www.w3.org/Graphics/SVG/1.1/DTD/svg11.dtd">
<svg version="1.1" xmlns="http://www.w3.org/2000/svg" xmlns:xlink="http://www.w3.org/1999/xlink" width="32" height="32" viewBox="0 0 32 32">
<path fill="#6a6a6a" d="M25.748 7.314v-4.862c0-1.353-1.092-2.452-2.443-2.452h-14.72c-1.349 0-2.444 1.098-2.444 2.452v9.982c0 1.354 1.094 2.453 2.444 2.453h13.456v15.886c0 0.677 0.549 1.227 1.223 1.227h1.373c0.676 0 1.223-0.55 1.223-1.227v-22.96c-0.001-0.178-0.044-0.345-0.112-0.499zM9.861 11.185v-7.408h12.194v3.971c-0.002 0.022-0.014 0.042-0.014 0.064v3.371l-12.18 0.002z"></path>
</svg>
