<?xml version="1.0" encoding="utf-8"?>
<!-- Generated by IcoMoon.io -->
<!DOCTYPE svg PUBLIC "-//W3C//DTD SVG 1.1//EN" "http://www.w3.org/Graphics/SVG/1.1/DTD/svg11.dtd">
<svg version="1.1" xmlns="http://www.w3.org/2000/svg" xmlns:xlink="http://www.w3.org/1999/xlink" width="32" height="32" viewBox="0 0 32 32">
<path fill="#6a6a6a" d="M23.259 18.496c0.625 0 1.122-0.48 1.187-1.090h0.052c0.671 0 1.212-0.543 1.212-1.215v-13.582c0-0.672-0.541-1.216-1.212-1.216h-0.024v-0.177c-0.001-0.672-0.544-1.216-1.213-1.216h-15.757c-0.67 0-1.212 0.544-1.212 1.216v1.47c0 0.671 0.542 1.216 1.212 1.216h14.418v10.692h-13.359c-0.669 0-1.212 0.545-1.212 1.217v0.212c-0.582 0.090-1.036 0.571-1.036 1.182v11.86c-0.004 0.044-0.024 0.079-0.024 0.123v1.47c0 0.044 0.021 0.080 0.024 0.123v0.004c0 0.67 0.543 1.215 1.212 1.215h1.364c0.188 0 0.359-0.051 0.518-0.128h15.062c0.669 0 1.212-0.543 1.212-1.215v-1.47c0-0.671-0.543-1.216-1.212-1.216h-14.367v-9.476h13.155z"></path>
</svg>
