<?xml version="1.0" encoding="utf-8"?>
<!-- Generated by IcoMoon.io -->
<!DOCTYPE svg PUBLIC "-//W3C//DTD SVG 1.1//EN" "http://www.w3.org/Graphics/SVG/1.1/DTD/svg11.dtd">
<svg version="1.1" xmlns="http://www.w3.org/2000/svg" xmlns:xlink="http://www.w3.org/1999/xlink" width="32" height="32" viewBox="0 0 32 32">
<path fill="#6a6a6a" d="M24.533 16.256c0.672 0 1.215-0.547 1.215-1.221v-12.415c0-0.674-0.543-1.22-1.215-1.22h-0.024v-0.179c0-0.675-0.546-1.221-1.218-1.221h-15.821c-0.673 0-1.218 0.546-1.218 1.221v1.476c0 0.673 0.545 1.22 1.218 1.22h14.477v10.736h-10.979c-0.671 0-1.216 0.547-1.216 1.221v1.475c0 0.674 0.545 1.221 1.216 1.221h10.979v9.515h-14.477c-0.673 0-1.218 0.546-1.218 1.221v1.477c0 0.671 0.545 1.217 1.218 1.217h15.82c0.672 0 1.218-0.546 1.218-1.219v-0.126h0.023c0.672 0 1.216-0.548 1.216-1.221v-11.092c0-0.676-0.544-1.222-1.216-1.222h-0.023v-0.865l0.025 0.001z"></path>
</svg>
