<?xml version="1.0" encoding="utf-8"?>
<!-- Generated by IcoMoon.io -->
<!DOCTYPE svg PUBLIC "-//W3C//DTD SVG 1.1//EN" "http://www.w3.org/Graphics/SVG/1.1/DTD/svg11.dtd">
<svg version="1.1" xmlns="http://www.w3.org/2000/svg" xmlns:xlink="http://www.w3.org/1999/xlink" width="32" height="32" viewBox="0 0 32 32">
<path fill="#6a6a6a" d="M25.414 0.526c-0.22-0.31-0.563-0.526-0.973-0.526h-17.008c-0.671 0-1.215 0.545-1.215 1.219v1.473c0 0.673 0.544 1.219 1.215 1.219h14.553v7.164c-0.073 0.047-0.152 0.082-0.219 0.146l-6.961 6.985c-0.079 0.080-0.126 0.178-0.179 0.272-0.636 0.038-1.145 0.555-1.145 1.205v11.099c0 0.673 0.544 1.219 1.215 1.219h1.366c0.67 0 1.215-0.546 1.215-1.219v-9.742c0.070-0.047 0.148-0.077 0.21-0.14l6.964-6.986c0.181-0.183 0.271-0.411 0.313-0.646 0.573-0.098 1.017-0.575 1.017-1.179v-10.693c0-0.341-0.141-0.649-0.368-0.87z"></path>
</svg>
