<?xml version="1.0" encoding="utf-8"?>
<!-- Generated by IcoMoon.io -->
<!DOCTYPE svg PUBLIC "-//W3C//DTD SVG 1.1//EN" "http://www.w3.org/Graphics/SVG/1.1/DTD/svg11.dtd">
<svg version="1.1" xmlns="http://www.w3.org/2000/svg" xmlns:xlink="http://www.w3.org/1999/xlink" width="32" height="32" viewBox="0 0 32 32">
<path fill="#6a6a6a" d="M23.416 17.113h-13.457v-15.886c0-0.678-0.547-1.227-1.222-1.227h-1.375c-0.674 0-1.221 0.549-1.221 1.227v22.96c0 0.179 0.042 0.347 0.11 0.499v4.86c0 1.356 1.095 2.454 2.444 2.454h14.721c1.348 0 2.443-1.098 2.443-2.453v-9.982c0-1.354-1.093-2.452-2.443-2.452zM22.138 28.224h-12.193v-3.971c0.001-0.023 0.014-0.042 0.014-0.065v-3.372h12.181v7.408h-0.002z"></path>
</svg>
