<?xml version="1.0" encoding="utf-8"?>
<!-- Generator: Adobe Illustrator 16.0.0, SVG Export Plug-In . SVG Version: 6.00 Build 0)  -->
<!DOCTYPE svg PUBLIC "-//W3C//DTD SVG 1.1//EN" "http://www.w3.org/Graphics/SVG/1.1/DTD/svg11.dtd">
<svg version="1.1" id="图层_1" xmlns="http://www.w3.org/2000/svg" xmlns:xlink="http://www.w3.org/1999/xlink" x="0px" y="0px"
	 width="32px" height="32px" viewBox="0 0 32 32" enable-background="new 0 0 32 32" xml:space="preserve">
<g id="圆角矩形_1_1_" display="none" enable-background="new    ">
	<g id="圆角矩形_1" display="inline">
		<g>
			<path fill="#A3A6A9" d="M27.039,0.008H6.206c-2.739,0-4.96,2.237-4.96,4.997v20.99c0,2.76,2.221,4.997,4.96,4.997h20.833
				c2.74,0,4.961-2.237,4.961-4.997V5.005C32,2.245,29.779,0.008,27.039,0.008z"/>
		</g>
	</g>
</g>
<g id="形状_1_副本_10_1_" display="none" enable-background="new    ">
	<g id="形状_1_副本_10" display="inline">
		<g>
			<path fill="#FFFFFF" d="M28.229,18.912c0-3.543-3.213-6.415-7.178-6.415s-7.178,2.872-7.178,6.415
				c0,3.542,3.213,6.415,7.178,6.415c0.956,0,1.867-0.171,2.701-0.474l3.066,1.98l-1.057-3.092
				C27.271,22.566,28.229,20.841,28.229,18.912z M18.371,17.756c-0.57,0-1.033-0.466-1.033-1.041c0-0.575,0.463-1.041,1.033-1.041
				s1.033,0.466,1.033,1.041C19.404,17.29,18.941,17.756,18.371,17.756z M23.736,17.756c-0.572,0-1.035-0.466-1.035-1.041
				c0-0.575,0.463-1.041,1.035-1.041c0.57,0,1.033,0.466,1.033,1.041C24.77,17.29,24.307,17.756,23.736,17.756z M21.051,10.697
				c0.219,0,0.432,0.016,0.646,0.029c-0.831-3.429-4.241-6-8.328-6c-4.709,0-8.526,3.412-8.526,7.619c0,2.252,1.1,4.27,2.837,5.665
				l-0.187-0.063l-0.93,4.021l3.812-2.496c0.542,0.182,1.11,0.313,1.696,0.396c-0.052-0.351-0.088-0.706-0.088-1.069
				C11.984,14.325,16.043,10.697,21.051,10.697z M15.737,9.483c0.689,0,1.248,0.563,1.248,1.257c0,0.693-0.559,1.257-1.248,1.257
				s-1.247-0.563-1.247-1.257C14.49,10.046,15.048,9.483,15.737,9.483z M10.484,11.997c-0.689,0-1.248-0.563-1.248-1.257
				c0-0.694,0.559-1.257,1.248-1.257c0.688,0,1.247,0.563,1.247,1.257C11.731,11.434,11.173,11.997,10.484,11.997z"/>
		</g>
	</g>
</g>
<g id="形状_2_1_" enable-background="new    ">
	<g id="形状_2">
		<g>
			<path fill="#6A6A6A" d="M31.84,22.001V5.146c0-2.843-2.286-5.147-5.107-5.147H5.215c-2.821,0-5.109,2.305-5.109,5.147v21.708
				c0,2.841,2.288,5.145,5.109,5.145h21.518c2.748,0,4.973-2.191,5.087-4.932l-12.241-5.619c0,0-3.518,5.886-10.115,5.503
				c-6.109-0.355-7.076-4.068-7.046-5.795c0.03-1.711,0.833-4.43,4.757-5.323c6.145-0.915,10.94,1.759,11.167,1.647
				c0.896-0.879,1.847-3.833,1.872-4.247H7.769v-1.298h6.205V9.742H6.492V8.261h7.48V4.593h3.65v3.668h7.986v1.482h-7.986v2.194
				h2.793v0.015c0.84-0.009,3.757-0.036,3.717,0.002c-0.213,1.458-1.339,4.989-2.496,6.653L31.84,22.001z M7.709,17.861
				c-4.015,0.337-3.952,3.433-3.954,3.585c-0.003,0.212,0.092,3.402,5.109,3.37c4.595-0.027,7.664-3.98,7.907-4.687
				C16.771,20.129,11.723,17.523,7.709,17.861z"/>
		</g>
	</g>
</g>
</svg>
