<?xml version="1.0" encoding="utf-8"?>
<!-- Generated by IcoMoon.io -->
<!DOCTYPE svg PUBLIC "-//W3C//DTD SVG 1.1//EN" "http://www.w3.org/Graphics/SVG/1.1/DTD/svg11.dtd">
<svg version="1.1" xmlns="http://www.w3.org/2000/svg" xmlns:xlink="http://www.w3.org/1999/xlink" width="32" height="32" viewBox="0 0 32 32">
<path fill="#6a6a6a" d="M17.468 10.847c-2.82-0.765-5.72 0.929-6.475 3.783s0.918 5.788 3.738 6.552c2.82 0.766 5.719-0.929 6.476-3.782 0.755-2.856-0.918-5.789-3.739-6.553zM18.059 16.545c-0.292 1.094-1.4 1.742-2.482 1.449-1.081-0.292-1.721-1.417-1.432-2.51 0.289-1.094 1.4-1.743 2.481-1.449 1.081 0.293 1.721 1.417 1.433 2.51zM30.583 14.756h-1.571c-0.143-1.486-0.539-2.919-1.148-4.249l1.381-0.807c0.588-0.344 0.79-1.105 0.449-1.699-0.34-0.595-1.091-0.8-1.68-0.456l-1.389 0.811c-0.84-1.187-1.873-2.239-3.075-3.095l0.808-1.417c0.339-0.595 0.139-1.356-0.449-1.7-0.588-0.342-1.341-0.139-1.681 0.456l-0.811 1.423c-0.625-0.283-1.277-0.521-1.958-0.704-0.742-0.2-1.486-0.319-2.226-0.386v-1.688c-0.002-0.686-0.551-1.245-1.231-1.245s-1.229 0.559-1.229 1.245v1.707c-1.446 0.149-2.839 0.551-4.133 1.16l-0.864-1.512c-0.338-0.596-1.091-0.8-1.679-0.456-0.587 0.344-0.79 1.104-0.45 1.7l0.869 1.523c-1.152 0.84-2.178 1.866-3.015 3.061l-1.515-0.885c-0.588-0.344-1.341-0.14-1.681 0.456-0.34 0.595-0.137 1.357 0.45 1.7l1.516 0.885c-0.289 0.646-0.532 1.32-0.72 2.028-0.188 0.715-0.301 1.431-0.37 2.144h-1.763c-0.68 0-1.23 0.557-1.23 1.244s0.551 1.244 1.23 1.244h1.761c0.137 1.455 0.517 2.86 1.101 4.168l-1.522 0.89c-0.587 0.344-0.79 1.104-0.45 1.7 0.34 0.595 1.093 0.799 1.681 0.454l1.512-0.882c0.819 1.178 1.824 2.229 3 3.088l-0.854 1.495c-0.339 0.597-0.138 1.356 0.45 1.699 0.589 0.343 1.341 0.141 1.681-0.455l0.843-1.479c0.671 0.316 1.377 0.583 2.116 0.782 0.68 0.186 1.359 0.295 2.038 0.366v1.684c0 0.689 0.551 1.245 1.229 1.245 0.68 0 1.229-0.558 1.229-1.245v-1.664c1.461-0.13 2.872-0.516 4.186-1.113l0.813 1.424c0.339 0.596 1.093 0.8 1.68 0.455 0.589-0.343 0.789-1.105 0.45-1.7l-0.806-1.412c1.185-0.842 2.238-1.876 3.097-3.085l1.362 0.795c0.59 0.345 1.341 0.14 1.681-0.455 0.34-0.596 0.139-1.355-0.45-1.699l-1.354-0.79c0.302-0.665 0.558-1.361 0.751-2.094 0.19-0.725 0.304-1.449 0.373-2.172h1.568c0.681 0 1.23-0.556 1.23-1.243-0.001-0.687-0.551-1.245-1.231-1.245zM25.733 18.627c-1.426 5.384-6.895 8.581-12.217 7.139-5.323-1.443-8.481-6.978-7.056-12.364 1.426-5.386 6.896-8.582 12.219-7.14 5.323 1.444 8.48 6.98 7.054 12.365z"></path>
</svg>
