<?xml version="1.0" encoding="utf-8"?>
<!-- Generated by IcoMoon.io -->
<!DOCTYPE svg PUBLIC "-//W3C//DTD SVG 1.1//EN" "http://www.w3.org/Graphics/SVG/1.1/DTD/svg11.dtd">
<svg version="1.1" xmlns="http://www.w3.org/2000/svg" xmlns:xlink="http://www.w3.org/1999/xlink" width="32" height="32" viewBox="0 0 32 32">
<path fill="#6a6a6a" d="M21.86 5.2c0-0.016 0.004-0.028 0.004-0.042 0-2.539-2.033-4.599-4.544-4.599-2.495 0-4.516 2.036-4.539 4.556-1.014 0.279-1.983 0.646-2.892 1.1-2.382-2.187-5.453-0.326-5.453-0.326l1.399 3.295c-1.817 1.9-3.042 4.258-3.395 6.857-1.378 0.205-2.44 1.388-2.44 2.829v1.974c0 1.583 1.28 2.869 2.859 2.869h1.177c0.709 1.186 1.623 2.259 2.692 3.195v3.099c0 0.791 0.641 1.434 1.43 1.434h3.938c0.69 0 1.266-0.489 1.4-1.144 1.173 0.264 2.398 0.411 3.665 0.411 1.125 0 2.215-0.119 3.27-0.329 0.163 0.61 0.715 1.062 1.374 1.062h3.938c0.79 0 1.431-0.643 1.431-1.434v-2.75c2.959-2.395 4.826-5.821 4.826-9.644-0.002-5.781-4.252-10.677-10.14-12.413zM17.32 2.46c1.473 0 2.666 1.208 2.666 2.698s-1.193 2.698-2.666 2.698-2.668-1.208-2.668-2.698 1.196-2.698 2.668-2.698zM25.281 26.133v2.755c0 0.354-0.286 0.642-0.638 0.642h-1.735c-0.353 0-0.639-0.287-0.639-0.642v-1.096c-1.563 0.611-3.288 0.958-5.109 0.958-1.982 0-3.855-0.403-5.524-1.122v1.26c0 0.354-0.285 0.642-0.637 0.642h-1.736c-0.352 0-0.638-0.287-0.638-0.642v-3.074c-1.33-1.080-2.398-2.408-3.108-3.903h-2.136c-0.842 0-1.523-0.685-1.523-1.528v-1.053c0-0.846 0.682-1.529 1.523-1.529h1.171c-0.001-0.063-0.011-0.123-0.011-0.188 0-2.86 1.232-5.461 3.24-7.434l-1.361-3.335c0 0 1.832-1.212 3.295 1.793 1.047-0.678 2.215-1.219 3.47-1.589 0.317 0.711 0.812 1.317 1.42 1.78-1.147 0.244-1.936 0.563-1.936 0.563-0.28-0.005-0.512 0.554-0.516 0.838-0.004 0.282 0.438 0.571 0.719 0.575 0 0 1.94-0.874 4.385-0.838 2.484 0.036 4.487 0.977 4.487 0.977 0.28 0.004 0.729-0.277 0.733-0.563 0.004-0.283-0.221-0.849-0.5-0.853 0 0-0.829-0.344-2.036-0.624 0.627-0.45 1.129-1.060 1.464-1.767 4.877 1.54 8.375 5.644 8.375 10.477 0 3.42-1.75 6.477-4.499 8.52zM8.666 13.748c-0.838 0-1.519 0.683-1.519 1.524s0.681 1.525 1.519 1.525c0.839 0 1.519-0.684 1.519-1.525s-0.679-1.524-1.519-1.524z"></path>
</svg>
