<?xml version="1.0" encoding="utf-8"?>
<!-- Generated by IcoMoon.io -->
<!DOCTYPE svg PUBLIC "-//W3C//DTD SVG 1.1//EN" "http://www.w3.org/Graphics/SVG/1.1/DTD/svg11.dtd">
<svg version="1.1" xmlns="http://www.w3.org/2000/svg" xmlns:xlink="http://www.w3.org/1999/xlink" width="32" height="32" viewBox="0 0 32 32">
<path fill="#6a6a6a" d="M30.314 8.535v-1.326c0-1.884-1.511-3.413-3.373-3.413h-3.058l-0.617-1.34c-0.636-1.381-2.257-1.978-3.621-1.334l-5.668 2.675h-10.604c-1.862-0.001-3.373 1.527-3.373 3.412v20.517c0 1.886 1.51 3.412 3.373 3.412h25.256c1.862 0 3.371-1.526 3.371-3.412v-16.251c0-1.261-0.683-2.349-1.686-2.94zM26.542 5.929c0.931 0 1.686 0.764 1.686 1.706v0.427h-2.602l0.216-0.020-0.975-2.113h1.675zM19.906 3.28c0.683-0.322 1.492-0.022 1.812 0.667l1.896 4.113h-13.84l10.132-4.78zM2.511 6.905c0-0.529 0.423-0.958 0.947-0.958h4.332c0.062-0.006 0.123-0.019 0.187-0.019h1.48l-4.521 2.134h-1.563c-0.053 0-0.103 0.013-0.156 0.017-0.403-0.11-0.706-0.467-0.706-0.909v-0.265zM29.492 26.872c0 0.94-0.755 1.706-1.688 1.706h-23.621c-0.931 0-1.686-0.766-1.686-1.706v-16.762l0.059-0.006c0.099 0.314 0.38 0.547 0.723 0.547h8.294c0.051 0 0.097-0.021 0.146-0.030h16.088c0.932 0 1.688 0.764 1.688 1.706v3.132h-6.535c-1.78 0-3.221 1.46-3.221 3.259v1.766c0 1.8 1.44 3.259 3.221 3.259h6.535v3.129h-0.003zM29.518 22.156h-6.13c-1.099 0-1.987-0.9-1.987-2.012v-1.091c0-1.11 0.889-2.011 1.987-2.011h6.13v5.114zM24.427 20.909c0.715 0 1.295-0.586 1.295-1.309 0-0.725-0.58-1.312-1.295-1.312s-1.294 0.587-1.294 1.312c0 0.723 0.578 1.309 1.294 1.309z"></path>
</svg>
