<?xml version="1.0" encoding="utf-8"?>
<!-- Generated by IcoMoon.io -->
<!DOCTYPE svg PUBLIC "-//W3C//DTD SVG 1.1//EN" "http://www.w3.org/Graphics/SVG/1.1/DTD/svg11.dtd">
<svg version="1.1" xmlns="http://www.w3.org/2000/svg" xmlns:xlink="http://www.w3.org/1999/xlink" width="32" height="32" viewBox="0 0 32 32">
<path fill="#6a6a6a" d="M28.654 3.089h-25.307c-1.849 0-3.347 1.516-3.347 3.387v19.048c0 1.871 1.499 3.388 3.347 3.388h25.307c1.847 0 3.346-1.517 3.346-3.388v-19.048c0-1.87-1.497-3.387-3.346-3.387zM29.511 24.677c0 0.936-0.749 1.693-1.673 1.693h-23.686c-0.925 0-1.674-0.759-1.674-1.693v-11.429h27.033v11.429zM29.511 9.656h-27.033v-2.334c0-0.936 0.749-1.693 1.674-1.693h23.686c0.924 0 1.673 0.76 1.673 1.693v2.334zM19.436 20.022h4.205c0.69 0 1.248-0.566 1.248-1.265 0-0.696-0.558-1.262-1.248-1.262h-4.205c-0.69 0-1.248 0.565-1.248 1.262 0 0.699 0.557 1.265 1.248 1.265z"></path>
</svg>
