<?xml version="1.0" encoding="utf-8"?>
<!-- Generated by IcoMoon.io -->
<!DOCTYPE svg PUBLIC "-//W3C//DTD SVG 1.1//EN" "http://www.w3.org/Graphics/SVG/1.1/DTD/svg11.dtd">
<svg version="1.1" xmlns="http://www.w3.org/2000/svg" xmlns:xlink="http://www.w3.org/1999/xlink" width="32" height="32" viewBox="0 0 32 32">
<path fill="#6a6a6a" d="M29.22 14.879v-2.058h-4.067v2.058h0.677v10.63h-0.677v2.058h4.067v-2.058h-0.676v-10.63h0.676zM16 1.339l-16 10.457h32l-16-10.457zM16.001 3.945l9.383 6.133h-18.765l9.382-6.133zM21.762 14.879v-2.058h-4.067v2.058h0.679v10.63h-0.679v2.058h4.067v-2.058h-0.683v-10.63h0.683zM14.305 14.879v-2.058h-4.067v2.058h0.678v10.63h-0.678v2.058h4.067v-2.058h-0.676v-10.63h0.676zM0.087 30.661h31.826v-2.066h-31.826v2.066zM6.848 14.879v-2.058h-4.067v2.058h0.678v10.63h-0.678v2.058h4.067v-2.058h-0.676v-10.63h0.676z"></path>
</svg>
