<?xml version="1.0" encoding="utf-8"?>
<!-- Generated by IcoMoon.io -->
<!DOCTYPE svg PUBLIC "-//W3C//DTD SVG 1.1//EN" "http://www.w3.org/Graphics/SVG/1.1/DTD/svg11.dtd">
<svg version="1.1" xmlns="http://www.w3.org/2000/svg" xmlns:xlink="http://www.w3.org/1999/xlink" width="32" height="32" viewBox="0 0 32 32">
<path fill="#6a6a6a" d="M15.999 15.693c8.645 0 15.651-3.513 15.651-7.846s-7.006-7.847-15.651-7.847c-8.644 0-15.649 3.513-15.649 7.848 0 4.333 7.006 7.845 15.649 7.845zM15.999 1.928c7.303 0 13.223 2.607 13.223 5.825s-5.92 5.826-13.223 5.826-13.224-2.608-13.224-5.826 5.921-5.825 13.224-5.825zM15.999 30.295c-7.322 0-13.293-2.237-13.725-5.058h-1.89c0.379 3.763 7.214 6.763 15.615 6.763s15.235-3 15.615-6.763h-1.89c-0.431 2.823-6.402 5.058-13.725 5.058zM15.999 26.148c-7.321 0-13.292-2.236-13.725-5.058h-1.89c0.38 3.763 7.214 6.764 15.614 6.764 8.401 0 15.235-3.001 15.615-6.764h-1.89c-0.432 2.822-6.402 5.058-13.724 5.058zM15.999 17.855c-7.322 0-13.293-2.238-13.725-5.059h-1.89c0.378 3.762 7.213 6.763 15.614 6.763s15.235-3.001 15.615-6.763h-1.89c-0.43 2.821-6.401 5.059-13.724 5.059zM15.999 22.001c-7.322 0-13.293-2.238-13.725-5.059h-1.89c0.378 3.763 7.213 6.764 15.614 6.764s15.235-3.001 15.615-6.764h-1.89c-0.43 2.823-6.401 5.059-13.724 5.059zM15.191 11.295h1.874l-0.123-2.413h5.144l-0.343-1.003h-4.853l-0.081-1.607h4.355l-0.247-0.805h-3.576l2.515-1.417c0.189-0.107 0.137-0.278-0.112-0.381-0.247-0.1-0.595-0.1-0.788 0l-2.838 1.491-2.833-1.49c-0.192-0.1-0.542-0.1-0.787 0-0.25 0.103-0.303 0.273-0.112 0.381l2.512 1.417h-3.557l-0.247 0.806h4.356l-0.083 1.607h-4.854l-0.343 1.002h5.146l-0.125 2.412z"></path>
</svg>
