<?xml version="1.0" encoding="utf-8"?>
<!-- Generated by IcoMoon.io -->
<!DOCTYPE svg PUBLIC "-//W3C//DTD SVG 1.1//EN" "http://www.w3.org/Graphics/SVG/1.1/DTD/svg11.dtd">
<svg version="1.1" xmlns="http://www.w3.org/2000/svg" xmlns:xlink="http://www.w3.org/1999/xlink" width="32" height="32" viewBox="0 0 32 32">
<path fill="#6a6a6a" d="M9.524 27.686h3.749v-13.706h-3.749v13.706zM21.113 27.686v-17.133h-3.75v17.132l3.75 0.001zM24.86 27.686h4.091v-20.561h-4.091v20.561zM6.116 27.686v-10.278h-3.75v10.278h3.75zM10.317 9.082l2.789 2.805 0.046 0.080 0.021-0.013 0.020 0.021 0.076-0.075 12.537-7.312c0.307 0.194 0.668 0.312 1.059 0.312 1.105 0 2.002-0.902 2.002-2.015s-0.896-2.013-2.002-2.013-2.002 0.901-2.002 2.013c0 0.088 0.015 0.171 0.024 0.255l-11.436 6.672-2.861-2.879-0.053 0.054-0.008-0.013-9.499 5.582 0.852 1.483 8.435-4.957zM0 29.062v2.067h32v-2.067h-32z"></path>
</svg>
