<?xml version="1.0" encoding="utf-8"?>
<!-- Generated by IcoMoon.io -->
<!DOCTYPE svg PUBLIC "-//W3C//DTD SVG 1.1//EN" "http://www.w3.org/Graphics/SVG/1.1/DTD/svg11.dtd">
<svg version="1.1" xmlns="http://www.w3.org/2000/svg" xmlns:xlink="http://www.w3.org/1999/xlink" width="32" height="32" viewBox="0 0 32 32">
<path fill="#6a6a6a" d="M0.337 31.17h24.82v-2.029h-24.82v2.029zM6.056 9.598h2.68c-0.132-0.078-0.264-0.159-0.411-0.239-3.069-1.71-2.953-3.001 0-4.646 2.322-1.294 2.855-2.56 1.388-3.884h-2.482c1.663 1.142 1.456 2.162-0.65 3.336-3.426 1.909-3.594 3.552-0.525 5.433zM17.904 9.598h2.682c-0.132-0.078-0.264-0.158-0.41-0.238-3.066-1.71-2.951-3.001 0-4.646 2.322-1.294 2.855-2.56 1.387-3.884h-2.483c1.663 1.142 1.456 2.162-0.65 3.336-3.424 1.908-3.594 3.551-0.526 5.432zM27.249 12.309h-0.659c-0.264 0-0.52 0.036-0.77 0.077v-1.782h-25.82l0.003 8.112c0 5.89 4.672 9.081 10.619 9.081h4.426c4.552 0 8.437-1.875 10.013-5.393 0.482 0.166 0.99 0.275 1.529 0.275h0.659c2.623 0.001 4.751-2.139 4.751-4.779v-0.813c0-2.641-2.128-4.778-4.751-4.778zM23.667 16.628l-0.002-0.281v1.973c0 4.867-3.981 7.343-8.893 7.343h-3.491c-4.91 0-9.124-2.476-9.124-7.343v-1.973h-0.002v-3.8h21.512v4.081zM30.122 17.807c0 1.592-1.437 2.881-3.203 2.881-0.448 0-0.875-0.084-1.265-0.232 0.102-0.555 0.164-1.128 0.164-1.736l0.002-4.23c0.343-0.114 0.709-0.185 1.096-0.185 1.771 0 3.204 1.29 3.204 2.879v0.623h0.002zM11.98 9.598h2.681c-0.132-0.078-0.265-0.158-0.41-0.238-3.068-1.71-2.953-3.001 0-4.646 2.322-1.294 2.854-2.56 1.387-3.884h-2.483c1.662 1.142 1.456 2.162-0.65 3.336-3.424 1.908-3.594 3.551-0.525 5.432z"></path>
</svg>
