<?xml version="1.0" encoding="utf-8"?>
<!-- Generated by IcoMoon.io -->
<!DOCTYPE svg PUBLIC "-//W3C//DTD SVG 1.1//EN" "http://www.w3.org/Graphics/SVG/1.1/DTD/svg11.dtd">
<svg version="1.1" xmlns="http://www.w3.org/2000/svg" xmlns:xlink="http://www.w3.org/1999/xlink" width="32" height="32" viewBox="0 0 32 32">
<path fill="#6a6a6a" d="M30.814 9.519v-0.699c0-0.976-0.468-1.836-1.186-2.405v-0.311c0.001-1.714-1.413-3.104-3.159-3.104h-20.938c-1.746 0-3.161 1.39-3.161 3.104v0.312c-0.717 0.569-1.185 1.429-1.185 2.404v0.7c-0.717 0.569-1.185 1.429-1.185 2.405v13.621c0 1.715 1.415 3.104 3.16 3.104h25.68c1.745 0 3.16-1.39 3.16-3.104v-13.621c0-0.976-0.468-1.837-1.186-2.406zM28.776 8.82h-10.218v-1.164h8.72c0.732 0 1.32 0.501 1.498 1.164zM27.444 5.717h-8.887v-0.777h7.535c0.583 0 1.080 0.316 1.352 0.777zM5.896 4.94h7.551v0.776h-8.903c0.272-0.46 0.769-0.776 1.352-0.776zM4.71 7.656h8.737v1.164h-10.235c0.179-0.663 0.767-1.164 1.498-1.164zM2.34 24.771v-12.070c0-0.857 0.708-1.552 1.58-1.552h9.527v15.173h-9.527c-0.873 0-1.58-0.695-1.58-1.551zM29.648 24.771c0 0.856-0.707 1.552-1.58 1.552h-9.511v-15.174h9.511c0.873 0 1.58 0.694 1.58 1.552v12.070z"></path>
</svg>
