<?xml version="1.0" encoding="utf-8"?>
<!-- Generated by IcoMoon.io -->
<!DOCTYPE svg PUBLIC "-//W3C//DTD SVG 1.1//EN" "http://www.w3.org/Graphics/SVG/1.1/DTD/svg11.dtd">
<svg version="1.1" xmlns="http://www.w3.org/2000/svg" xmlns:xlink="http://www.w3.org/1999/xlink" width="32" height="32" viewBox="0 0 32 32">
<path fill="#6a6a6a" d="M16.127 24.299c-7.253 0-13.424 3.204-15.843 7.701h3.008c2.277-3.33 7.16-5.639 12.835-5.639 5.674 0 10.559 2.309 12.835 5.639h3.008c-2.419-4.497-8.589-7.701-15.843-7.701z"></path>
<path fill="#6a6a6a" d="M25.349 11.771c-0.014 0-0.025 0.004-0.039 0.004-0.866-4.636-5.052-8.155-10.097-8.155-5.047 0-9.235 3.523-10.099 8.163-0.959 0.059-1.723 0.885-1.723 1.905 0 1.038 0.79 1.878 1.773 1.91 0.977 4.499 5.104 7.879 10.048 7.879 4.946 0 9.073-3.382 10.049-7.882 0.029 0.001 0.058 0.009 0.087 0.009 1.011 0 1.829-0.858 1.829-1.916s-0.818-1.917-1.828-1.917zM23.733 13.547c0 4.549-3.814 8.236-8.52 8.236s-8.52-3.688-8.52-8.236-0.84-8.236 8.52-8.236c9.359 0 8.52 3.687 8.52 8.236z"></path>
<path fill="#6a6a6a" d="M24.865 4.711c0.202-2.197-1.089-4.482-1.089-4.482s-0.698 1.127-2.321 1.369c-1.496-0.607-3.518-0.956-6.259-0.956-10.116 0-10.491 4.721-10.491 9.831v1.982c0 0.892 0.151 1.75 0.418 2.566l0.255-2.617c0-0.13 0.011-0.258 0.017-0.387l1.852-2.206 0.504-1.977c1.755 0.838 5.683 1.966 12.935 0.673 0.811-0.145 1.47-0.368 2.013-0.645l0.497 1.95 1.783 2.124c0.010 0.156 0.027 0.311 0.027 0.469l0.258 2.639c0.271-0.822 0.424-1.688 0.424-2.588v-1.982c0-2.084-0.063-4.102-0.823-5.763zM5.686 10.268l-0.286 1.625c0.038-0.558 0.134-1.101 0.286-1.625z"></path>
</svg>
