<?xml version="1.0" encoding="utf-8"?>
<!-- Generator: Adobe Illustrator 16.0.0, SVG Export Plug-In . SVG Version: 6.00 Build 0)  -->
<!DOCTYPE svg PUBLIC "-//W3C//DTD SVG 1.1//EN" "http://www.w3.org/Graphics/SVG/1.1/DTD/svg11.dtd">
<svg version="1.1" id="图层_1" xmlns="http://www.w3.org/2000/svg" xmlns:xlink="http://www.w3.org/1999/xlink" x="0px" y="0px"
	 width="32px" height="32px" viewBox="0 0 32 32" enable-background="new 0 0 32 32" xml:space="preserve">
<g id="形状_2_1_" enable-background="new    ">
</g>
<g>
	<circle fill="#6A6A6A" cx="10.26" cy="10.568" r="1.298"/>
	<circle fill="#6A6A6A" cx="18.468" cy="16.738" r="1.075"/>
	<circle fill="#6A6A6A" cx="15.726" cy="10.568" r="1.298"/>
	<path fill="#6A6A6A" d="M26.839,0H5.161C2.311,0,0,2.311,0,5.161V26.84C0,29.69,2.311,32,5.161,32h21.678
		C29.689,32,32,29.69,32,26.84V5.161C32,2.312,29.689,0,26.839,0z M10.147,19.587L6.18,22.164l0.968-4.153l0.194,0.064
		c-1.808-1.439-2.952-3.524-2.952-5.85c0-4.345,3.972-7.869,8.872-7.869c4.253,0,7.801,2.655,8.666,6.197
		c-0.224-0.014-0.444-0.03-0.672-0.03c-5.211,0-9.435,3.748-9.436,8.368c0,0.375,0.038,0.742,0.092,1.104
		C11.302,19.909,10.711,19.774,10.147,19.587z M27.257,27.189l-3.19-2.046c-0.868,0.313-1.815,0.489-2.811,0.489
		c-4.126,0-7.469-2.967-7.469-6.625c0-3.659,3.343-6.625,7.469-6.625s7.468,2.966,7.468,6.625c0,1.991-0.996,3.773-2.566,4.988
		L27.257,27.189z"/>
	<circle fill="#6A6A6A" cx="24.05" cy="16.738" r="1.075"/>
</g>
</svg>
