<?xml version="1.0" encoding="utf-8"?>
<!-- Generated by IcoMoon.io -->
<!DOCTYPE svg PUBLIC "-//W3C//DTD SVG 1.1//EN" "http://www.w3.org/Graphics/SVG/1.1/DTD/svg11.dtd">
<svg version="1.1" xmlns="http://www.w3.org/2000/svg" xmlns:xlink="http://www.w3.org/1999/xlink" width="32" height="32" viewBox="0 0 32 32">
<path fill="#6a6a6a" d="M19.364 0.36v9.472h-2.841v5.714h5.486v-10.54c3.884 2.128 6.519 6.252 6.519 10.993 0 6.112-4.378 11.195-10.167 12.3v-5.864h2.635c0.56 0 1.014-0.455 1.014-1.016v-5.277h-5.486v4.035h-1.015v-4.035h-5.474v5.277c0 0.561 0.455 1.016 1.015 1.016h2.626v5.87c-5.808-1.091-10.205-6.181-10.205-12.305 0-4.759 2.654-8.899 6.563-11.020v10.566h5.474v-5.714h-2.816v-9.486c-7.248 1.525-12.692 7.952-12.692 15.654 0 8.836 7.164 16 16 16s16-7.163 16-16c0-7.681-5.416-14.093-12.636-15.64zM17.741 0.088h-3.457v8.335h3.457v-8.335z"></path>
</svg>
