<?xml version="1.0" encoding="utf-8"?>
<!-- Generated by IcoMoon.io -->
<!DOCTYPE svg PUBLIC "-//W3C//DTD SVG 1.1//EN" "http://www.w3.org/Graphics/SVG/1.1/DTD/svg11.dtd">
<svg version="1.1" xmlns="http://www.w3.org/2000/svg" xmlns:xlink="http://www.w3.org/1999/xlink" width="32" height="32" viewBox="0 0 32 32">
<path fill="#6a6a6a" d="M16.007 0c-3.333 0-6.409 1.069-8.928 2.865v11.145c0.646-4.344 4.39-7.682 8.928-7.682 4.989 0 9.036 4.034 9.036 9.008 0 4.973-4.047 9.008-9.036 9.008-4.538 0-8.281-3.339-8.928-7.683v15.335h1.858v-3.056c2.119 1.095 4.52 1.724 7.069 1.724 8.498 0 15.384-6.865 15.384-15.333 0.001-8.466-6.885-15.331-15.383-15.331zM0.609 15.189v16.811h4.901v-27.854c-2.966 2.768-4.839 6.682-4.88 11.042h-0.021zM16.007 11.738c1.705 0 3.123 1.182 3.5 2.764h2.581c-0.41-2.998-2.958-5.315-6.081-5.315-3.405 0-6.163 2.752-6.163 6.144 0 3.395 2.76 6.143 6.163 6.143 3.035 0 5.541-2.188 6.056-5.063h-2.632c-0.462 1.453-1.812 2.514-3.424 2.514-1.991 0-3.605-1.61-3.605-3.596-0.001-1.981 1.614-3.591 3.605-3.591z"></path>
</svg>
