<?xml version="1.0" encoding="utf-8"?>
<!-- Generator: Adobe Illustrator 16.0.0, SVG Export Plug-In . SVG Version: 6.00 Build 0)  -->
<!DOCTYPE svg PUBLIC "-//W3C//DTD SVG 1.1//EN" "http://www.w3.org/Graphics/SVG/1.1/DTD/svg11.dtd">
<svg version="1.1" id="图层_1" xmlns="http://www.w3.org/2000/svg" xmlns:xlink="http://www.w3.org/1999/xlink" x="0px" y="0px"
	 width="32px" height="32px" viewBox="0 0 32 32" enable-background="new 0 0 32 32" xml:space="preserve">
<g id="形状_343_副本_8_拷贝_4">
	<g>
		<path fill="#6A6A6A" d="M16,0C7.23,0,0.11,7.16,0.11,16S7.23,32,16,32c8.779,0,15.891-7.16,15.891-16S24.779,0,16,0z
			 M19.529,23.96H12.84c-0.67,0-1.21-0.55-1.21-1.229c0-0.67,0.54-1.221,1.21-1.221h2.011v-9.3l-1.62,1.64
			c-0.45,0.45-1.19,0.45-1.641,0c-0.449-0.46-0.449-1.19,0-1.65l3.521-3.54c0.149-0.22,0.36-0.4,0.61-0.5
			c0.31-0.14,0.659-0.14,0.958,0c0.5,0.2,0.852,0.68,0.852,1.25v12.1h2c0.67,0,1.22,0.551,1.22,1.221
			C20.75,23.41,20.2,23.96,19.529,23.96z"/>
	</g>
</g>
</svg>
