<?xml version="1.0" encoding="utf-8"?>
<!-- Generator: Adobe Illustrator 16.0.0, SVG Export Plug-In . SVG Version: 6.00 Build 0)  -->
<!DOCTYPE svg PUBLIC "-//W3C//DTD SVG 1.1//EN" "http://www.w3.org/Graphics/SVG/1.1/DTD/svg11.dtd">
<svg version="1.1" id="图层_1" xmlns="http://www.w3.org/2000/svg" xmlns:xlink="http://www.w3.org/1999/xlink" x="0px" y="0px"
	 width="32px" height="32px" viewBox="0 0 32 32" enable-background="new 0 0 32 32" xml:space="preserve">
<g id="形状_343_副本_8_拷贝_2">
	<g>
		<polygon fill="#6A6A6A" points="13.06,9.97 19.12,9.97 16.09,13.02 		"/>
		<path fill="#6A6A6A" d="M16,0C7.23,0,0.11,7.16,0.11,16S7.23,32,16,32c8.78,0,15.89-7.16,15.89-16S24.78,0,16,0z M22.69,24.08
			H9.31c-0.56,0-1.02-0.46-1.02-1.021c0-0.569,0.46-1.029,1.02-1.029h1.04c0.05-0.15,0.12-0.3,0.24-0.42l4.72-4.75
			c0.21-0.21,0.5-0.301,0.78-0.29c0.28-0.011,0.561,0.08,0.78,0.29l4.72,4.75c0.12,0.12,0.19,0.27,0.24,0.42h0.86
			c0.569,0,1.02,0.46,1.02,1.029C23.71,23.62,23.25,24.08,22.69,24.08z M22.69,9.97h-0.86c-0.05,0.15-0.12,0.3-0.24,0.42l-4.72,4.75
			c-0.22,0.21-0.5,0.3-0.78,0.29c-0.28,0.01-0.57-0.08-0.78-0.29l-4.72-4.75c-0.12-0.12-0.19-0.27-0.24-0.42H9.31
			c-0.56,0-1.02-0.46-1.02-1.03c0-0.56,0.46-1.02,1.02-1.02h13.38c0.569,0,1.02,0.46,1.02,1.02C23.71,9.51,23.25,9.97,22.69,9.97z
			 M13.06,22.03h6.06l-3.03-3.05L13.06,22.03z"/>
	</g>
</g>
</svg>
