<?xml version="1.0" encoding="utf-8"?>
<!-- Generator: Adobe Illustrator 16.0.0, SVG Export Plug-In . SVG Version: 6.00 Build 0)  -->
<!DOCTYPE svg PUBLIC "-//W3C//DTD SVG 1.1//EN" "http://www.w3.org/Graphics/SVG/1.1/DTD/svg11.dtd">
<svg version="1.1" id="图层_1" xmlns="http://www.w3.org/2000/svg" xmlns:xlink="http://www.w3.org/1999/xlink" x="0px" y="0px"
	 width="32px" height="32px" viewBox="0 0 32 32" enable-background="new 0 0 32 32" xml:space="preserve">
<g id="形状_343_副本_8_拷贝_2_">
	<g>
		<path fill="#6A6A6A" d="M22.1,11.51c0,0,0.631,9.67-6.09,11.12v0.01c0-0.01-0.01-0.01-0.01-0.01s-0.01,0-0.01,0.01v-0.01
			C9.271,21.18,9.9,11.51,9.9,11.51c3.479-0.09,5.87-1.82,6.09-1.98V9.51L16,9.52l0.01-0.01v0.02C16.23,9.69,18.62,11.42,22.1,11.51
			z"/>
		<path fill="#6A6A6A" d="M16,0C7.23,0,0.11,7.16,0.11,16S7.23,32,16,32c8.78,0,15.89-7.16,15.89-16S24.78,0,16,0z M16.01,24.99V25
			H16c-0.01,0-0.01,0-0.02,0v-0.01C6.76,23,7.641,9.74,7.641,9.74c4.77-0.12,8.04-2.49,8.34-2.72V7L16,7.01L16.01,7v0.02
			c0.311,0.23,3.57,2.6,8.351,2.72C24.36,9.74,25.24,23.01,16.01,24.99z"/>
	</g>
</g>
</svg>
