<?xml version="1.0" encoding="utf-8"?>
<!-- Generator: Adobe Illustrator 16.0.0, SVG Export Plug-In . SVG Version: 6.00 Build 0)  -->
<!DOCTYPE svg PUBLIC "-//W3C//DTD SVG 1.1//EN" "http://www.w3.org/Graphics/SVG/1.1/DTD/svg11.dtd">
<svg version="1.1" id="图层_1" xmlns="http://www.w3.org/2000/svg" xmlns:xlink="http://www.w3.org/1999/xlink" x="0px" y="0px"
	 width="32px" height="32px" viewBox="0 0 32 32" enable-background="new 0 0 32 32" xml:space="preserve">
<g id="形状_280_副本_3_1_" display="none" enable-background="new    ">
	<g id="形状_280_副本_3" display="inline">
		<g>
			<path fill="#FE5955" d="M15.888,7.731c-4.628,0-8.38,3.752-8.38,8.381c0,4.628,3.752,8.38,8.38,8.38
				c4.627,0,8.379-3.752,8.379-8.38C24.27,11.483,20.518,7.731,15.888,7.731z M11.607,17.529c-0.784,0-1.419-0.635-1.419-1.419
				c0-0.783,0.636-1.419,1.419-1.419c0.783,0,1.419,0.636,1.419,1.419C13.026,16.895,12.391,17.529,11.607,17.529z M15.899,17.529
				c-0.784,0-1.419-0.635-1.419-1.419c0-0.783,0.635-1.419,1.419-1.419c0.785,0,1.419,0.636,1.419,1.419
				C17.318,16.895,16.684,17.529,15.899,17.529z M20.191,17.529c-0.785,0-1.42-0.635-1.42-1.419c0-0.783,0.635-1.419,1.42-1.419
				c0.783,0,1.418,0.636,1.418,1.419C21.609,16.895,20.975,17.529,20.191,17.529z"/>
		</g>
	</g>
</g>
<g id="形状_3_副本_56_1_" display="none" enable-background="new    ">
	<g id="形状_3_副本_56" display="inline">
		<g>
			<polygon fill="#C5C9CA" points="18.693,16.077 17.813,15.196 17.811,15.198 13.903,11.291 13.022,12.172 16.93,16.079 
				13.022,19.986 13.903,20.867 17.811,16.96 17.813,16.962 18.693,16.081 18.691,16.079 			"/>
		</g>
	</g>
</g>
<g id="形状_3_副本_21_1_" display="none" enable-background="new    ">
	<g id="形状_3_副本_21" display="inline">
		<g>
			<polygon fill="#393B3D" points="19.949,10.405 18.705,9.161 13.184,14.682 13.181,14.679 11.936,15.923 11.939,15.926 
				11.936,15.93 13.181,17.174 13.184,17.171 18.705,22.691 19.949,21.447 14.428,15.926 			"/>
		</g>
	</g>
</g>
<g id="形状_280_1_" enable-background="new    ">
	<g id="形状_280">
		<g>
			<path fill="#6A6A6A" d="M16.001,0c-8.837,0-16,7.164-16,16s7.163,16,16,16c8.835,0,15.998-7.162,15.998-16
				C32.003,7.164,24.839,0,16.001,0z M15.595,26.811c-1.403,0-2.545-1.137-2.545-2.543c0-1.402,1.142-2.543,2.545-2.543
				c1.404,0,2.544,1.141,2.544,2.543C18.139,25.676,16.999,26.811,15.595,26.811z M19.4,17.973
				c-0.002,0.004-0.002,0.004-0.002,0.004c-1.793,0.428-1.551,2.121-1.551,2.121h-4.53c0,0-0.248-1.758,0.493-2.887
				c1.214-1.852,3.145-2.366,3.231-2.39c-0.004-0.003-0.007-0.01-0.009-0.016c1.361-0.395,2.354-1.521,2.354-2.866
				c0-1.668-1.518-3.022-3.391-3.022c-1.872,0-3.392,1.354-3.392,3.022c0,0.417,0.096,0.813,0.266,1.173H8.539
				c-0.074-0.382-0.12-0.772-0.12-1.173c0-3.73,3.394-6.757,7.578-6.757s7.578,3.025,7.578,6.757
				C23.575,14.581,21.875,16.861,19.4,17.973z"/>
		</g>
	</g>
</g>
<g id="_x31__xA0_图像_1_" display="none">
</g>
<g id="形状_365_副本_2_xA0_图像_1_" display="none">
</g>
<g id="形状_367_副本_2_xA0_图像_1_" display="none">
</g>
<g id="形状_39_副本_2_xA0_图像_1_" display="none">
</g>
</svg>
