<?xml version="1.0" encoding="utf-8"?>
<!-- Generator: Adobe Illustrator 16.0.0, SVG Export Plug-In . SVG Version: 6.00 Build 0)  -->
<!DOCTYPE svg PUBLIC "-//W3C//DTD SVG 1.1//EN" "http://www.w3.org/Graphics/SVG/1.1/DTD/svg11.dtd">
<svg version="1.1" id="形状_113_副本_13_拷贝_1_"
	 xmlns="http://www.w3.org/2000/svg" xmlns:xlink="http://www.w3.org/1999/xlink" x="0px" y="0px" width="35px" height="20px"
	 viewBox="0 0 35 20" enable-background="new 0 0 35 20" xml:space="preserve">
<g id="形状_113_副本_13_拷贝">
	<g>
		<path fill-rule="evenodd" clip-rule="evenodd" fill="#6E7072" d="M7.065,12.007c-1.667,0-3.019,1.352-3.019,3.019
			s1.352,3.019,3.019,3.019s3.018-1.352,3.018-3.019S8.732,12.007,7.065,12.007z M7.057,16.109c-0.598,0-1.082-0.484-1.082-1.082
			s0.484-1.083,1.082-1.083s1.083,0.485,1.083,1.083S7.654,16.109,7.057,16.109z M26.065,12.007c-1.667,0-3.019,1.352-3.019,3.019
			s1.352,3.019,3.019,3.019s3.019-1.352,3.019-3.019S27.732,12.007,26.065,12.007z M26.057,16.109c-0.598,0-1.082-0.484-1.082-1.082
			s0.484-1.083,1.082-1.083s1.082,0.485,1.082,1.083S26.654,16.109,26.057,16.109z M34.094,11.016c0-1.131-0.916-2.047-2.047-2.047
			c-0.105,0-0.207,0.016-0.309,0.031l-5.133-5.735c0-0.552-0.448-1-1-1h-0.543V2c0-0.553-0.447-1-1-1H2.031c-0.552,0-1,0.447-1,1
			v8.264H1.013v3.813l2.208-0.016c0.444-1.715,1.988-2.988,3.842-2.988c1.834,0,3.363,1.247,3.826,2.935l11.373-0.08
			c0.489-1.646,1.996-2.854,3.801-2.854c1.786,0,3.279,1.183,3.786,2.802l1.66-0.012c0.154,0.098,0.326,0.168,0.522,0.168h1.031
			c0.553,0,1-0.447,1-1v-0.75c0-0.172-0.055-0.325-0.132-0.465C34.035,11.57,34.094,11.3,34.094,11.016z M7.969,6.969
			c0,0.553-0.448,1-1,1h-3c-0.552,0-1-0.447-1-1V5c0-0.553,0.448-1,1-1h3c0.552,0,1,0.447,1,1V6.969z M16.969,7c0,0.553-0.448,1-1,1
			h-6c-0.552,0-1-0.447-1-1V5c0-0.553,0.448-1,1-1h6c0.552,0,1,0.447,1,1V7z M26.736,7.99h-5.718c-0.552,0-1-0.373-1-0.833V4.826
			c0-0.46,0.448-0.833,1-0.833h3.048l3.461,3.477C27.527,7.93,27.288,7.99,26.736,7.99z"/>
	</g>
</g>
</svg>
