<?xml version="1.0" encoding="utf-8"?>
<!-- Generator: Adobe Illustrator 16.0.0, SVG Export Plug-In . SVG Version: 6.00 Build 0)  -->
<!DOCTYPE svg PUBLIC "-//W3C//DTD SVG 1.1//EN" "http://www.w3.org/Graphics/SVG/1.1/DTD/svg11.dtd">
<svg version="1.1" id="图层_1" xmlns="http://www.w3.org/2000/svg" xmlns:xlink="http://www.w3.org/1999/xlink" x="0px" y="0px"
	 width="32px" height="32px" viewBox="0 0 32 32" enable-background="new 0 0 32 32" xml:space="preserve">
<g id="形状_280_副本_3_1_" enable-background="new    ">
	<g id="形状_280_副本_3">
		<g>
			<path fill="#6A6A6A" d="M16.001,0c-8.837,0-16,7.164-16,16s7.163,16,16,16c8.835,0,15.998-7.163,15.998-16
				C32.002,7.164,24.839,0,16.001,0z M7.827,18.707c-1.496,0-2.709-1.212-2.709-2.71c0-1.495,1.215-2.709,2.709-2.709
				c1.495,0,2.709,1.214,2.709,2.709C10.536,17.495,9.324,18.707,7.827,18.707z M16.021,18.707c-1.496,0-2.709-1.212-2.709-2.71
				c0-1.495,1.213-2.709,2.709-2.709c1.499,0,2.709,1.214,2.709,2.709C18.73,17.495,17.52,18.707,16.021,18.707z M24.217,18.707
				c-1.499,0-2.711-1.212-2.711-2.71c0-1.495,1.212-2.709,2.711-2.709c1.495,0,2.707,1.214,2.707,2.709
				C26.924,17.495,25.712,18.707,24.217,18.707z"/>
		</g>
	</g>
</g>
<g id="形状_3_副本_56_1_" display="none" enable-background="new    ">
	<g id="形状_3_副本_56" display="inline">
		<g>
			<polygon fill="#C5C9CA" points="18.693,16.077 17.813,15.196 17.811,15.198 13.903,11.291 13.022,12.172 16.93,16.079 
				13.022,19.986 13.903,20.867 17.811,16.96 17.813,16.962 18.693,16.081 18.691,16.079 			"/>
		</g>
	</g>
</g>
<g id="形状_3_副本_21_1_" display="none" enable-background="new    ">
	<g id="形状_3_副本_21" display="inline">
		<g>
			<polygon fill="#393B3D" points="19.949,10.405 18.705,9.161 13.184,14.682 13.181,14.679 11.936,15.923 11.939,15.926 
				11.936,15.93 13.181,17.174 13.184,17.171 18.705,22.691 19.949,21.447 14.428,15.926 			"/>
		</g>
	</g>
</g>
<g id="形状_280_1_" display="none" enable-background="new    ">
</g>
<g id="_x31__xA0_图像_1_" display="none">
</g>
<g id="形状_365_副本_2_xA0_图像_1_" display="none">
</g>
<g id="形状_367_副本_2_xA0_图像_1_" display="none">
</g>
<g id="形状_39_副本_2_xA0_图像_1_" display="none">
</g>
</svg>
