<?xml version="1.0" encoding="utf-8"?>
<!-- Generator: Adobe Illustrator 16.0.0, SVG Export Plug-In . SVG Version: 6.00 Build 0)  -->
<!DOCTYPE svg PUBLIC "-//W3C//DTD SVG 1.1//EN" "http://www.w3.org/Graphics/SVG/1.1/DTD/svg11.dtd">
<svg version="1.1" id="形状_327_副本_5_1_" xmlns="http://www.w3.org/2000/svg" xmlns:xlink="http://www.w3.org/1999/xlink"
	 x="0px" y="0px" width="32px" height="32px" viewBox="0 0 32 32" enable-background="new 0 0 32 32" xml:space="preserve">
<g id="形状_327_副本_5">
	<g>
		<path fill-rule="evenodd" clip-rule="evenodd" fill="#6A6A6A" d="M16,0.231C7.292,0.231,0.231,7.291,0.231,16
			S7.292,31.769,16,31.769c8.709,0,15.769-7.06,15.769-15.769S24.709,0.231,16,0.231z M23.797,11.195
			c0,0.208-0.072,0.391-0.172,0.558h0.037l-0.131,0.139c-0.039,0.048-0.078,0.092-0.125,0.133l-5.602,5.974v5.985l-3.794,2.617
			v-8.826l-5.367-5.732c-0.068-0.056-0.124-0.119-0.177-0.189l-0.095-0.101h0.026c-0.099-0.167-0.171-0.35-0.171-0.558V9.713
			c0-0.614,0.498-1.112,1.112-1.112h13.347c0.613,0,1.111,0.498,1.111,1.112V11.195z"/>
	</g>
</g>
</svg>
