<?xml version="1.0" encoding="utf-8"?>
<!-- Generator: Adobe Illustrator 16.0.0, SVG Export Plug-In . SVG Version: 6.00 Build 0)  -->
<!DOCTYPE svg PUBLIC "-//W3C//DTD SVG 1.1//EN" "http://www.w3.org/Graphics/SVG/1.1/DTD/svg11.dtd">
<svg version="1.1" id="椭圆_1_1_" xmlns="http://www.w3.org/2000/svg" xmlns:xlink="http://www.w3.org/1999/xlink" x="0px"
	 y="0px" width="35px" height="20px" viewBox="0 0 35 20" enable-background="new 0 0 35 20" xml:space="preserve">
<g id="椭圆_1">
	<g>
		<path fill-rule="evenodd" clip-rule="evenodd" fill="#6E7072" d="M17.313,2.125c-3.038,0-5.5,2.295-5.5,5.125
			c0,0.256,0.028,0.504,0.067,0.75h3.146c-0.085-0.232-0.142-0.477-0.142-0.735c0-1.26,1.097-2.281,2.45-2.281
			c1.353,0,2.45,1.021,2.45,2.281c0,1.261-1.098,2.282-2.45,2.282c-0.579,0-1.103-0.194-1.522-0.507v4.054h3.031V12.17
			c2.291-0.619,3.969-2.585,3.969-4.92C22.813,4.42,20.35,2.125,17.313,2.125z M17.234,14.094c-1.113,0-2.016,0.896-2.016,2
			s0.902,2,2.016,2s2.016-0.896,2.016-2S18.348,14.094,17.234,14.094z"/>
	</g>
</g>
</svg>
