<?xml version="1.0" encoding="utf-8"?>
<!-- Generator: Adobe Illustrator 16.0.0, SVG Export Plug-In . SVG Version: 6.00 Build 0)  -->
<!DOCTYPE svg PUBLIC "-//W3C//DTD SVG 1.1//EN" "http://www.w3.org/Graphics/SVG/1.1/DTD/svg11.dtd">
<svg version="1.1" id="形状_1_副本_8_1_" xmlns="http://www.w3.org/2000/svg" xmlns:xlink="http://www.w3.org/1999/xlink"
	 x="0px" y="0px" width="55.448px" height="40.552px" viewBox="0 0 55.448 40.552" enable-background="new 0 0 55.448 40.552"
	 xml:space="preserve">
<g id="形状_1_副本_8">
	<g>
		<path fill-rule="evenodd" clip-rule="evenodd" fill="#FFF36D" d="M38.262,30.08c-3.189,0-6.172,2.315-6.662,5.171
			c-0.49,2.854,1.698,5.17,4.887,5.17s6.171-2.315,6.661-5.17C43.638,32.396,41.45,30.08,38.262,30.08z M39.997,35.252
			c-0.223,1.297-1.578,2.35-3.027,2.35s-2.442-1.053-2.22-2.35s1.578-2.35,3.026-2.35C39.226,32.902,40.22,33.955,39.997,35.252z
			 M9.238,7.064h2.456l-0.879,3.933h4.634l0.879-3.933h1.052c3.07,0,3.659-2.07,3.659-2.07l0.975-4.483H18.14l-0.542,2.388
			c-0.438,1.955-2.761,1.61-2.761,1.61h-4.01c-3.566,0-4.846,2.555-4.846,2.555h0.01c-0.394,0.58-0.765,1.308-0.957,2.19
			C5.034,9.254,6.69,7.215,9.238,7.064z M26.526,10.957h13.588l0.708-2.779H29.349c0,0-1.394,0.222-0.854-1.409l0.317-1.67H41.21
			l0.678-2.649H29.316l0.38-2.001h-3.692L24.29,8.458C24.29,8.458,24.1,10.957,26.526,10.957z M33.394,28.942h0.384
			c1.608,0.051,3.163-1.364,3.296-2.006l0.036-0.251c0.002-0.008,0.011-0.018,0.012-0.025c0.621-3.167,1.351-7.025,2.054-10.605
			c0.168-0.532,0.227-0.975,0.211-1.346c0.076-0.854-0.747-1.865-1.684-1.816h-0.265c-0.004,0-0.009,0-0.013,0h-1.01l0.002-0.011
			H8.035c-0.913,0-1.669,0.365-2.258,0.816c-0.014-0.006-0.031-0.013-0.031-0.013s-0.29,0.23-0.663,0.653
			c-0.505,0.553-0.771,1.051-0.771,1.051h0.009c-0.359,0.602-0.685,1.347-0.828,2.235c0,0,1.205-2.086,3.781-2.19
			c0.176-0.007,0.313-0.023,0.429-0.044h27.79l-0.646,3.318H7.372c-2.792,0-4.34,2.925-4.34,2.925H3.04
			c-0.398,0.677-0.765,1.541-0.897,2.575c0,0,1.199-2.248,3.909-2.442c0.442-0.032,0.887-0.122,1.228-0.128
			c0.01,0,0.011-0.004,0.02-0.005h26.979l-0.746,3.838H6.318c-2.14,0.188-3.398,1.405-4.066,2.353
			c-0.402,0.491-1.456,1.966-1.499,4.039c0,0,0.891-2.243,3.392-2.695c0.365-0.066,0.76-0.146,1.041-0.2h28.202L33.394,28.942z
			 M12.927,30.08c-3.188,0-6.171,2.315-6.661,5.171c-0.49,2.854,1.697,5.17,4.886,5.17s6.171-2.315,6.662-5.17
			C18.303,32.396,16.116,30.08,12.927,30.08z M14.665,35.252c-0.223,1.297-1.578,2.35-3.027,2.35c-1.449,0-2.443-1.053-2.22-2.35
			c0.223-1.297,1.578-2.35,3.026-2.35C13.894,32.902,14.888,33.955,14.665,35.252z M43.425,6.839l-4.113,21.477
			c3.091,0.268,5.351,2.203,5.835,4.806h6.758l2.616-13.975C56.063,5.627,43.425,6.839,43.425,6.839z M49.542,30.165h-2.365
			c-1.114-1.97-2.825-3.136-4.583-3.808l3.273-16.467c0,0,5.96,0.53,6.078,6.38C51.99,18.448,49.542,30.165,49.542,30.165z"/>
	</g>
</g>
</svg>
