<?xml version="1.0" encoding="utf-8"?>
<!-- Generator: Adobe Illustrator 16.0.0, SVG Export Plug-In . SVG Version: 6.00 Build 0)  -->
<!DOCTYPE svg PUBLIC "-//W3C//DTD SVG 1.1//EN" "http://www.w3.org/Graphics/SVG/1.1/DTD/svg11.dtd">
<svg version="1.1" id="图层_1" xmlns="http://www.w3.org/2000/svg" xmlns:xlink="http://www.w3.org/1999/xlink" x="0px" y="0px"
	 width="32px" height="32px" viewBox="0 0 32 32" enable-background="new 0 0 32 32" xml:space="preserve">
<g id="形状_113_副本_6_1_" display="none" enable-background="new    ">
	<g id="形状_113_副本_6" display="inline">
		<g>
			<path fill="#6E7072" d="M7.595,19.068c-1.496,0-2.708,1.195-2.708,2.666c0,1.475,1.212,2.668,2.708,2.668
				c1.496,0,2.709-1.193,2.709-2.668C10.304,20.264,9.091,19.068,7.595,19.068z M7.587,22.693c-0.536,0-0.971-0.428-0.971-0.957
				c0-0.527,0.435-0.955,0.971-0.955c0.537,0,0.972,0.428,0.972,0.955C8.559,22.266,8.124,22.693,7.587,22.693z M1.307,20.846h2.85
				c0.412-1.494,1.787-2.602,3.436-2.602c1.65,0,3.024,1.105,3.436,2.602h8.219v-2.613H1.307V20.846z M19.247,6.718H1.311V17.33
				h17.937L19.247,6.718L19.247,6.718z M30.911,14.665h-5.769c-0.281,0-0.513-0.225-0.513-0.504v-3.398
				c0-0.278,0.229-0.503,0.513-0.503h5.063c-1.245-3.157-3.745-2.624-4.456-2.641h-4.246c-0.736,0-1.339,0.589-1.339,1.317v10.613
				c0,0.02,0.011,0.035,0.011,0.055h0.661v1.063c0.117,0.067,0.244,0.118,0.377,0.153c0.42-1.48,1.787-2.575,3.429-2.575
				c1.656,0,3.039,1.116,3.441,2.623h1.5c0.738,0,1.338-0.593,1.338-1.318v-4.484C30.924,14.921,30.913,14.802,30.911,14.665z
				 M24.646,19.068c-1.496,0-2.709,1.195-2.709,2.666c0,1.475,1.213,2.668,2.709,2.668s2.709-1.193,2.709-2.668
				C27.354,20.264,26.143,19.068,24.646,19.068z M24.639,22.693c-0.537,0-0.973-0.428-0.973-0.957c0-0.527,0.436-0.955,0.973-0.955
				c0.536,0,0.971,0.428,0.971,0.955C25.607,22.266,25.175,22.693,24.639,22.693z"/>
		</g>
	</g>
</g>
<g id="形状_113_副本_9_1_" display="none" enable-background="new    ">
	<g id="形状_113_副本_9" display="inline">
		<g>
			<path fill="#6E7072" d="M6.963,19.064c-1.496,0-2.709,1.193-2.709,2.666c0,1.475,1.213,2.668,2.709,2.668
				c1.495,0,2.709-1.193,2.709-2.668C9.672,20.26,8.458,19.064,6.963,19.064z M6.955,22.689c-0.536,0-0.972-0.428-0.972-0.957
				c0-0.527,0.436-0.955,0.972-0.955s0.972,0.428,0.972,0.955C7.927,22.262,7.491,22.689,6.955,22.689z M0.675,20.842h2.85
				c0.412-1.494,1.786-2.602,3.436-2.602c1.649,0,3.024,1.105,3.436,2.602h8.218v-2.646H0.675V20.842z M30.277,14.661H24.51
				c-0.281,0-0.512-0.225-0.512-0.504v-3.398c0-0.278,0.229-0.503,0.512-0.503h5.064C28.33,7.099,25.83,7.631,25.12,7.615h-4.246
				c-0.74,0-1.339,0.589-1.339,1.317v10.613c0,0.02,0.011,0.035,0.012,0.055h0.659v1.063c0.117,0.067,0.244,0.118,0.377,0.153
				c0.421-1.48,1.788-2.575,3.429-2.575c1.657,0,3.039,1.116,3.443,2.622h1.497c0.739,0,1.339-0.592,1.339-1.317v-4.484
				C30.291,14.917,30.279,14.798,30.277,14.661z M17.734,8.5h-4.482V6.722h-0.9V8.5H6.971V6.722H6.069V8.5H1.586V6.722h-0.9v10.612
				h0.9v-0.029h4.483v0.029H6.97v-0.029h5.381v0.029h0.9v-0.029h4.483v0.029h0.899V6.722h-0.899V8.5L17.734,8.5z M6.069,15.539
				H1.586v-1.738h4.483V15.539z M6.069,12.035H1.586v-1.768h4.483V12.035z M12.352,15.539H6.971v-1.738h5.381V15.539z
				 M12.352,12.035H6.971v-1.768h5.381V12.035z M17.734,15.539h-4.482v-1.738h4.482V15.539z M17.734,12.035h-4.482v-1.768h4.482
				V12.035z M24.014,19.064c-1.496,0-2.709,1.193-2.709,2.666c0,1.475,1.213,2.668,2.709,2.668c1.495,0,2.709-1.193,2.709-2.668
				C26.723,20.26,25.509,19.064,24.014,19.064z M24.006,22.689c-0.535,0-0.972-0.428-0.972-0.957c0-0.527,0.437-0.955,0.972-0.955
				c0.536,0,0.971,0.428,0.971,0.955C24.977,22.262,24.542,22.689,24.006,22.689z"/>
		</g>
	</g>
</g>
<g id="形状_113_副本_8_1_" display="none" enable-background="new    ">
	<g id="形状_113_副本_8" display="inline">
		<g>
			<path fill="#6E7072" d="M0.675,20.408h2.85c0.412-1.494,1.786-2.602,3.436-2.602c1.649,0,3.023,1.105,3.436,2.602h8.218v-2.646
				H0.675V20.408z M6.963,18.632c-1.496,0-2.709,1.194-2.709,2.666c0,1.474,1.213,2.667,2.709,2.667
				c1.495,0,2.709-1.193,2.709-2.667C9.672,19.826,8.458,18.632,6.963,18.632z M6.955,22.256c-0.536,0-0.972-0.428-0.972-0.956
				c0-0.526,0.436-0.956,0.972-0.956s0.972,0.43,0.972,0.956C7.927,21.828,7.491,22.256,6.955,22.256z M30.277,14.227H24.51
				c-0.281,0-0.512-0.225-0.512-0.504v-3.398c0-0.278,0.229-0.503,0.512-0.503h5.064C28.33,6.665,25.83,7.198,25.12,7.181h-4.246
				c-0.74,0-1.339,0.589-1.339,1.317v10.613c0,0.02,0.011,0.035,0.012,0.056h0.659v1.062c0.117,0.068,0.244,0.119,0.377,0.154
				c0.421-1.48,1.788-2.576,3.429-2.576c1.657,0,3.038,1.117,3.442,2.623h1.498c0.739,0,1.339-0.591,1.339-1.318v-4.482
				C30.291,14.484,30.279,14.365,30.277,14.227z M24.014,18.632c-1.496,0-2.709,1.194-2.709,2.666c0,1.474,1.213,2.667,2.709,2.667
				c1.495,0,2.709-1.193,2.709-2.667C26.723,19.826,25.509,18.632,24.014,18.632z M24.006,22.256c-0.535,0-0.972-0.428-0.972-0.956
				c0-0.526,0.437-0.956,0.972-0.956c0.536,0,0.971,0.43,0.971,0.956C24.977,21.828,24.542,22.256,24.006,22.256z"/>
		</g>
	</g>
</g>
<g id="形状_113_副本_11_1_" display="none" enable-background="new    ">
	<g id="形状_113_副本_11" display="inline">
		<g>
			<path fill="#6E7072" d="M5.168,18.632c-1.496,0-2.709,1.194-2.709,2.666c0,1.474,1.213,2.667,2.709,2.667
				s2.708-1.193,2.708-2.667C7.876,19.826,6.664,18.632,5.168,18.632z M5.16,22.256c-0.536,0-0.971-0.428-0.971-0.956
				c0-0.526,0.435-0.956,0.971-0.956c0.536,0,0.972,0.43,0.972,0.956C6.132,21.828,5.696,22.256,5.16,22.256z M30.277,14.227H24.51
				c-0.281,0-0.512-0.225-0.512-0.504v-3.398c0-0.278,0.229-0.503,0.512-0.503h5.064C28.33,6.665,25.83,7.198,25.12,7.181h-4.246
				c-0.74,0-1.339,0.589-1.339,1.317v10.613c0,0.02,0.011,0.035,0.012,0.056h0.659v1.062c0.117,0.068,0.244,0.119,0.377,0.154
				c0.421-1.48,1.788-2.576,3.429-2.576c1.657,0,3.038,1.117,3.442,2.623h1.498c0.739,0,1.339-0.591,1.339-1.318v-4.482
				C30.291,14.484,30.279,14.365,30.277,14.227z M11.453,16.018h7.162V15.14H0.675v5.269H1.73c0.413-1.494,1.787-2.603,3.436-2.603
				s3.023,1.106,3.436,2.603h2.852v-3.519h-0.001V16.018z M15.935,17.807c1.074,0,2.025,0.479,2.681,1.215v-2.131h-6.273v3.52H12.5
				C12.911,18.914,14.286,17.807,15.935,17.807z M15.937,18.632c-1.496,0-2.709,1.194-2.709,2.666c0,1.474,1.213,2.667,2.709,2.667
				c1.495,0,2.708-1.193,2.708-2.667C18.645,19.826,17.432,18.632,15.937,18.632z M15.929,22.256c-0.536,0-0.971-0.428-0.971-0.956
				c0-0.526,0.435-0.956,0.971-0.956c0.536,0,0.971,0.428,0.971,0.956S16.465,22.256,15.929,22.256z M24.014,18.632
				c-1.496,0-2.709,1.194-2.709,2.666c0,1.474,1.213,2.667,2.709,2.667c1.495,0,2.709-1.193,2.709-2.667
				C26.723,19.826,25.509,18.632,24.014,18.632z M24.006,22.256c-0.535,0-0.972-0.428-0.972-0.956c0-0.526,0.437-0.956,0.972-0.956
				c0.536,0,0.971,0.43,0.971,0.956C24.977,21.828,24.542,22.256,24.006,22.256z M18.624,8.943h-0.89v6.177h0.89V8.943z"/>
		</g>
	</g>
</g>
<g id="形状_113_副本_13_1_" display="none" enable-background="new    ">
	<g id="形状_113_副本_13" display="inline">
		<g>
			<path fill="#6E7072" d="M0.675,20.839h2.85c0.412-1.495,1.786-2.603,3.436-2.603c1.649,0,3.023,1.107,3.436,2.603h8.218v-2.646
				H0.675V20.839z M6.963,19.063c-1.496,0-2.709,1.194-2.709,2.666c0,1.476,1.213,2.668,2.709,2.668
				c1.495,0,2.709-1.192,2.709-2.668C9.672,20.257,8.458,19.063,6.963,19.063z M6.955,22.688c-0.536,0-0.972-0.429-0.972-0.957
				c0-0.525,0.436-0.955,0.972-0.955s0.972,0.43,0.972,0.955C7.927,22.259,7.491,22.688,6.955,22.688z M30.277,14.658H24.51
				c-0.281,0-0.512-0.226-0.512-0.505v-3.397c0-0.278,0.229-0.503,0.512-0.503h5.064c-1.244-3.157-3.745-2.624-4.455-2.641h-4.246
				c-0.74,0-1.339,0.589-1.339,1.316v10.613c0,0.02,0.011,0.036,0.012,0.057h0.659v1.063c0.117,0.066,0.244,0.117,0.377,0.152
				c0.421-1.479,1.788-2.576,3.43-2.576c1.656,0,3.037,1.117,3.441,2.623h1.498c0.74,0,1.339-0.59,1.339-1.316v-4.484
				C30.291,14.915,30.279,14.796,30.277,14.658z M24.014,19.063c-1.496,0-2.709,1.194-2.709,2.666c0,1.476,1.213,2.668,2.709,2.668
				c1.495,0,2.709-1.192,2.709-2.668C26.723,20.257,25.509,19.063,24.014,19.063z M24.006,22.688c-0.535,0-0.972-0.429-0.972-0.957
				c0-0.525,0.437-0.955,0.972-0.955c0.536,0,0.971,0.43,0.971,0.955C24.977,22.259,24.542,22.688,24.006,22.688z M6.592,17.029
				l9.215-6.75h-5.285l3.871-3.555h-4.068L5.36,12.017h5.017L6.592,17.029z"/>
		</g>
	</g>
</g>
<g id="形状_113_副本_13_拷贝_1_" enable-background="new    ">
	<g id="形状_113_副本_13_拷贝">
		<g>
			<path fill="#6A6A6A" d="M5.858,18.367c-1.614,0-2.921,1.287-2.921,2.876s1.308,2.875,2.921,2.875c1.612,0,2.92-1.286,2.92-2.875
				C8.779,19.654,7.47,18.367,5.858,18.367z M5.85,22.275c-0.58,0-1.048-0.463-1.048-1.031c0-0.569,0.469-1.031,1.048-1.031
				c0.578,0,1.047,0.462,1.047,1.031C6.897,21.813,6.428,22.275,5.85,22.275z M32,17.414c0-1.077-0.881-1.95-1.968-1.95
				c-0.104,0-0.204,0.015-0.306,0.03l-4.959-5.456c0-0.525-0.434-0.952-0.969-0.952h-0.523V8.834c0-0.525-0.433-0.952-0.967-0.952
				H0.986c-0.535,0-0.967,0.427-0.967,0.952v7.873H0v3.631l2.137-0.016c0.431-1.635,1.924-2.846,3.717-2.846
				c1.775,0,3.255,1.187,3.704,2.795l11.006-0.074c0.474-1.568,1.934-2.721,3.68-2.721c1.729,0,3.173,1.127,3.662,2.67l1.605-0.012
				c0.15,0.094,0.316,0.16,0.506,0.16h1c0.534,0,0.967-0.426,0.967-0.953v-0.714c0-0.171-0.059-0.323-0.139-0.46
				C31.945,17.938,32,17.682,32,17.414z M6.731,13.568c0,0.525-0.432,0.953-0.967,0.953H2.86c-0.534,0-0.967-0.428-0.967-0.953
				v-1.875c0-0.526,0.434-0.953,0.967-0.953h2.903c0.535,0,0.967,0.427,0.967,0.953L6.731,13.568L6.731,13.568z M15.441,13.598
				c0,0.525-0.433,0.953-0.967,0.953H8.667c-0.534,0-0.967-0.427-0.967-0.953v-1.905c0-0.526,0.434-0.953,0.967-0.953h5.807
				c0.535,0,0.967,0.427,0.967,0.953V13.598z M24.896,14.542h-5.535c-0.532,0-0.967-0.356-0.967-0.794v-2.221
				c0-0.438,0.435-0.794,0.967-0.794h2.949l3.35,3.313C25.66,14.483,25.432,14.542,24.896,14.542z M24.246,18.367
				c-1.615,0-2.921,1.287-2.921,2.876s1.306,2.875,2.921,2.875c1.611,0,2.922-1.286,2.922-2.875S25.859,18.367,24.246,18.367z
				 M24.238,22.275c-0.579,0-1.049-0.463-1.049-1.031c0-0.569,0.47-1.031,1.049-1.031c0.576,0,1.047,0.462,1.047,1.031
				C25.285,21.813,24.814,22.275,24.238,22.275z"/>
		</g>
	</g>
</g>
<g id="椭圆_1_1_" display="none" enable-background="new    ">
	<g id="椭圆_1" display="inline">
		<g>
			<path fill="#6E7072" d="M16.245,19.525c-0.999,0-1.809,0.791-1.809,1.766s0.811,1.764,1.809,1.764c1,0,1.812-0.789,1.812-1.764
				S17.245,19.525,16.245,19.525z M16.322,8.945c-2.719,0-4.923,2.025-4.923,4.524c0,0.225,0.025,0.443,0.061,0.659h2.808
				c-0.074-0.202-0.123-0.414-0.123-0.638c0-1.112,0.984-2.015,2.198-2.015s2.198,0.902,2.198,2.015
				c0,1.114-0.984,2.017-2.198,2.017c-0.514,0-0.98-0.168-1.354-0.439v3.569h2.699v-0.843c2.051-0.547,3.56-2.265,3.56-4.325
				C21.245,10.971,19.041,8.945,16.322,8.945z"/>
		</g>
	</g>
</g>
</svg>
