<svg style="position: absolute; width: 0; height: 0; overflow: hidden;" version="1.1" xmlns="http://www.w3.org/2000/svg" xmlns:xlink="http://www.w3.org/1999/xlink">
<defs>
<symbol id="icon-1" viewBox="0 0 32 32">
<title>1</title>
<path class="path1" d="M22.125 2.531v-2.531h-2.531v2.531h-7.282v-2.469h-2.437v2.469h-7.375v4.844h27v-4.844h-7.375zM2.5 32h27v-22.157h-27v22.157zM22.125 14.75h2.375v2.531h-2.375v-2.531zM22.125 19.688h2.375v2.531h-2.375v-2.531zM22.125 24.594h2.375v2.531h-2.375v-2.531zM17.219 14.75h2.375v2.531h-2.375v-2.531zM17.219 19.688h2.375v2.531h-2.375v-2.531zM17.219 24.594h2.375v2.531h-2.375v-2.531zM12.312 14.75h2.375v2.531h-2.375v-2.531zM12.312 19.688h2.375v2.531h-2.375v-2.531zM12.312 24.594h2.375v2.531h-2.375v-2.531zM7.406 14.75h2.375v2.531h-2.375v-2.531zM7.406 19.688h2.375v2.531h-2.375v-2.531zM7.406 24.594h2.375v2.531h-2.375v-2.531z"></path>
</symbol>
<symbol id="icon-2" viewBox="0 0 32 32">
<title>2</title>
<path class="path1" d="M16.938 15.178h1.756v7.454h-1.756v-7.454z"></path>
<path class="path2" d="M13.188 15.178h1.757v7.454h-1.757v-7.454z"></path>
<path class="path3" d="M0 0v32h32v-32h-32zM22.559 24.452h-13.118v-11.21h13.118v11.21zM22.559 11.363h-13.118v-1.937h5.622v-1.878h1.875v1.878h5.621v1.937z"></path>
</symbol>
<symbol id="icon-3" viewBox="0 0 32 32">
<title>3</title>
<path class="path1" d="M25.587 0.005h-8.892l-11.685 15.974 11.685 15.974h8.892l-11.685-15.974z"></path>
</symbol>
<symbol id="icon-4" viewBox="0 0 32 32">
<title>4</title>
<path class="path1" d="M31.84 22.001v-16.855c0-2.843-2.286-5.147-5.107-5.147h-21.518c-2.821 0-5.109 2.305-5.109 5.147v21.708c0 2.841 2.288 5.145 5.109 5.145h21.518c2.748 0 4.973-2.191 5.087-4.932l-12.241-5.619c0 0-3.518 5.886-10.115 5.503-6.109-0.355-7.076-4.068-7.046-5.795 0.030-1.711 0.833-4.43 4.757-5.323 6.145-0.915 10.94 1.759 11.167 1.647 0.896-0.879 1.847-3.833 1.872-4.247h-12.445v-1.298h6.205v-2.193h-7.482v-1.481h7.48v-3.668h3.65v3.668h7.986v1.482h-7.986v2.194h2.793v0.015c0.84-0.009 3.757-0.036 3.717 0.002-0.213 1.458-1.339 4.989-2.496 6.653l10.204 3.394zM7.709 17.861c-4.015 0.337-3.952 3.433-3.954 3.585-0.003 0.212 0.092 3.402 5.109 3.37 4.595-0.027 7.664-3.98 7.907-4.687 0 0-5.048-2.606-9.062-2.268z"></path>
</symbol>
<symbol id="icon-5" viewBox="0 0 32 32">
<title>5</title>
<path class="path1" d="M11.558 10.568c0 0.717-0.581 1.298-1.298 1.298s-1.298-0.581-1.298-1.298c0-0.717 0.581-1.298 1.298-1.298s1.298 0.581 1.298 1.298z"></path>
<path class="path2" d="M19.543 16.738c0 0.594-0.481 1.075-1.075 1.075s-1.075-0.481-1.075-1.075c0-0.594 0.481-1.075 1.075-1.075s1.075 0.481 1.075 1.075z"></path>
<path class="path3" d="M17.024 10.568c0 0.717-0.581 1.298-1.298 1.298s-1.298-0.581-1.298-1.298c0-0.717 0.581-1.298 1.298-1.298s1.298 0.581 1.298 1.298z"></path>
<path class="path4" d="M26.839 0h-21.678c-2.85 0-5.161 2.311-5.161 5.161v21.679c0 2.85 2.311 5.16 5.161 5.16h21.678c2.85 0 5.161-2.31 5.161-5.16v-21.679c0-2.849-2.311-5.161-5.161-5.161zM10.147 19.587l-3.967 2.577 0.968-4.153 0.194 0.064c-1.808-1.439-2.952-3.524-2.952-5.85 0-4.345 3.972-7.869 8.872-7.869 4.253 0 7.801 2.655 8.666 6.197-0.224-0.014-0.444-0.030-0.672-0.030-5.211 0-9.435 3.748-9.436 8.368 0 0.375 0.038 0.742 0.092 1.104-0.61-0.086-1.201-0.221-1.765-0.408zM27.257 27.189l-3.19-2.046c-0.868 0.313-1.815 0.489-2.811 0.489-4.126 0-7.469-2.967-7.469-6.625s3.343-6.625 7.469-6.625 7.468 2.966 7.468 6.625c0 1.991-0.996 3.773-2.566 4.988l1.099 3.194z"></path>
<path class="path5" d="M25.125 16.738c0 0.594-0.481 1.075-1.075 1.075s-1.075-0.481-1.075-1.075c0-0.594 0.481-1.075 1.075-1.075s1.075 0.481 1.075 1.075z"></path>
</symbol>
<symbol id="icon-6" viewBox="0 0 32 32">
<title>6</title>
<path class="path1" d="M16 0c-8.836 0-16 7.164-16 16s7.164 16 16 16c8.837 0 16-7.164 16-16s-7.163-16-16-16zM17.128 20.969l-3.26 3.258-0.003-0.004-0.003 0.004-3.257-3.258 0.004-0.005-5.007-5.005 3.257-3.257 5.008 5.005 8.433-8.432 3.257 3.258-8.433 8.431 0.004 0.005z"></path>
</symbol>
<symbol id="icon-7" viewBox="0 0 32 32">
<title>7</title>
<path class="path1" d="M0.369 32l10.088-0.346-9.747-9.858-0.341 10.204zM23.947 0l-19.576 19.803 7.682 7.771 19.578-19.803-7.684-7.771z"></path>
</symbol>
<symbol id="icon-8" viewBox="0 0 32 32">
<title>8</title>
<path class="path1" d="M15.824 23.995c-2.266 0-4.103 1.795-4.103 4.005s1.839 4 4.103 4c2.268 0 4.109-1.79 4.109-4s-1.841-4.005-4.109-4.005zM15.998 0c-6.166 0-11.165 4.594-11.165 10.261 0 0.51 0.057 1.005 0.138 1.494h6.369c-0.168-0.457-0.279-0.939-0.279-1.447 0-2.521 2.231-4.569 4.984-4.569s4.984 2.046 4.984 4.569c0 2.527-2.231 4.574-4.984 4.574-1.165 0-2.223-0.381-3.071-0.995v8.093h6.122v-1.912c4.649-1.239 8.069-5.136 8.069-9.807-0.001-5.665-4.999-10.261-11.167-10.261z"></path>
</symbol>
<symbol id="icon-9" viewBox="0 0 32 32">
<title>9</title>
<path class="path1" d="M5.858 18.367c-1.614 0-2.921 1.287-2.921 2.876s1.308 2.875 2.921 2.875c1.612 0 2.92-1.286 2.92-2.875s-1.308-2.876-2.92-2.876zM5.85 22.275c-0.58 0-1.048-0.463-1.048-1.031 0-0.569 0.469-1.031 1.048-1.031s1.047 0.462 1.047 1.031-0.469 1.031-1.047 1.031zM32 17.414c0-1.077-0.881-1.95-1.968-1.95-0.104 0-0.204 0.015-0.306 0.030l-4.959-5.456c0-0.525-0.434-0.952-0.969-0.952h-0.523v-0.252c0-0.525-0.433-0.952-0.967-0.952h-21.322c-0.535 0-0.967 0.427-0.967 0.952v7.873h-0.019v3.631l2.137-0.016c0.431-1.635 1.924-2.846 3.717-2.846 1.775 0 3.255 1.187 3.704 2.795l11.006-0.074c0.474-1.568 1.934-2.721 3.68-2.721 1.729 0 3.173 1.127 3.662 2.67l1.605-0.012c0.15 0.094 0.316 0.16 0.506 0.16h1c0.534 0 0.967-0.426 0.967-0.953v-0.714c0-0.171-0.059-0.323-0.139-0.46 0.1-0.229 0.155-0.485 0.155-0.753zM6.731 13.568c0 0.525-0.432 0.953-0.967 0.953h-2.904c-0.534 0-0.967-0.428-0.967-0.953v-1.875c0-0.526 0.434-0.953 0.967-0.953h2.903c0.535 0 0.967 0.427 0.967 0.953l0.001 1.875zM15.441 13.598c0 0.525-0.433 0.953-0.967 0.953h-5.807c-0.534 0-0.967-0.427-0.967-0.953v-1.905c0-0.526 0.434-0.953 0.967-0.953h5.807c0.535 0 0.967 0.427 0.967 0.953v1.905zM24.896 14.542h-5.535c-0.532 0-0.967-0.356-0.967-0.794v-2.221c0-0.438 0.435-0.794 0.967-0.794h2.949l3.35 3.313c0 0.437-0.228 0.496-0.764 0.496zM24.246 18.367c-1.615 0-2.921 1.287-2.921 2.876s1.306 2.875 2.921 2.875c1.611 0 2.922-1.286 2.922-2.875s-1.309-2.876-2.922-2.876zM24.238 22.275c-0.579 0-1.049-0.463-1.049-1.031 0-0.569 0.47-1.031 1.049-1.031 0.576 0 1.047 0.462 1.047 1.031s-0.471 1.031-1.047 1.031z"></path>
</symbol>
<symbol id="icon-10" viewBox="0 0 32 32">
<title>10</title>
<path class="path1" d="M0 21.703h3.080c0.445-1.615 1.93-2.813 3.713-2.813 1.782 0 3.266 1.196 3.712 2.813h8.88v-2.857h-19.385v2.857zM6.794 19.784c-1.617 0-2.927 1.29-2.927 2.881 0 1.593 1.311 2.883 2.927 2.883s2.927-1.29 2.927-2.883c0.001-1.591-1.311-2.881-2.927-2.881zM6.786 23.701c-0.58 0-1.051-0.465-1.051-1.034s0.471-1.032 1.051-1.032c0.579 0 1.050 0.463 1.050 1.032s-0.471 1.034-1.050 1.034zM31.986 15.025h-6.232c-0.304 0-0.553-0.244-0.553-0.546v-3.67c0-0.3 0.247-0.543 0.553-0.543h5.473c-1.345-3.411-4.047-2.835-4.813-2.854h-4.589c-0.8 0-1.446 0.637-1.446 1.422v11.467c0 0.021 0.012 0.039 0.014 0.063h0.711v1.146c0.127 0.073 0.266 0.128 0.408 0.166 0.454-1.6 1.932-2.782 3.705-2.782 1.79 0 3.282 1.207 3.719 2.834h1.619c0.801 0 1.446-0.639 1.446-1.424v-4.846c0-0.155-0.013-0.284-0.015-0.433zM25.218 19.784c-1.616 0-2.927 1.29-2.927 2.881 0 1.593 1.311 2.883 2.927 2.883s2.929-1.29 2.929-2.883c-0.001-1.591-1.313-2.881-2.929-2.881zM25.21 23.701c-0.578 0-1.050-0.465-1.050-1.034s0.472-1.032 1.050-1.032c0.579 0 1.049 0.463 1.049 1.032s-0.47 1.034-1.049 1.034zM6.394 17.587l9.957-7.293h-5.711l4.183-3.841h-4.395l-5.365 5.719h5.421l-4.090 5.415z"></path>
</symbol>
<symbol id="icon-11" viewBox="0 0 32 32">
<title>11</title>
<path class="path1" d="M4.855 19.318c-1.617 0-2.928 1.291-2.928 2.881 0 1.592 1.311 2.881 2.928 2.881 1.616 0 2.926-1.289 2.926-2.881 0-1.59-1.309-2.881-2.926-2.881zM4.847 23.234c-0.579 0-1.050-0.463-1.050-1.033 0-0.568 0.471-1.033 1.050-1.033s1.050 0.465 1.050 1.033c-0.001 0.57-0.471 1.033-1.050 1.033zM31.984 14.559h-6.23c-0.304 0-0.553-0.243-0.553-0.544v-3.671c0-0.301 0.247-0.544 0.553-0.544h5.473c-1.345-3.411-4.045-2.835-4.813-2.853h-4.588c-0.8 0-1.446 0.636-1.446 1.423v11.467c0 0.021 0.012 0.039 0.014 0.062h0.711v1.146c0.127 0.074 0.265 0.129 0.408 0.166 0.454-1.601 1.932-2.782 3.704-2.782 1.791 0 3.282 1.207 3.72 2.834h1.619c0.799 0 1.445-0.638 1.445-1.425v-4.844c-0.001-0.158-0.013-0.286-0.017-0.435zM11.646 16.494h7.738v-0.948h-19.384v5.692h1.141c0.446-1.614 1.931-2.813 3.712-2.813 1.782 0 3.267 1.197 3.713 2.813h3.082v-3.801h-0.001l-0.001-0.943zM16.489 18.426c1.16 0 2.188 0.516 2.896 1.313v-2.301h-6.778v3.801h0.17c0.445-1.616 1.93-2.813 3.712-2.813zM16.491 19.318c-1.617 0-2.928 1.291-2.928 2.881 0 1.592 1.311 2.881 2.928 2.881 1.614 0 2.926-1.289 2.926-2.881 0-1.59-1.312-2.881-2.926-2.881zM16.482 23.234c-0.579 0-1.050-0.463-1.050-1.033 0-0.568 0.471-1.033 1.050-1.033s1.050 0.461 1.050 1.033c0 0.57-0.469 1.033-1.050 1.033zM25.218 19.318c-1.616 0-2.927 1.291-2.927 2.881 0 1.592 1.311 2.881 2.927 2.881 1.615 0 2.927-1.289 2.927-2.881 0-1.59-1.312-2.881-2.927-2.881zM25.209 23.234c-0.578 0-1.050-0.463-1.050-1.033 0-0.568 0.472-1.033 1.050-1.033 0.58 0 1.049 0.465 1.049 1.033 0 0.57-0.469 1.033-1.049 1.033zM19.395 8.849h-0.961v6.674h0.961v-6.674z"></path>
</symbol>
<symbol id="icon-12" viewBox="0 0 32 32">
<title>12</title>
<path class="path1" d="M0 21.238h3.080c0.445-1.615 1.93-2.813 3.712-2.813s3.267 1.195 3.713 2.813h8.88v-2.861h-19.385v2.861zM6.795 19.318c-1.617 0-2.928 1.291-2.928 2.881 0 1.592 1.311 2.881 2.928 2.881 1.615 0 2.927-1.289 2.927-2.881 0-1.59-1.312-2.881-2.927-2.881zM6.786 23.234c-0.579 0-1.051-0.463-1.051-1.033 0-0.568 0.472-1.033 1.051-1.033s1.050 0.465 1.050 1.033c0 0.57-0.471 1.033-1.050 1.033zM31.984 14.559h-6.23c-0.304 0-0.553-0.243-0.553-0.544v-3.671c0-0.301 0.247-0.544 0.553-0.544h5.473c-1.345-3.411-4.045-2.835-4.813-2.853h-4.588c-0.8 0-1.446 0.636-1.446 1.423v11.467c0 0.021 0.012 0.039 0.014 0.062h0.711v1.146c0.127 0.074 0.265 0.129 0.408 0.166 0.454-1.601 1.932-2.782 3.704-2.782 1.791 0 3.282 1.207 3.72 2.834h1.619c0.799 0 1.445-0.638 1.445-1.425v-4.844c-0.001-0.158-0.013-0.286-0.017-0.435zM25.218 19.318c-1.616 0-2.927 1.291-2.927 2.881 0 1.592 1.311 2.881 2.927 2.881 1.615 0 2.927-1.289 2.927-2.881 0-1.59-1.312-2.881-2.927-2.881zM25.209 23.234c-0.578 0-1.050-0.463-1.050-1.033 0-0.568 0.472-1.033 1.050-1.033 0.58 0 1.049 0.465 1.049 1.033 0 0.57-0.469 1.033-1.049 1.033z"></path>
</symbol>
<symbol id="icon-13" viewBox="0 0 32 32">
<title>13</title>
<path class="path1" d="M6.795 19.787c-1.617 0-2.928 1.289-2.928 2.881s1.311 2.881 2.928 2.881c1.615 0 2.927-1.289 2.927-2.881 0-1.59-1.312-2.881-2.927-2.881zM6.786 23.703c-0.579 0-1.051-0.463-1.051-1.033s0.472-1.033 1.051-1.033 1.050 0.463 1.050 1.033-0.471 1.033-1.050 1.033zM0 21.707h3.080c0.445-1.615 1.93-2.811 3.712-2.811s3.268 1.192 3.713 2.811h8.88v-2.859h-19.385v2.859zM31.984 15.029h-6.23c-0.304 0-0.553-0.243-0.553-0.545v-3.671c0-0.3 0.247-0.543 0.553-0.543h5.473c-1.345-3.411-4.045-2.836-4.813-2.854h-4.588c-0.8 0-1.446 0.637-1.446 1.423v11.466c0 0.021 0.012 0.039 0.014 0.062h0.711v1.147c0.127 0.072 0.265 0.127 0.408 0.166 0.454-1.6 1.932-2.783 3.704-2.783 1.791 0 3.283 1.207 3.722 2.834h1.617c0.799 0 1.445-0.641 1.445-1.424v-4.845c-0.001-0.157-0.013-0.286-0.017-0.433zM18.434 8.372h-4.844v-1.921h-0.973v1.921h-5.813v-1.921h-0.976v1.921h-4.844v-1.921h-0.971v11.465h0.972v-0.031h4.844v0.031h0.975v-0.031h5.813v0.031h0.973v-0.031h4.846v0.031h0.973v-11.465h-0.973v1.921h-0.002zM5.828 15.977h-4.844v-1.877h4.844v1.877zM5.828 12.191h-4.844v-1.911h4.844v1.911zM12.617 15.977h-5.813v-1.877h5.813v1.877zM12.617 12.191h-5.813v-1.911h5.813v1.911zM18.434 15.977h-4.844v-1.877h4.844v1.877zM18.434 12.191h-4.844v-1.911h4.844v1.911zM25.218 19.787c-1.616 0-2.927 1.289-2.927 2.881s1.311 2.881 2.927 2.881c1.615 0 2.927-1.289 2.927-2.881 0-1.59-1.312-2.881-2.927-2.881zM25.209 23.703c-0.578 0-1.050-0.463-1.050-1.033s0.472-1.033 1.050-1.033c0.58 0 1.049 0.463 1.049 1.033s-0.469 1.033-1.049 1.033z"></path>
</symbol>
<symbol id="icon-14" viewBox="0 0 32 32">
<title>14</title>
<path class="path1" d="M6.794 19.79c-1.616 0-2.926 1.292-2.926 2.881 0 1.594 1.31 2.883 2.926 2.883s2.927-1.289 2.927-2.883c0-1.589-1.311-2.881-2.927-2.881zM6.785 23.707c-0.579 0-1.049-0.462-1.049-1.034 0-0.569 0.47-1.032 1.049-1.032 0.58 0 1.050 0.463 1.050 1.032 0 0.572-0.47 1.034-1.050 1.034zM0 21.711h3.079c0.445-1.614 1.931-2.812 3.712-2.812 1.783 0 3.268 1.194 3.712 2.812h8.881v-2.824h-19.384v2.824zM19.384 6.446h-19.38v11.466h19.381l-0.001-11.466zM31.987 15.032h-6.233c-0.304 0-0.553-0.243-0.553-0.544v-3.672c0-0.301 0.247-0.543 0.553-0.543h5.473c-1.346-3.411-4.047-2.835-4.815-2.854h-4.588c-0.796 0-1.446 0.636-1.446 1.423v11.468c0 0.021 0.012 0.038 0.012 0.059h0.714v1.149c0.127 0.073 0.264 0.128 0.407 0.166 0.454-1.6 1.932-2.783 3.704-2.783 1.791 0 3.284 1.206 3.72 2.835h1.62c0.799 0 1.446-0.641 1.446-1.425v-4.845c0-0.156-0.012-0.285-0.014-0.434zM25.218 19.79c-1.616 0-2.927 1.292-2.927 2.881 0 1.594 1.311 2.883 2.927 2.883 1.617 0 2.928-1.289 2.928-2.883-0.003-1.589-1.311-2.881-2.928-2.881zM25.21 23.707c-0.581 0-1.052-0.462-1.052-1.034 0-0.569 0.471-1.032 1.052-1.032 0.579 0 1.049 0.463 1.049 1.032-0.002 0.572-0.47 1.034-1.049 1.034z"></path>
</symbol>
<symbol id="icon-15" viewBox="0 0 32 32">
<title>15</title>
<path class="path1" d="M13.215 26.969c-0.736-1.161-6.003-4.37-6.589-8.127-0.258-1.659 1.516-2.861 5.645-4.044 8.765-2.511 6.205-4.398 6.205-4.398h0.686c0 0 1.806 1.646-1.186 3.229-2.371 1.252-7.369 2.273-8.447 4.618-0.481 1.047 0.62 2.814 10.102 9.081 0.529 0.35 0.946 0.803 1.18 1.089l11.189-0.008c0 0-1.214-0.961-4.914-2.654-4.053-1.855-11.108-4.571-10.616-7.433 0.542-3.156 8.586-2.881 7.893-6.755-0.233-1.301-2.25-2.54-3.385-2.898-1.467-0.463-2.062-1.071-2.3-1.506h3.885l-10.559-3.591-2.737 3.592h4.541c0.098 0.247 0.349 0.569 0.945 0.967 2.628 1.756 2.467 3.335-3.635 4.064-6.21 0.743-15.706 4.926-8.577 11.623 2.058 1.935 1.775 2.358 2.534 4.609l8.978-0.006c-0.191-0.515-0.484-0.893-0.838-1.452z"></path>
</symbol>
<symbol id="icon-16" viewBox="0 0 32 32">
<title>16</title>
<path class="path1" d="M11.424 7.267h0.129c0.235-2.237 2.123-3.987 4.447-3.987 2.323 0 4.213 1.75 4.449 3.985h0.13l1.642 5.121c0.994-1.296 1.59-2.907 1.59-4.661 0-4.266-3.497-7.725-7.811-7.725s-7.812 3.46-7.812 7.727c0 1.754 0.597 3.366 1.593 4.662l1.643-5.122zM26.694 14.385h-6.134l-1.508-5.551h-6.104l-1.508 5.551h-6.132l-4.371 17.615h30.127l-4.37-17.615zM21.593 20.987h-4.461v6.623h-2.237v-6.623h-4.468v-2.229h11.164v2.229h0.002z"></path>
</symbol>
<symbol id="icon-17" viewBox="0 0 32 32">
<title>17</title>
<path class="path1" d="M22.55 9.104v19.868l9.45-5.322v-19.798l-9.45 5.252zM0 29.467l21.359 0.023v-19.933l-21.359 0.015v19.895zM8.023 11.903l5.36-0.017c0.578-0.008 1.049 0.511 1.049 1.157s-0.47 1.177-1.049 1.182l-5.36 0.018c-0.579 0.007-1.049-0.51-1.049-1.156s0.47-1.177 1.049-1.184zM30.18 2.539l-19.93-0.029-10.234 5.858 19.931 0.028 10.233-5.857z"></path>
</symbol>
<symbol id="icon-18" viewBox="0 0 32 32">
<title>18</title>
<path class="path1" d="M21.682 2.213h-15.491v13.284h15.491v-13.284zM16.308 6.287l-4.669 0.015c-0.505 0.006-0.914-0.445-0.914-1.008s0.409-1.026 0.913-1.032l4.669-0.014c0.504-0.007 0.915 0.445 0.915 1.008s-0.41 1.023-0.914 1.031zM0 29.787h15.491v-13.284h-15.491v13.284zM5.446 18.552l4.669-0.015c0.504-0.006 0.913 0.446 0.913 1.008 0 0.563-0.408 1.024-0.913 1.032l-4.669 0.015c-0.504 0.007-0.913-0.445-0.913-1.008s0.409-1.026 0.913-1.032zM16.51 16.503v13.284h15.49v-13.284h-15.49zM26.626 20.577l-4.668 0.015c-0.505 0.007-0.916-0.445-0.916-1.008s0.41-1.026 0.916-1.032l4.668-0.015c0.504-0.006 0.914 0.446 0.914 1.008 0 0.563-0.41 1.024-0.914 1.032z"></path>
</symbol>
<symbol id="icon-19" viewBox="0 0 32 32">
<title>19</title>
<path class="path1" d="M16 20.921l-10.908-14.49h-5.092l16 21.248 16-21.248h-5.094z"></path>
</symbol>
<symbol id="icon-20" viewBox="0 0 32 32">
<title>20</title>
<path class="path1" d="M15.998 0c-8.834 0-15.998 7.166-15.998 16.002 0 8.833 7.164 15.998 15.998 15.998s16.002-7.165 16.002-15.998c0-8.838-7.167-16.002-16.002-16.002zM24.955 17.792h-7.167v7.165h-3.582v-7.165h-7.164v-3.583h7.166v-7.164h3.583v7.166h7.165v3.581h-0.001z"></path>
</symbol>
<symbol id="icon-21" viewBox="0 0 32 32">
<title>21</title>
<path class="path1" d="M12.859 23.682h6.265v-12.503h7.248l-10.347-11.179-10.347 11.179h7.182l-0.001 12.503zM2.362 27.834v4.166h27.312v-4.166h-27.312z"></path>
</symbol>
<symbol id="icon-22" viewBox="0 0 32 32">
<title>22</title>
<path class="path1" d="M31.291 27.81l-5.958-5.956c3.75-5.418 3.234-12.896-1.592-17.719-5.429-5.432-14.237-5.432-19.667 0-5.432 5.431-5.432 14.24 0 19.669 4.867 4.865 12.424 5.335 17.854 1.484l5.945 5.944c0.945 0.943 2.476 0.943 3.418 0 0.945-0.945 0.945-2.475 0-3.422zM6.595 21.282c-4.042-4.038-4.042-10.585 0-14.624 4.039-4.042 10.586-4.042 14.625 0 4.040 4.039 4.040 10.586 0 14.624-4.041 4.041-10.586 4.038-14.625 0z"></path>
</symbol>
<symbol id="icon-23" viewBox="0 0 32 32">
<title>23</title>
<path class="path1" d="M15.998 0c-8.835 0-15.998 7.164-15.998 16s7.163 16 15.998 16c8.837 0 16.002-7.164 16.002-16s-7.165-16-16.002-16zM15.937 22.748v-4.723h-9.061v-4.36h9.061v-4.72l9.686 6.901-9.686 6.902z"></path>
</symbol>
<symbol id="icon-24" viewBox="0 0 32 32">
<title>24</title>
<path class="path1" d="M19.367 20.523h0.229c0.954 0.029 1.879-0.797 1.957-1.172l0.022-0.147c0.001-0.005 0.005-0.011 0.006-0.015 0.369-1.849 0.802-4.099 1.219-6.188 0.085-0.263 0.11-0.477 0.115-0.671l0.010-0.065c0.082-0.507-0.425-1.137-0.999-1.108h-0.764l0.001-0.006h-16.851c-0.542 0-0.99 0.213-1.339 0.476-0.010-0.004-0.020-0.008-0.020-0.008s-0.211 0.167-0.466 0.466c-0.039 0.045-0.075 0.086-0.108 0.128-0.003 0.004-0.006 0.008-0.010 0.012-0.171 0.219-0.267 0.388-0.267 0.388h0.005c-0.213 0.351-0.406 0.786-0.491 1.304 0 0 0.714-1.218 2.245-1.278 0.104-0.004 0.186-0.014 0.255-0.026h16.499l-0.383 1.936h-16.313c-0.75 0-1.34 0.352-1.771 0.735l-0.003-0.001c0 0-0.034 0.029-0.080 0.072-0.47 0.442-0.722 0.901-0.722 0.901h0.004c-0.237 0.396-0.455 0.899-0.533 1.503 0 0 0.712-1.312 2.321-1.426 0.262-0.018 0.527-0.070 0.729-0.074 0.006 0 0.007-0.002 0.012-0.003h16.019l-0.443 2.239h-16.16c-1.213 0.104-1.94 0.755-2.349 1.294-0.154 0.17-0.926 1.091-0.954 2.437 0 0 0.528-1.31 2.013-1.574 0.217-0.037 0.451-0.084 0.618-0.115l16.747-0.014zM5.026 7.757h1.458l-0.522 2.294h2.751l0.522-2.294h0.625c1.823 0 2.172-1.208 2.172-1.208l0.58-2.616h-2.3l-0.322 1.394c-0.26 1.141-1.639 0.939-1.639 0.939h-2.382c-0.888 0-1.525 0.264-1.98 0.569-0.001 0-0.007-0.002-0.007-0.002s-0.046 0.034-0.11 0.084c-0.544 0.402-0.78 0.84-0.78 0.84h0.006c-0.234 0.338-0.453 0.763-0.567 1.278 0 0 0.983-1.19 2.495-1.278zM22.258 21.188c-1.895 0-3.662 1.352-3.955 3.017-0.291 1.666 1.008 3.017 2.901 3.017s3.664-1.351 3.955-3.017c0.292-1.667-1.009-3.017-2.901-3.017zM23.289 24.204c-0.133 0.758-0.938 1.371-1.798 1.371-0.859 0-1.449-0.613-1.317-1.371 0.131-0.757 0.936-1.37 1.797-1.37 0.86 0 1.45 0.613 1.318 1.37zM15.291 10.028h8.068l0.42-1.621h-6.813c0 0-0.828 0.129-0.507-0.823l0.188-0.974h7.359l0.401-1.545h-7.464l0.227-1.167h-2.19l-1.017 4.672c0 0-0.113 1.458 1.328 1.458zM25.323 7.625l-2.446 12.551c1.83 0.158 3.158 1.271 3.448 2.784h4.034l1.553-8.154c0.915-7.887-6.589-7.181-6.589-7.181zM28.956 21.236h-1.404c-0.661-1.148-1.677-1.83-2.721-2.223l1.942-9.609c0 0 3.539 0.31 3.609 3.723 0.028 1.273-1.426 8.109-1.426 8.109zM7.216 21.188c-1.893 0-3.663 1.352-3.955 3.017-0.291 1.666 1.008 3.017 2.901 3.017s3.665-1.351 3.956-3.017-1.008-3.017-2.902-3.017zM8.249 24.204c-0.132 0.758-0.937 1.371-1.797 1.371s-1.45-0.613-1.318-1.371c0.132-0.757 0.937-1.37 1.798-1.37 0.858 0 1.449 0.613 1.317 1.37z"></path>
</symbol>
<symbol id="icon-25" viewBox="0 0 32 32">
<title>25</title>
<path class="path1" d="M32 12.801h-12.756v-12.801h-6.275v12.801h-12.969v6.4h12.969v12.799h6.275v-12.799h12.756z"></path>
</symbol>
<symbol id="icon-26" viewBox="0 0 32 32">
<title>26</title>
<path class="path1"  d="M14.911 9.138c3.314 0 5.443 1.538 6.977 3.897h3.35c-1.551-3.504-5.479-6.026-10.335-6.026s-9.186 2.522-10.917 6.026h3.501c1.544-2.36 4.111-3.897 7.424-3.897zM26.077 13.9h-22.453c-0.060 0.168-0.124 0.335-0.171 0.508-2.129 0.845-3.453 2.61-3.453 4.669 0 1.335 0.569 2.537 1.534 3.459 0.621 0 1.369 0 2.201 0 0.505 1.426 1.856 2.455 3.461 2.455s2.955-1.029 3.461-2.455c3.792 0 8.053 0 10.81 0 0.505 1.426 1.855 2.455 3.459 2.455s2.955-1.029 3.461-2.455c0.899 0 1.619 0 2.080 0 0.966-0.922 1.533-2.124 1.533-3.459-0.001-2.77-2.385-5.014-5.923-5.177zM7.194 23.538c-1.229 0-2.224-0.995-2.224-2.218 0-1.225 0.995-2.217 2.224-2.217s2.225 0.992 2.225 2.217c-0.001 1.223-0.997 2.218-2.225 2.218zM24.924 23.538c-1.228 0-2.223-0.995-2.223-2.218 0-1.225 0.995-2.217 2.223-2.217 1.229 0 2.224 0.992 2.224 2.217 0.002 1.223-0.995 2.218-2.224 2.218z"></path>
</symbol>
<symbol id="icon-27" viewBox="0 0 32 32">
<title>27</title>
<path class="path1"  d="M16.723 0.489c-0.114-0.309-0.411-0.496-0.725-0.489-0.314-0.009-0.613 0.178-0.725 0.488l-4.576 10.118h10.602l-4.576-10.117zM22 12.16h-12.005l-3.771 8.336h19.546l-3.77-8.336zM30.57 30.365h-29.139c-0.453 0-0.819 0.366-0.819 0.818s0.367 0.817 0.819 0.817h29.139c0.451 0 0.818-0.364 0.818-0.816s-0.367-0.819-0.818-0.819zM28.842 29.242c0 0 0.59-0.569 0.449-0.957l-2.805-6.203h-20.977l-2.805 6.203c-0.141 0.388 0.449 0.957 0.449 0.957h25.689z"></path>
</symbol>
<symbol id="icon-28" viewBox="0 0 32 32">
<title>28</title>
<path class="path1"  d="M24.828 0h-17.656c-1.477 0-2.675 1.195-2.675 2.666v26.669c0 1.472 1.198 2.665 2.675 2.665h17.656c1.479 0 2.676-1.195 2.676-2.665v-26.668c0-1.472-1.197-2.667-2.676-2.667zM14.062 1.334h3.878c0.258 0 0.471 0.209 0.471 0.468 0 0.256-0.213 0.466-0.471 0.466h-3.878c-0.259 0-0.468-0.21-0.468-0.466 0-0.259 0.209-0.468 0.468-0.468zM16.001 31.069c-0.886 0-1.605-0.716-1.605-1.601s0.719-1.601 1.605-1.601 1.604 0.717 1.604 1.601c0 0.886-0.718 1.601-1.604 1.601zM25.162 25.069c0 0.883-0.719 1.601-1.605 1.601h-15.114c-0.887 0-1.605-0.718-1.605-1.601v-20.135c0-0.883 0.719-1.6 1.605-1.6h15.115c0.885 0 1.604 0.717 1.604 1.6v20.135z"></path>
</symbol>
<symbol id="icon-29" viewBox="0 0 32 32">
<title>29</title>
<path class="path1"  d="M32 9.489l-2.944-2.932-13.057 13.012-13.059-13.012-2.94 2.932 13.058 13.017-0.008 0.008 2.941 2.929 0.008-0.007 0.007 0.007 2.943-2.929-0.008-0.008z"></path>
</symbol>
<symbol id="icon-30" viewBox="0 0 32 32">
<title>30</title>
<path class="path1"  d="M3.993 16.959c-0.904 0.226-1.67-0.529-2.621-0.266 0.395-0.649 0.789-1.299 1.184-1.949 0.084-0.029 0.169-0.059 0.254-0.088 0.367 0.502 0.732 1.004 1.1 1.506 0.367-0.029 0.733-0.060 1.1-0.089 1.187-1.906-1.675-3.549-3.097-2.873-2.059 0.739-2.778 3.961-0.54 5.353 1.981 1.232 4.112-0.602 4.143-2.48-0.508 0.295-1.016 0.592-1.523 0.886z"></path>
<path class="path2"  d="M8.585 13.566c-0.116-0.026-0.23-0.049-0.345-0.074-0.275 0.157-0.551 0.313-0.826 0.469 0.401-0.061 0.803-0.12 1.205-0.18-0.011-0.072-0.023-0.144-0.034-0.215zM19.912 15.117c0.012-0.013 0.022-0.024 0.034-0.037 0.012 0.3 0.023 0.602 0.035 0.902 0.021 0.023 0.045 0.048 0.068 0.072 0.19 0.237 0.378-0.060 0.62 0.036 0.137 0.156 0.273 0.313 0.411 0.469 0.128-0.035 0.253-0.071 0.379-0.107v-1.552c-0.058-0.061-0.114-0.121-0.171-0.181-0.331-0.104-0.837 0.005-1.067 0 0.046-0.084 0.092-0.168 0.138-0.252-0.115-0.036-0.229-0.072-0.345-0.108v-0.036c0.192-0.086 0.411-0.176 0.655-0.107-0.069 0.12-0.14 0.24-0.208 0.36h0.035c0.167 0.060 0.443-0.097 0.584-0.181-0.045-0.084-0.090-0.169-0.138-0.253 0.207-0.035 0.413-0.071 0.619-0.107v-0.072c-0.223-0.157-0.886-0.21-1.204-0.325-0.178 0.329-0.471 0.416-0.93 0.434-0.035 0.023-0.067 0.048-0.104 0.071 0.063 0.28 0.149 0.272 0.482 0.253 0.023 0.228 0.049 0.246 0.206 0.324v0.072c-0.471 0.297-0.616 0.651-0.516 1.443l0.105 0.145c0.312-0.115 0.199-0.966 0.312-1.263zM20.291 14.9c0.080-0.012 0.161-0.024 0.239-0.036-0.046 0.156-0.091 0.313-0.138 0.468l0.447-0.179-0.104-0.397c0.012-0.012 0.023-0.025 0.034-0.037 0.067 0.012 0.139 0.024 0.207 0.037 0.198 0.149 0.118 0.987 0.104 1.334-0.012 0.012-0.022 0.024-0.035 0.036h-0.067c-0.067-0.036-0.139-0.072-0.207-0.108 0.080-0.167 0.161-0.336 0.241-0.505-0.021-0.035-0.047-0.072-0.069-0.107-0.23 0.012-0.459 0.024-0.689 0.036-0.021 0.023-0.045 0.049-0.067 0.072 0.013 0.036 0.022 0.072 0.034 0.108 0.113-0.012 0.229-0.024 0.344-0.036 0.013 0.036 0.022 0.072 0.035 0.107-0.058 0.062-0.115 0.121-0.172 0.181-0.115-0.035-0.23-0.071-0.345-0.107-0.012-0.012-0.022-0.024-0.034-0.036 0.059-0.406 0.205-0.516 0.242-0.831zM9.961 16.703c0.286-0.146 0.424-0.495 0.517-0.829 0.161-0.023 0.321-0.048 0.482-0.071-0.045 0.229-0.091 0.457-0.138 0.686 0.579-0.129 0.444-0.849 0.896-1.118-0.034-0.107-0.068-0.216-0.104-0.325-0.422-0.058-0.376 0.099-0.654 0.398-0.045 0.012-0.091 0.023-0.138 0.036-0.011-0.013-0.022-0.024-0.034-0.036-0.011-0.036-0.023-0.072-0.034-0.109 0.112-0.331 0.357-0.58 0.62-0.757-0.084-0.44-0.139-0.459 0.275-0.648-0.013-0.062-0.023-0.121-0.035-0.181-0.421-0.090-0.727 0.031-0.999 0.181v0.181h0.448c0.023 0.012 0.046 0.023 0.068 0.035v0.073c-0.171 0.121-0.344 0.24-0.516 0.36 0.106 0.669-0.424 1.278-0.689 1.948 0.012 0.056 0.024 0.117 0.035 0.176zM14.404 15.296c-0.168 0.065-0.122 0.106-0.275 0.035 0.172-0.12 0.344-0.24 0.516-0.359v-0.36c-0.363 0.159-0.431 0.487-0.896 0.542 0.004-0.799 0.584-0.475 0.964-0.831 0.072-0.114 0.050-0.119 0.035-0.288-0.098-0.050-0.757 0.036-0.757 0.036-0.12-0.209 0.098-0.226-0.171-0.36-0.035 0.012-0.070 0.023-0.104 0.036-0.023 0.145-0.045 0.289-0.069 0.433-0.034 0.048-0.069 0.097-0.103 0.145-0.251-0.044-0.204-0.116-0.31-0.288-0.034 0.012-0.069 0.024-0.104 0.036-0.129 0.285-0.204 0.539-0.068 0.83 0.265-0.083 0.312-0.264 0.516-0.398-0.161 0.454-0.547 0.726-0.585 1.263 0.034 0.036 0.068 0.072 0.104 0.107 0.197-0.085 0.204-0.229 0.31-0.396-0.011 0.336-0.023 0.672-0.034 1.010 0.034 0.036 0.069 0.071 0.104 0.108 0.378-0.112 0.707-0.486 0.792-0.903 0.331 0.096 0.516 0.251 0.689 0.506 0.158-0.040 0.095 0.002 0.172-0.108-0.181-0.344-0.618-0.406-0.726-0.796zM14.024 14.142c0.069 0.014 0.138 0.024 0.207 0.037-0.046 0.048-0.092 0.097-0.137 0.145-0.047-0.013-0.094-0.024-0.138-0.036 0.023-0.049 0.044-0.098 0.068-0.146zM13.783 16.090c-0.035 0.012-0.069 0.024-0.103 0.036v-0.505c0.057-0.062 0.115-0.121 0.171-0.181 0.070 0.012 0.138 0.023 0.207 0.037 0.023 0.023 0.046 0.048 0.069 0.071-0.076 0.277-0.185 0.367-0.344 0.542zM16.503 15.043c-0.088 0.391-0.334 0.495-0.482 0.83 0.023 0.062 0.046 0.121 0.069 0.181 0.011 0.036 0.022 0.072 0.034 0.108 0.081-0.048 0.161-0.096 0.241-0.146 0.125 0.089 0.15 0.203 0.173 0.398 0.045 0.012 0.092 0.024 0.138 0.036h0.035c0.069-0.439 0.063-0.934 0.207-1.264 0.237 0.077 0.655-0.369 0.929-0.18v1.082c-0.281-0.056-0.414-0.196-0.585-0.36-0.012-0.012-0.022-0.023-0.034-0.037v-0.107c0.153-0.025 0.177-0.006 0.275 0.107 0.081-0.023 0.16-0.048 0.24-0.071-0.022-0.084-0.047-0.169-0.068-0.253-0.297-0.061-0.378 0.032-0.551 0.18 0.177 0.611 0.419 0.664 0.825 1.083 0.035 0.013 0.068 0.023 0.104 0.037 0.040-0.437-0.137-1.182 0-1.588 0.077-0.228 0.259-0.118 0.31-0.469-0.090-0.013-0.184-0.024-0.274-0.036v-0.722c-0.012-0.036-0.021-0.071-0.034-0.107-0.115 0.061-0.23 0.12-0.345 0.181 0.072 0.087 0.095 0.092 0.206 0.145-0.012 0.18-0.021 0.36-0.033 0.541-0.352 0.176-0.69 0.367-0.999 0.505 0.060-0.413-0.007-0.905-0.207-1.155-0.112 0.168-0.185 0.299-0.207 0.577-0.209 0.137-0.4 0.223-0.757 0.217v0.107c0.257 0.214 0.439 0.333 0.79 0.18zM28.657 16.018c-0.202-0.224-0.53-0.568-0.759-0.54-0.011-0.024-0.021-0.048-0.033-0.072 0.206-0.145 0.414-0.288 0.619-0.433v-0.146c-0.264-0.062-0.634 0.441-0.931 0.613v0.037c0.059 0.048 0.115 0.096 0.174 0.145-0.068 0.227-0.188 0.276-0.311 0.433h-0.068c-0.193-0.446 0.011-1.013 0.446-0.938-0.013-0.43-0.009-0.919 0.173-1.155-0.093-0.184-0.134-0.194-0.414-0.18 0.047 0.061 0.094 0.12 0.139 0.18-0.013 0.108-0.022 0.217-0.033 0.325v0.107h-0.035c-0.093-0.072-0.185-0.145-0.274-0.217-0.059-0.012-0.116-0.023-0.173-0.037 0.020 0.253-0.023 0.555-0.070 0.86 0.012-0.009 0.023-0.019 0.035-0.029-0.010 0.052-0.037 0.105-0.056 0.16-0.080 0.502-0.154 0.996 0.022 1.284 0.021 0.048 0.045 0.096 0.067 0.144 0.342-0.114 0.535-0.414 0.723-0.686 0.257-0.006 0.341 0.189 0.481 0.397 0.069-0.036 0.139-0.072 0.208-0.107 0.023-0.048 0.047-0.096 0.070-0.145zM31.479 14.178c-0.021-0.061-0.045-0.12-0.068-0.181-0.142-0.111-0.224-0.171-0.48-0.18 0.070 0.34 0.056 0.406 0 0.758 0.172-0.189 0.289-0.284 0.548-0.397zM29.38 15.441c0.011 0.072 0.022 0.145 0.034 0.217 0.206 0.022 0.297-0.092 0.481-0.181-0.012 0.204-0.022 0.409-0.034 0.612 0.034 0.024 0.067 0.048 0.104 0.072 0.208-0.25 0.613-1.055 0.516-1.444-0.147 0.113-0.151-0.049-0.344-0.181 0.081-0.107 0.159-0.217 0.239-0.324-0.010-0.060-0.021-0.121-0.033-0.181-0.119-0.102-0.139-0.147-0.345-0.181-0.147 0.472-0.54 0.523-0.344 0.974l0.24-0.035c-0.094 0.288-0.303 0.489-0.514 0.652zM30.069 15.225c0.068-0.071 0.138-0.145 0.206-0.217 0.049 0.097-0.021 0.139-0.104 0.289-0.033 0.012-0.068 0.023-0.104 0.035v-0.107h0.002zM23.321 15.332c0.011 0.229 0.021 0.458 0.033 0.686-0.114 0.049-0.229 0.098-0.346 0.146 0.023 0.061 0.048 0.12 0.070 0.181 0.417 0.105 1.067-0.062 1.376-0.217 0.014-0.012 0.023-0.024 0.035-0.036-0.090-0.146-0.213-0.189-0.379-0.252 0.12-0.448 0.507-0.439 0.653-0.866-0.161-0.151-0.319-0.196-0.653-0.181 0.021-0.383 0.18-0.515 0.172-0.83-0.022-0.023-0.045-0.048-0.068-0.072h-0.311v0.037c0.143 0.446 0.021 0.926 0 1.443-0.045 0.036-0.093 0.072-0.138 0.108-0.046-0.024-0.093-0.048-0.138-0.072 0.045-0.145 0.092-0.288 0.138-0.433-0.059 0.013-0.115 0.023-0.173 0.036 0.013-0.181 0.023-0.36 0.035-0.541-0.163-0.123-0.231-0.206-0.518-0.217 0.102 0.257 0.179 0.45 0.173 0.83-0.26 0.123-0.526 0.092-0.826 0.037v0.036c0.045 0.155 0.092 0.312 0.138 0.469 0.305 0.048 0.479-0.174 0.727-0.292zM24.18 14.864h0.208l-0.035 0.108c-0.045 0.036-0.092 0.071-0.138 0.107-0.035 0.012-0.068 0.023-0.104 0.037h-0.034l0.103-0.252zM9.033 14.827c-0.035-0.131-0.069-0.264-0.104-0.396h-0.517v-0.036c0.252-0.072 0.505-0.145 0.757-0.217 0.011-0.023 0.023-0.048 0.034-0.071-0.178-0.148-0.711-0.129-0.999-0.146-0.395 0.265-1.131 0.31-1.617 0.471v0.036c0.518 0.204 0.989-0.041 1.481-0.181 0.011 0.048 0.022 0.096 0.034 0.145 0.023 0.012 0.045 0.023 0.068 0.036v0.035c-0.125 0.073-0.252 0.145-0.378 0.217h0.344c0.011 0.037 0.023 0.072 0.034 0.107-0.068 0.024-0.138 0.048-0.207 0.073-0.199-0.081-0.272-0.191-0.345-0.398h-0.17v0.037c0.077 0.324 0.197 0.627 0.138 0.974 0.023 0.048 0.046 0.097 0.069 0.146 0.125-0.024 0.252-0.048 0.378-0.072 0.012 0.024 0.023 0.048 0.035 0.072-0.103 0.035-0.207 0.071-0.31 0.107-0.030 0.202 0.032 0.22 0.138 0.36-0.104 0.084-0.207 0.169-0.311 0.252 0.023 0.12 0.046 0.242 0.069 0.36 0.328-0.135 0.554-0.263 1.033-0.252 0.011-0.036 0.022-0.072 0.034-0.108-0.081-0.071-0.161-0.145-0.241-0.216l0.171-0.253c-0.073-0.184-0.146-0.21-0.275-0.324v-0.072c0.148-0.061 0.298-0.12 0.448-0.181-0.056-0.247 0.049-0.384 0.209-0.505zM8.137 15.225c-0.057 0.024-0.114 0.048-0.171 0.072-0.011-0.013-0.023-0.024-0.035-0.036 0.034-0.061 0.069-0.121 0.103-0.181 0.035 0.012 0.070 0.023 0.104 0.037l-0.001 0.108zM8.481 15.080c-0.034-0.012-0.069-0.024-0.104-0.036 0.122-0.149 0.067-0.147 0.034-0.397 0.045-0.035 0.092-0.071 0.138-0.107h0.171c0.011 0.012 0.023 0.024 0.034 0.036-0.089 0.168-0.18 0.335-0.273 0.504zM25.662 15.405c0.536-0.15 0.453-1.018 0.859-1.154-0.047-0.183-0.041-0.22-0.206-0.289-0.212 0.462-0.411 0.8-0.792 1.082v0.253c0.086 0.095 0.055 0.083 0.139 0.108zM26.694 15.332c0.012-0.215 0.022-0.432 0.035-0.648 0.053-0.147 0.23-0.173 0.31-0.36-0.080-0.12-0.16-0.24-0.241-0.36h-0.207c0.047 0.193 0.092 0.385 0.139 0.577-0.243 0.014-0.294 0.061-0.447 0.145-0.012 0.013-0.022 0.024-0.034 0.036 0.080 0.061 0.161 0.121 0.24 0.181-0.077 0.159-0.12 0.183-0.24 0.288 0.058 0.062 0.114 0.121 0.173 0.181-0.158 0.226-0.334 0.388-0.346 0.758 0.046 0.048 0.093 0.097 0.138 0.145 0.326-0.201 0.725-0.686 0.874-1.138 0.007-0.043 0.014-0.087 0.020-0.131-0.14 0.106-0.277 0.217-0.414 0.326zM31.824 14.936h0.035c-0.013-0.084-0.023-0.168-0.035-0.253-0.092-0.048-0.184-0.097-0.274-0.145-0.32 0.157-0.643 0.313-0.965 0.469-0.012 0.013-0.022 0.024-0.034 0.036l0.034 0.109c0.296-0.008 0.753-0.308 1.239-0.216zM30.585 16.126c0.116 0.18 0.414 0.281 0.688 0.289 0.012-0.013 0.023-0.023 0.034-0.037v-1.191c-0.080-0.035-0.159-0.071-0.24-0.107 0.061 0.283 0.093 0.642 0 0.902-0.127 0.106-0.243 0.145-0.482 0.144zM11.855 16.523c0.034 0.013 0.069 0.022 0.104 0.035 0.023-0.022 0.045-0.048 0.068-0.071-0.029-0.402-0.162-0.622-0.448-0.758 0.092 0.266 0.184 0.529 0.276 0.794zM7.414 18.219c-0.022-0.024-0.045-0.049-0.069-0.072v-0.722c0.085-0.051 0.117-0.063 0.275-0.071 0.045 0.071 0.091 0.144 0.138 0.216v-0.29h-0.344l-0.345 0.289c-0.016 0.346 0.044 0.43 0.207 0.649 0.172 0.012 0.344 0.022 0.517 0.035-0.012-0.097-0.023-0.191-0.034-0.288-0.093 0.17-0.109 0.223-0.345 0.254zM9.204 17.28c-0.201 0.122-0.444 0.302-0.311 0.648 0.058 0.098 0.115 0.194 0.172 0.29l0.344 0.035c-0.068-0.013-0.138-0.023-0.207-0.035-0.084-0.218-0.077-0.6-0.034-0.865 0.057-0.013 0.115-0.024 0.172-0.036 0.011 0.012 0.023 0.023 0.034 0.036 0.083 0.23 0.084 0.599 0 0.828 0.012 0.013 0.023 0.023 0.035 0.037 0.124-0.058 0.104-0.033 0.171-0.146 0.115-0.092 0.177-0.254 0.104-0.433-0.064-0.251-0.183-0.346-0.48-0.359zM11.202 18.146c-0.011 0.023-0.023 0.048-0.035 0.072h0.172c0.057-0.121 0.115-0.241 0.171-0.36h-0.413c0.079 0.106 0.089 0.087 0.105 0.288zM10.995 17.462v-0.108c0.045-0.013 0.091-0.024 0.137-0.036 0.093 0.096 0.184 0.191 0.275 0.288 0.013-0.097 0.024-0.192 0.035-0.288-0.137-0.012-0.275-0.024-0.413-0.037-0.104 0.073-0.207 0.145-0.31 0.217-0.012 0.156-0.023 0.314-0.035 0.469 0.068 0.085 0.138 0.169 0.207 0.253h0.241c-0.206-0.079-0.25-0.509-0.137-0.758zM12.234 17.354c-0.114-0.024-0.229-0.048-0.344-0.073-0.191 0.145-0.258 0.209-0.345 0.47 0.088 0.35 0.254 0.459 0.414 0.722 0.137 0.012 0.275 0.023 0.414 0.036v-0.036c-0.081-0.023-0.161-0.049-0.241-0.071 0.096-0.342 0.275-0.325 0.275-0.83-0.058-0.075-0.115-0.147-0.173-0.218zM12.062 18.219h-0.070c-0.185-0.129-0.159-0.502-0.137-0.831 0.034-0.022 0.069-0.047 0.104-0.070 0.058 0.023 0.114 0.048 0.172 0.070-0.023 0.278-0.046 0.554-0.069 0.831zM14.127 17.462c0.212-0.193 0.304-0.099 0.448 0.145 0.011-0.098 0.023-0.191 0.034-0.288-0.138-0.013-0.275-0.025-0.414-0.037-0.104 0.073-0.207 0.146-0.311 0.218-0.011 0.155-0.022 0.313-0.034 0.469 0.070 0.085 0.138 0.169 0.207 0.253h0.241c-0.233-0.097-0.194-0.424-0.171-0.76zM14.368 18.146c-0.011 0.023-0.022 0.048-0.034 0.072h0.172c0.057-0.121 0.114-0.241 0.172-0.36h-0.413c0.078 0.106 0.087 0.087 0.103 0.288zM18.844 18.182c-0.004-0.292-0.031-0.685 0.068-0.864h-0.412c0.094 0.182 0.081 0.572 0.069 0.864h-0.105c-0.091-0.3-0.183-0.6-0.273-0.901h-0.104c-0.104 0.281-0.189 0.74-0.413 0.901-0.025-0.228-0.044-0.308-0.207-0.396 0.107-0.097 0.145-0.098 0.207-0.253-0.14-0.301-0.677-0.243-1.103-0.216 0.118 0.164 0.12 0.479 0.104 0.793-0.011 0.014-0.021 0.023-0.033 0.036-0.081 0.012-0.162 0.024-0.242 0.036-0.064-0.224-0.059-0.694 0.035-0.865h-0.448c0.131 0.168 0.089 0.569 0.138 0.829 0.129 0.077 0.214 0.11 0.447 0.106 0.046-0.035 0.093-0.070 0.139-0.106 0.011-0.252 0.022-0.505 0.034-0.758 0.011-0.012 0.023-0.023 0.033-0.035h0.173c0.009 0.319 0.037 0.702-0.104 0.864h0.446c-0.096-0.113-0.111-0.188-0.102-0.433h0.138l0.103 0.397c0.124 0.057 0.324 0.104 0.481 0.035-0.033-0.012-0.068-0.023-0.103-0.035 0.063-0.188 0.044-0.195 0.274-0.218h0.034c0.029 0.175 0.035 0.143 0 0.253 0.366 0.013 0.733 0.023 1.103 0.035-0.013-0.096-0.022-0.19-0.035-0.288-0.091 0.164-0.105 0.198-0.342 0.219zM17.363 17.713c-0.045 0.013-0.091 0.023-0.138 0.035-0.012-0.131-0.022-0.264-0.033-0.396h0.171c0.012 0.012 0.022 0.023 0.035 0.035-0.011 0.11-0.023 0.218-0.035 0.326zM17.914 17.929v-0.034c0.023-0.084 0.047-0.169 0.068-0.254l0.104 0.146 0.035 0.145h-0.208v-0.003zM20.015 18.182c-0.012-0.275-0.021-0.553-0.033-0.828 0.057-0.013 0.113-0.024 0.172-0.036 0.080 0.084 0.16 0.168 0.24 0.252 0-0.329-0.050-0.284-0.344-0.289-0.068 0.037-0.14 0.073-0.207 0.107-0.097 0.148-0.156 0.221-0.172 0.471 0.069 0.107 0.138 0.217 0.206 0.323 0.185 0.023 0.367 0.049 0.552 0.072-0.012-0.097-0.024-0.191-0.035-0.288-0.119 0.167-0.146 0.259-0.379 0.216zM20.84 17.28c-0.176 0.133-0.229 0.193-0.343 0.397 0.015 0.302 0.086 0.373 0.206 0.541 0.127 0.013 0.253 0.023 0.378 0.035 0.081-0.070 0.161-0.144 0.241-0.215 0.012-0.145 0.022-0.289 0.034-0.434-0.058-0.085-0.114-0.168-0.172-0.252-0.113-0.023-0.228-0.046-0.344-0.072zM21.014 18.219c-0.069-0.014-0.139-0.024-0.207-0.037v-0.685c0.033-0.061 0.068-0.121 0.104-0.181 0.033 0.013 0.068 0.022 0.104 0.036 0.021 0.252 0.046 0.505 0.068 0.757-0.023 0.037-0.047 0.073-0.069 0.11zM26.040 17.569c0.121-0.298-0.063-0.299-0.344-0.289-0.365 0.246-0.422 0.57-0.138 0.938 0.161 0.013 0.319 0.023 0.48 0.035 0.012-0.096 0.021-0.19 0.034-0.288-0.125 0.154-0.115 0.223-0.379 0.253-0.012-0.012-0.022-0.023-0.033-0.035v-0.687c0.116-0.285 0.291-0.14 0.38 0.073zM27.692 18.182c-0.016-0.277-0.055-0.716 0.104-0.828v-0.036h-0.445c0.092 0.182 0.078 0.572 0.067 0.864h-0.067c-0.116-0.3-0.23-0.6-0.347-0.901-0.161 0.139-0.271 0.505-0.311 0.759l-0.104 0.145h-0.103c-0.019-0.278-0.055-0.716 0.103-0.829v-0.036h-0.447c0.15 0.177 0.154 0.727 0 0.9h0.654c-0.035-0.023-0.068-0.047-0.104-0.071 0.106-0.318 0.339-0.165 0.31 0.106h1.067v-0.288c-0.122 0.145-0.11 0.197-0.377 0.215zM26.763 17.929c0.035-0.096 0.068-0.191 0.105-0.288l0.103 0.288h-0.208zM31.583 18.254c0.139-0.012 0.276-0.022 0.414-0.035-0.149-0.216-0.299-0.433-0.447-0.648 0.114-0.071 0.229-0.146 0.345-0.216v-0.036h-0.345c0.104 0.155 0.023 0.173-0.104 0.359-0.012 0.013-0.023 0.023-0.035 0.037-0.060-0.145-0.022-0.294 0.035-0.397h-0.724c0.122 0.105 0.2 0.282 0.104 0.505-0.104-0.169-0.206-0.337-0.31-0.505h-0.379c0.128 0.16 0.12 0.516 0.103 0.829-0.011 0.012-0.021 0.023-0.033 0.035h-0.069c-0.115-0.3-0.229-0.6-0.345-0.901-0.24 0.223-0.251 0.703-0.482 0.938h0.276c-0.035-0.023-0.068-0.047-0.104-0.071 0.068-0.172 0.052-0.168 0.275-0.182 0.012 0.098 0.021 0.192 0.033 0.288 0.208-0.012 0.414-0.022 0.619-0.035-0.136-0.127-0.209-0.498-0.103-0.757 0.172 0.265 0.344 0.528 0.517 0.792 0.033-0.012 0.068-0.022 0.104-0.035-0.012-0.265-0.021-0.528-0.035-0.794 0.023-0.022 0.046-0.047 0.068-0.070h0.139c0.005 0.291 0.032 0.685-0.067 0.864h0.446c-0.101-0.094-0.141-0.227-0.067-0.396 0.101 0.178 0.159 0.239 0.171 0.431zM29.552 17.929c0.035-0.096 0.068-0.191 0.104-0.288l0.104 0.288h-0.208zM8.378 17.317c0.022 0.145 0.045 0.288 0.068 0.433h-0.241l0.069-0.433h-0.412c0.104 0.186 0.104 0.715 0 0.901h0.414c-0.023-0.145-0.046-0.29-0.069-0.434h0.241c-0.023 0.144-0.046 0.289-0.068 0.434h0.412c-0.104-0.188-0.104-0.716 0-0.901h-0.414zM10.443 17.822c-0.103-0.169-0.207-0.337-0.31-0.505h-0.343c0.132 0.233 0.104 0.755-0.069 0.901h0.311c-0.132-0.13-0.212-0.497-0.105-0.758 0.16 0.253 0.321 0.506 0.482 0.759 0.283-0.002 0.026-0.683 0.241-0.865v-0.036h-0.275c0.089 0.115 0.147 0.309 0.068 0.504zM13.611 17.822c-0.104-0.169-0.207-0.337-0.311-0.505h-0.344c0.093 0.182 0.080 0.572 0.069 0.864h-0.207c-0.017-0.277-0.055-0.716 0.104-0.828v-0.036h-0.448c0.104 0.186 0.104 0.715 0 0.901h0.724c-0.147-0.147-0.187-0.481-0.104-0.759 0.161 0.253 0.321 0.506 0.482 0.759 0.283-0.002 0.026-0.683 0.241-0.865v-0.036h-0.276c0.091 0.116 0.15 0.31 0.070 0.505zM15.711 17.786c0.122-0.104 0.173-0.114 0.241-0.289-0.035-0.048-0.070-0.096-0.104-0.144-0.252-0.013-0.505-0.024-0.757-0.036 0.151 0.176 0.155 0.726 0 0.901h0.448c-0.083-0.139-0.123-0.335 0.034-0.434 0.046 0.144 0.092 0.289 0.138 0.434h0.31c-0.121-0.154-0.132-0.326-0.31-0.432zM15.643 17.678c-0.057 0.022-0.115 0.048-0.171 0.070v-0.395h0.137c0.012 0.012 0.023 0.022 0.035 0.034l-0.001 0.291zM23.252 17.317c-0.068 0.18-0.139 0.36-0.207 0.541-0.058-0.181-0.114-0.361-0.171-0.541h-0.346c0.095 0.182 0.081 0.572 0.069 0.864h-0.173c-0.004-0.292-0.031-0.685 0.067-0.864h-0.343c-0.058 0.18-0.116 0.36-0.173 0.541-0.058-0.169-0.114-0.338-0.174-0.505-0.137-0.013-0.273-0.024-0.411-0.036 0.15 0.176 0.152 0.726 0 0.901h0.274c-0.128-0.127-0.208-0.436-0.104-0.687l0.241 0.722h0.069c0.079-0.253 0.159-0.506 0.24-0.757 0.076 0.185 0.043 0.585-0.034 0.722h0.724c-0.161-0.145-0.159-0.39-0.138-0.722h0.033c0.068 0.251 0.14 0.504 0.207 0.757h0.067l0.241-0.722c0.114 0.266 0.077 0.501-0.033 0.687h0.412c-0.104-0.188-0.104-0.716 0-0.901h-0.337zM23.974 18.182v-0.253c0.023-0.047 0.046-0.096 0.068-0.144 0.058 0.048 0.115 0.097 0.173 0.144v-0.359c-0.068 0.062-0.138 0.12-0.205 0.181v-0.396c0.232 0.032 0.229 0.073 0.343 0.216v-0.252h-0.722c0.151 0.176 0.153 0.726 0 0.901 0.251 0.012 0.504 0.022 0.757 0.035-0.012-0.107-0.022-0.215-0.035-0.325-0.105 0.191-0.092 0.24-0.379 0.252zM25.008 17.786c0.125-0.098 0.169-0.086 0.241-0.253l-0.035-0.108c-0.185-0.105-0.473-0.122-0.791-0.106 0.104 0.187 0.104 0.715 0 0.9h0.447c-0.096-0.113-0.111-0.188-0.104-0.433h0.137c0.047 0.145 0.093 0.289 0.139 0.433h0.275c-0.114-0.17-0.099-0.343-0.309-0.433zM24.903 17.713c-0.033 0.013-0.068 0.023-0.104 0.035-0.011-0.131-0.021-0.264-0.033-0.396h0.173c0.011 0.084 0.021 0.167 0.033 0.252-0.022 0.037-0.045 0.074-0.069 0.109zM29.139 17.75c0.137-0.103 0.152-0.082 0.172-0.325-0.011-0.012-0.021-0.022-0.033-0.035-0.077-0.008-0.151-0.016-0.228-0.021 0.007 0.008 0.014 0.016 0.021 0.021v0.288c-0.059 0.023-0.116 0.049-0.173 0.072h-0.035v-0.396h0.041c-0.129-0.013-0.257-0.024-0.385-0.036 0.104 0.186 0.104 0.715 0 0.901 0.24 0.107 0.626 0.021 0.758-0.108 0.022-0.013 0.045-0.022 0.068-0.036-0.031-0.246-0.062-0.216-0.206-0.325zM29.071 18.146c-0.013 0.012-0.022 0.023-0.035 0.035h-0.173v-0.396h0.173c0.013 0.013 0.022 0.024 0.035 0.036v0.325zM29.036 17.354h-0.134c0.049 0.005 0.099 0.009 0.147 0.014-0.004-0.006-0.009-0.010-0.013-0.014z"></path>
</symbol>
<symbol id="icon-31" viewBox="0 0 32 32">
<title>31</title>
<path class="path1"  d="M24.519 28.084h-6.086v-28.084h-10.952c-0.671 0-1.216 0.546-1.216 1.221v1.476c0 0.674 0.545 1.221 1.217 1.221h7.303v24.167h-7.304c-0.672 0-1.217 0.546-1.217 1.22v1.476c0.001 0.673 0.546 1.219 1.217 1.219h17.039c0.672 0 1.216-0.546 1.216-1.221v-1.476c-0.001-0.673-0.547-1.219-1.217-1.219z"></path>
</symbol>
<symbol id="icon-32" viewBox="0 0 32 32">
<title>32</title>
<path class="path1"  d="M23.476 15.031c0.615-0.567 1.008-1.375 1.008-2.278v-9.578c0-1.713-1.386-3.103-3.096-3.103h-10.938c-1.708 0-3.093 1.39-3.093 3.103v9.577c0 0.889 0.378 1.688 0.977 2.253-1.326 0.562-2.256 1.878-2.256 3.412v9.951c0 2.044 1.653 3.703 3.691 3.703h12.226c2.039 0 3.689-1.657 3.689-3.703v-9.951c0-1.515-0.91-2.813-2.208-3.386zM11 3.716h9.825v11.042h-9.825v-11.042zM22.147 28.369h-12.456v-9.951h12.457v9.951z"></path>
</symbol>
<symbol id="icon-33" viewBox="0 0 32 32">
<title>33</title>
<path class="path1"  d="M25.748 7.314v-4.862c0-1.353-1.092-2.452-2.443-2.452h-14.72c-1.349 0-2.444 1.098-2.444 2.452v9.982c0 1.354 1.094 2.453 2.444 2.453h13.456v15.886c0 0.677 0.549 1.227 1.223 1.227h1.373c0.676 0 1.223-0.55 1.223-1.227v-22.96c-0.001-0.178-0.044-0.345-0.112-0.499zM9.861 11.185v-7.408h12.194v3.971c-0.002 0.022-0.014 0.042-0.014 0.064v3.371l-12.18 0.002z"></path>
</symbol>
<symbol id="icon-34" viewBox="0 0 32 32">
<title>34</title>
<path class="path1"  d="M23.259 18.496c0.625 0 1.122-0.48 1.187-1.090h0.052c0.671 0 1.212-0.543 1.212-1.215v-13.582c0-0.672-0.541-1.216-1.212-1.216h-0.024v-0.177c-0.001-0.672-0.544-1.216-1.213-1.216h-15.757c-0.67 0-1.212 0.544-1.212 1.216v1.47c0 0.671 0.542 1.216 1.212 1.216h14.418v10.692h-13.359c-0.669 0-1.212 0.545-1.212 1.217v0.212c-0.582 0.090-1.036 0.571-1.036 1.182v11.86c-0.004 0.044-0.024 0.079-0.024 0.123v1.47c0 0.044 0.021 0.080 0.024 0.123v0.004c0 0.67 0.543 1.215 1.212 1.215h1.364c0.188 0 0.359-0.051 0.518-0.128h15.062c0.669 0 1.212-0.543 1.212-1.215v-1.47c0-0.671-0.543-1.216-1.212-1.216h-14.367v-9.476h13.155z"></path>
</symbol>
<symbol id="icon-35" viewBox="0 0 32 32">
<title>35</title>
<path class="path1"  d="M24.533 16.256c0.672 0 1.215-0.547 1.215-1.221v-12.415c0-0.674-0.543-1.22-1.215-1.22h-0.024v-0.179c0-0.675-0.546-1.221-1.218-1.221h-15.821c-0.673 0-1.218 0.546-1.218 1.221v1.476c0 0.673 0.545 1.22 1.218 1.22h14.477v10.736h-10.979c-0.671 0-1.216 0.547-1.216 1.221v1.475c0 0.674 0.545 1.221 1.216 1.221h10.979v9.515h-14.477c-0.673 0-1.218 0.546-1.218 1.221v1.477c0 0.671 0.545 1.217 1.218 1.217h15.82c0.672 0 1.218-0.546 1.218-1.219v-0.126h0.023c0.672 0 1.216-0.548 1.216-1.221v-11.092c0-0.676-0.544-1.222-1.216-1.222h-0.023v-0.865l0.025 0.001z"></path>
</symbol>
<symbol id="icon-36" viewBox="0 0 32 32">
<title>36</title>
<path class="path1"  d="M23.34 17.219h-1.023v-12.293c0-0.68-0.551-1.231-1.227-1.231h-1.383c-0.678 0-1.227 0.551-1.227 1.231v12.293h-7.213v-15.988c0-0.68-0.55-1.231-1.228-1.231h-1.38c-0.678 0-1.227 0.551-1.227 1.231v17.758c0 0.091 0.033 0.171 0.051 0.255v0.695c0 0.679 0.549 1.231 1.228 1.231h9.77v9.597c0 0.682 0.551 1.232 1.229 1.232h1.381c0.678 0 1.229-0.551 1.229-1.232v-9.597h1.021c0.678 0 1.229-0.553 1.229-1.231v-1.488c-0.002-0.68-0.552-1.232-1.23-1.232z"></path>
</symbol>
<symbol id="icon-37" viewBox="0 0 32 32">
<title>37</title>
<path class="path1"  d="M23.912 3.918c0.671 0 1.215-0.546 1.215-1.22v-1.477c0-0.675-0.544-1.221-1.215-1.221h-14.605c-0.672 0-1.217 0.546-1.217 1.221v1.273c-0.005 0.043-0.026 0.082-0.026 0.126v14.78c0 0.674 0.546 1.221 1.217 1.221h1.369c0.088 0 0.167-0.031 0.251-0.051h10.397v9.515h-13.208c-0.672 0-1.217 0.546-1.217 1.221v1.477c0 0.671 0.545 1.217 1.217 1.217h14.604c0.673 0 1.217-0.546 1.217-1.219v-0.259c0.659-0.015 1.192-0.551 1.192-1.216v-11.88c0-0.674-0.545-1.22-1.217-1.22h-0.127v-0.331c0-0.674-0.545-1.221-1.218-1.221h-10.674v-10.736h12.045z"></path>
</symbol>
<symbol id="icon-38" viewBox="0 0 32 32">
<title>38</title>
<path class="path1"  d="M25.414 0.526c-0.22-0.31-0.563-0.526-0.973-0.526h-17.008c-0.671 0-1.215 0.545-1.215 1.219v1.473c0 0.673 0.544 1.219 1.215 1.219h14.553v7.164c-0.073 0.047-0.152 0.082-0.219 0.146l-6.961 6.985c-0.079 0.080-0.126 0.178-0.179 0.272-0.636 0.038-1.145 0.555-1.145 1.205v11.099c0 0.673 0.544 1.219 1.215 1.219h1.366c0.67 0 1.215-0.546 1.215-1.219v-9.742c0.070-0.047 0.148-0.077 0.21-0.14l6.964-6.986c0.181-0.183 0.271-0.411 0.313-0.646 0.573-0.098 1.017-0.575 1.017-1.179v-10.693c0-0.341-0.141-0.649-0.368-0.87z"></path>
</symbol>
<symbol id="icon-39" viewBox="0 0 32 32">
<title>39</title>
<path class="path1"  d="M23.416 17.113h-13.457v-15.886c0-0.678-0.547-1.227-1.222-1.227h-1.375c-0.674 0-1.221 0.549-1.221 1.227v22.96c0 0.179 0.042 0.347 0.11 0.499v4.86c0 1.356 1.095 2.454 2.444 2.454h14.721c1.348 0 2.443-1.098 2.443-2.453v-9.982c0-1.354-1.093-2.452-2.443-2.452zM22.138 28.224h-12.193v-3.971c0.001-0.023 0.014-0.042 0.014-0.065v-3.372h12.181v7.408h-0.002z"></path>
</symbol>
<symbol id="icon-40" viewBox="0 0 32 32">
<title>40</title>
<path class="path1"  d="M17.468 10.847c-2.82-0.765-5.72 0.929-6.475 3.783s0.918 5.788 3.738 6.552c2.82 0.766 5.719-0.929 6.476-3.782 0.755-2.856-0.918-5.789-3.739-6.553zM18.059 16.545c-0.292 1.094-1.4 1.742-2.482 1.449-1.081-0.292-1.721-1.417-1.432-2.51 0.289-1.094 1.4-1.743 2.481-1.449 1.081 0.293 1.721 1.417 1.433 2.51zM30.583 14.756h-1.571c-0.143-1.486-0.539-2.919-1.148-4.249l1.381-0.807c0.588-0.344 0.79-1.105 0.449-1.699-0.34-0.595-1.091-0.8-1.68-0.456l-1.389 0.811c-0.84-1.187-1.873-2.239-3.075-3.095l0.808-1.417c0.339-0.595 0.139-1.356-0.449-1.7-0.588-0.342-1.341-0.139-1.681 0.456l-0.811 1.423c-0.625-0.283-1.277-0.521-1.958-0.704-0.742-0.2-1.486-0.319-2.226-0.386v-1.688c-0.002-0.686-0.551-1.245-1.231-1.245s-1.229 0.559-1.229 1.245v1.707c-1.446 0.149-2.839 0.551-4.133 1.16l-0.864-1.512c-0.338-0.596-1.091-0.8-1.679-0.456-0.587 0.344-0.79 1.104-0.45 1.7l0.869 1.523c-1.152 0.84-2.178 1.866-3.015 3.061l-1.515-0.885c-0.588-0.344-1.341-0.14-1.681 0.456-0.34 0.595-0.137 1.357 0.45 1.7l1.516 0.885c-0.289 0.646-0.532 1.32-0.72 2.028-0.188 0.715-0.301 1.431-0.37 2.144h-1.763c-0.68 0-1.23 0.557-1.23 1.244s0.551 1.244 1.23 1.244h1.761c0.137 1.455 0.517 2.86 1.101 4.168l-1.522 0.89c-0.587 0.344-0.79 1.104-0.45 1.7 0.34 0.595 1.093 0.799 1.681 0.454l1.512-0.882c0.819 1.178 1.824 2.229 3 3.088l-0.854 1.495c-0.339 0.597-0.138 1.356 0.45 1.699 0.589 0.343 1.341 0.141 1.681-0.455l0.843-1.479c0.671 0.316 1.377 0.583 2.116 0.782 0.68 0.186 1.359 0.295 2.038 0.366v1.684c0 0.689 0.551 1.245 1.229 1.245 0.68 0 1.229-0.558 1.229-1.245v-1.664c1.461-0.13 2.872-0.516 4.186-1.113l0.813 1.424c0.339 0.596 1.093 0.8 1.68 0.455 0.589-0.343 0.789-1.105 0.45-1.7l-0.806-1.412c1.185-0.842 2.238-1.876 3.097-3.085l1.362 0.795c0.59 0.345 1.341 0.14 1.681-0.455 0.34-0.596 0.139-1.355-0.45-1.699l-1.354-0.79c0.302-0.665 0.558-1.361 0.751-2.094 0.19-0.725 0.304-1.449 0.373-2.172h1.568c0.681 0 1.23-0.556 1.23-1.243-0.001-0.687-0.551-1.245-1.231-1.245zM25.733 18.627c-1.426 5.384-6.895 8.581-12.217 7.139-5.323-1.443-8.481-6.978-7.056-12.364 1.426-5.386 6.896-8.582 12.219-7.14 5.323 1.444 8.48 6.98 7.054 12.365z"></path>
</symbol>
<symbol id="icon-41" viewBox="0 0 32 32">
<title>41</title>
<path class="path1"  d="M21.86 5.2c0-0.016 0.004-0.028 0.004-0.042 0-2.539-2.033-4.599-4.544-4.599-2.495 0-4.516 2.036-4.539 4.556-1.014 0.279-1.983 0.646-2.892 1.1-2.382-2.187-5.453-0.326-5.453-0.326l1.399 3.295c-1.817 1.9-3.042 4.258-3.395 6.857-1.378 0.205-2.44 1.388-2.44 2.829v1.974c0 1.583 1.28 2.869 2.859 2.869h1.177c0.709 1.186 1.623 2.259 2.692 3.195v3.099c0 0.791 0.641 1.434 1.43 1.434h3.938c0.69 0 1.266-0.489 1.4-1.144 1.173 0.264 2.398 0.411 3.665 0.411 1.125 0 2.215-0.119 3.27-0.329 0.163 0.61 0.715 1.062 1.374 1.062h3.938c0.79 0 1.431-0.643 1.431-1.434v-2.75c2.959-2.395 4.826-5.821 4.826-9.644-0.002-5.781-4.252-10.677-10.14-12.413zM17.32 2.46c1.473 0 2.666 1.208 2.666 2.698s-1.193 2.698-2.666 2.698-2.668-1.208-2.668-2.698 1.196-2.698 2.668-2.698zM25.281 26.133v2.755c0 0.354-0.286 0.642-0.638 0.642h-1.735c-0.353 0-0.639-0.287-0.639-0.642v-1.096c-1.563 0.611-3.288 0.958-5.109 0.958-1.982 0-3.855-0.403-5.524-1.122v1.26c0 0.354-0.285 0.642-0.637 0.642h-1.736c-0.352 0-0.638-0.287-0.638-0.642v-3.074c-1.33-1.080-2.398-2.408-3.108-3.903h-2.136c-0.842 0-1.523-0.685-1.523-1.528v-1.053c0-0.846 0.682-1.529 1.523-1.529h1.171c-0.001-0.063-0.011-0.123-0.011-0.188 0-2.86 1.232-5.461 3.24-7.434l-1.361-3.335c0 0 1.832-1.212 3.295 1.793 1.047-0.678 2.215-1.219 3.47-1.589 0.317 0.711 0.812 1.317 1.42 1.78-1.147 0.244-1.936 0.563-1.936 0.563-0.28-0.005-0.512 0.554-0.516 0.838-0.004 0.282 0.438 0.571 0.719 0.575 0 0 1.94-0.874 4.385-0.838 2.484 0.036 4.487 0.977 4.487 0.977 0.28 0.004 0.729-0.277 0.733-0.563 0.004-0.283-0.221-0.849-0.5-0.853 0 0-0.829-0.344-2.036-0.624 0.627-0.45 1.129-1.060 1.464-1.767 4.877 1.54 8.375 5.644 8.375 10.477 0 3.42-1.75 6.477-4.499 8.52zM8.666 13.748c-0.838 0-1.519 0.683-1.519 1.524s0.681 1.525 1.519 1.525c0.839 0 1.519-0.684 1.519-1.525s-0.679-1.524-1.519-1.524z"></path>
</symbol>
<symbol id="icon-42" viewBox="0 0 32 32">
<title>42</title>
<path class="path1"  d="M30.314 8.535v-1.326c0-1.884-1.511-3.413-3.373-3.413h-3.058l-0.617-1.34c-0.636-1.381-2.257-1.978-3.621-1.334l-5.668 2.675h-10.604c-1.862-0.001-3.373 1.527-3.373 3.412v20.517c0 1.886 1.51 3.412 3.373 3.412h25.256c1.862 0 3.371-1.526 3.371-3.412v-16.251c0-1.261-0.683-2.349-1.686-2.94zM26.542 5.929c0.931 0 1.686 0.764 1.686 1.706v0.427h-2.602l0.216-0.020-0.975-2.113h1.675zM19.906 3.28c0.683-0.322 1.492-0.022 1.812 0.667l1.896 4.113h-13.84l10.132-4.78zM2.511 6.905c0-0.529 0.423-0.958 0.947-0.958h4.332c0.062-0.006 0.123-0.019 0.187-0.019h1.48l-4.521 2.134h-1.563c-0.053 0-0.103 0.013-0.156 0.017-0.403-0.11-0.706-0.467-0.706-0.909v-0.265zM29.492 26.872c0 0.94-0.755 1.706-1.688 1.706h-23.621c-0.931 0-1.686-0.766-1.686-1.706v-16.762l0.059-0.006c0.099 0.314 0.38 0.547 0.723 0.547h8.294c0.051 0 0.097-0.021 0.146-0.030h16.088c0.932 0 1.688 0.764 1.688 1.706v3.132h-6.535c-1.78 0-3.221 1.46-3.221 3.259v1.766c0 1.8 1.44 3.259 3.221 3.259h6.535v3.129h-0.003zM29.518 22.156h-6.13c-1.099 0-1.987-0.9-1.987-2.012v-1.091c0-1.11 0.889-2.011 1.987-2.011h6.13v5.114zM24.427 20.909c0.715 0 1.295-0.586 1.295-1.309 0-0.725-0.58-1.312-1.295-1.312s-1.294 0.587-1.294 1.312c0 0.723 0.578 1.309 1.294 1.309z"></path>
</symbol>
<symbol id="icon-43" viewBox="0 0 32 32">
<title>43</title>
<path class="path1"  d="M28.654 3.089h-25.307c-1.849 0-3.347 1.516-3.347 3.387v19.048c0 1.871 1.499 3.388 3.347 3.388h25.307c1.847 0 3.346-1.517 3.346-3.388v-19.048c0-1.87-1.497-3.387-3.346-3.387zM29.511 24.677c0 0.936-0.749 1.693-1.673 1.693h-23.686c-0.925 0-1.674-0.759-1.674-1.693v-11.429h27.033v11.429zM29.511 9.656h-27.033v-2.334c0-0.936 0.749-1.693 1.674-1.693h23.686c0.924 0 1.673 0.76 1.673 1.693v2.334zM19.436 20.022h4.205c0.69 0 1.248-0.566 1.248-1.265 0-0.696-0.558-1.262-1.248-1.262h-4.205c-0.69 0-1.248 0.565-1.248 1.262 0 0.699 0.557 1.265 1.248 1.265z"></path>
</symbol>
<symbol id="icon-44" viewBox="0 0 32 32">
<title>44</title>
<path class="path1"  d="M29.22 14.879v-2.058h-4.067v2.058h0.677v10.63h-0.677v2.058h4.067v-2.058h-0.676v-10.63h0.676zM16 1.339l-16 10.457h32l-16-10.457zM16.001 3.945l9.383 6.133h-18.765l9.382-6.133zM21.762 14.879v-2.058h-4.067v2.058h0.679v10.63h-0.679v2.058h4.067v-2.058h-0.683v-10.63h0.683zM14.305 14.879v-2.058h-4.067v2.058h0.678v10.63h-0.678v2.058h4.067v-2.058h-0.676v-10.63h0.676zM0.087 30.661h31.826v-2.066h-31.826v2.066zM6.848 14.879v-2.058h-4.067v2.058h0.678v10.63h-0.678v2.058h4.067v-2.058h-0.676v-10.63h0.676z"></path>
</symbol>
<symbol id="icon-45" viewBox="0 0 32 32">
<title>45</title>
<path class="path1"  d="M15.999 15.693c8.645 0 15.651-3.513 15.651-7.846s-7.006-7.847-15.651-7.847c-8.644 0-15.649 3.513-15.649 7.848 0 4.333 7.006 7.845 15.649 7.845zM15.999 1.928c7.303 0 13.223 2.607 13.223 5.825s-5.92 5.826-13.223 5.826-13.224-2.608-13.224-5.826 5.921-5.825 13.224-5.825zM15.999 30.295c-7.322 0-13.293-2.237-13.725-5.058h-1.89c0.379 3.763 7.214 6.763 15.615 6.763s15.235-3 15.615-6.763h-1.89c-0.431 2.823-6.402 5.058-13.725 5.058zM15.999 26.148c-7.321 0-13.292-2.236-13.725-5.058h-1.89c0.38 3.763 7.214 6.764 15.614 6.764 8.401 0 15.235-3.001 15.615-6.764h-1.89c-0.432 2.822-6.402 5.058-13.724 5.058zM15.999 17.855c-7.322 0-13.293-2.238-13.725-5.059h-1.89c0.378 3.762 7.213 6.763 15.614 6.763s15.235-3.001 15.615-6.763h-1.89c-0.43 2.821-6.401 5.059-13.724 5.059zM15.999 22.001c-7.322 0-13.293-2.238-13.725-5.059h-1.89c0.378 3.763 7.213 6.764 15.614 6.764s15.235-3.001 15.615-6.764h-1.89c-0.43 2.823-6.401 5.059-13.724 5.059zM15.191 11.295h1.874l-0.123-2.413h5.144l-0.343-1.003h-4.853l-0.081-1.607h4.355l-0.247-0.805h-3.576l2.515-1.417c0.189-0.107 0.137-0.278-0.112-0.381-0.247-0.1-0.595-0.1-0.788 0l-2.838 1.491-2.833-1.49c-0.192-0.1-0.542-0.1-0.787 0-0.25 0.103-0.303 0.273-0.112 0.381l2.512 1.417h-3.557l-0.247 0.806h4.356l-0.083 1.607h-4.854l-0.343 1.002h5.146l-0.125 2.412z"></path>
</symbol>
<symbol id="icon-46" viewBox="0 0 32 32">
<title>46</title>
<path class="path1"  d="M9.524 27.686h3.749v-13.706h-3.749v13.706zM21.113 27.686v-17.133h-3.75v17.132l3.75 0.001zM24.86 27.686h4.091v-20.561h-4.091v20.561zM6.116 27.686v-10.278h-3.75v10.278h3.75zM10.317 9.082l2.789 2.805 0.046 0.080 0.021-0.013 0.020 0.021 0.076-0.075 12.537-7.312c0.307 0.194 0.668 0.312 1.059 0.312 1.105 0 2.002-0.902 2.002-2.015s-0.896-2.013-2.002-2.013-2.002 0.901-2.002 2.013c0 0.088 0.015 0.171 0.024 0.255l-11.436 6.672-2.861-2.879-0.053 0.054-0.008-0.013-9.499 5.582 0.852 1.483 8.435-4.957zM0 29.062v2.067h32v-2.067h-32z"></path>
</symbol>
<symbol id="icon-47" viewBox="0 0 32 32">
<title>47</title>
<path class="path1"  d="M0.337 31.17h24.82v-2.029h-24.82v2.029zM6.056 9.598h2.68c-0.132-0.078-0.264-0.159-0.411-0.239-3.069-1.71-2.953-3.001 0-4.646 2.322-1.294 2.855-2.56 1.388-3.884h-2.482c1.663 1.142 1.456 2.162-0.65 3.336-3.426 1.909-3.594 3.552-0.525 5.433zM17.904 9.598h2.682c-0.132-0.078-0.264-0.158-0.41-0.238-3.066-1.71-2.951-3.001 0-4.646 2.322-1.294 2.855-2.56 1.387-3.884h-2.483c1.663 1.142 1.456 2.162-0.65 3.336-3.424 1.908-3.594 3.551-0.526 5.432zM27.249 12.309h-0.659c-0.264 0-0.52 0.036-0.77 0.077v-1.782h-25.82l0.003 8.112c0 5.89 4.672 9.081 10.619 9.081h4.426c4.552 0 8.437-1.875 10.013-5.393 0.482 0.166 0.99 0.275 1.529 0.275h0.659c2.623 0.001 4.751-2.139 4.751-4.779v-0.813c0-2.641-2.128-4.778-4.751-4.778zM23.667 16.628l-0.002-0.281v1.973c0 4.867-3.981 7.343-8.893 7.343h-3.491c-4.91 0-9.124-2.476-9.124-7.343v-1.973h-0.002v-3.8h21.512v4.081zM30.122 17.807c0 1.592-1.437 2.881-3.203 2.881-0.448 0-0.875-0.084-1.265-0.232 0.102-0.555 0.164-1.128 0.164-1.736l0.002-4.23c0.343-0.114 0.709-0.185 1.096-0.185 1.771 0 3.204 1.29 3.204 2.879v0.623h0.002zM11.98 9.598h2.681c-0.132-0.078-0.265-0.158-0.41-0.238-3.068-1.71-2.953-3.001 0-4.646 2.322-1.294 2.854-2.56 1.387-3.884h-2.483c1.662 1.142 1.456 2.162-0.65 3.336-3.424 1.908-3.594 3.551-0.525 5.432z"></path>
</symbol>
<symbol id="icon-48" viewBox="0 0 32 32">
<title>48</title>
<path class="path1"  d="M30.814 9.519v-0.699c0-0.976-0.468-1.836-1.186-2.405v-0.311c0.001-1.714-1.413-3.104-3.159-3.104h-20.938c-1.746 0-3.161 1.39-3.161 3.104v0.312c-0.717 0.569-1.185 1.429-1.185 2.404v0.7c-0.717 0.569-1.185 1.429-1.185 2.405v13.621c0 1.715 1.415 3.104 3.16 3.104h25.68c1.745 0 3.16-1.39 3.16-3.104v-13.621c0-0.976-0.468-1.837-1.186-2.406zM28.776 8.82h-10.218v-1.164h8.72c0.732 0 1.32 0.501 1.498 1.164zM27.444 5.717h-8.887v-0.777h7.535c0.583 0 1.080 0.316 1.352 0.777zM5.896 4.94h7.551v0.776h-8.903c0.272-0.46 0.769-0.776 1.352-0.776zM4.71 7.656h8.737v1.164h-10.235c0.179-0.663 0.767-1.164 1.498-1.164zM2.34 24.771v-12.070c0-0.857 0.708-1.552 1.58-1.552h9.527v15.173h-9.527c-0.873 0-1.58-0.695-1.58-1.551zM29.648 24.771c0 0.856-0.707 1.552-1.58 1.552h-9.511v-15.174h9.511c0.873 0 1.58 0.694 1.58 1.552v12.070z"></path>
</symbol>
<symbol id="icon-49" viewBox="0 0 32 32">
<title>49</title>
<path class="path1"  d="M16.127 24.299c-7.253 0-13.424 3.204-15.843 7.701h3.008c2.277-3.33 7.16-5.639 12.835-5.639 5.674 0 10.559 2.309 12.835 5.639h3.008c-2.419-4.497-8.589-7.701-15.843-7.701z"></path>
<path class="path2"  d="M25.349 11.771c-0.014 0-0.025 0.004-0.039 0.004-0.866-4.636-5.052-8.155-10.097-8.155-5.047 0-9.235 3.523-10.099 8.163-0.959 0.059-1.723 0.885-1.723 1.905 0 1.038 0.79 1.878 1.773 1.91 0.977 4.499 5.104 7.879 10.048 7.879 4.946 0 9.073-3.382 10.049-7.882 0.029 0.001 0.058 0.009 0.087 0.009 1.011 0 1.829-0.858 1.829-1.916s-0.818-1.917-1.828-1.917zM23.733 13.547c0 4.549-3.814 8.236-8.52 8.236s-8.52-3.688-8.52-8.236-0.84-8.236 8.52-8.236c9.359 0 8.52 3.687 8.52 8.236z"></path>
<path class="path3"  d="M24.865 4.711c0.202-2.197-1.089-4.482-1.089-4.482s-0.698 1.127-2.321 1.369c-1.496-0.607-3.518-0.956-6.259-0.956-10.116 0-10.491 4.721-10.491 9.831v1.982c0 0.892 0.151 1.75 0.418 2.566l0.255-2.617c0-0.13 0.011-0.258 0.017-0.387l1.852-2.206 0.504-1.977c1.755 0.838 5.683 1.966 12.935 0.673 0.811-0.145 1.47-0.368 2.013-0.645l0.497 1.95 1.783 2.124c0.010 0.156 0.027 0.311 0.027 0.469l0.258 2.639c0.271-0.822 0.424-1.688 0.424-2.588v-1.982c0-2.084-0.063-4.102-0.823-5.763zM5.686 10.268l-0.286 1.625c0.038-0.558 0.134-1.101 0.286-1.625z"></path>
</symbol>
<symbol id="icon-50" viewBox="0 0 32 32">
<title>50</title>
<path class="path1"  d="M25.419 2.868l-2.943-2.942-16.002 16-0.007 0.010 2.945 2.941 0.006-0.007 13.058 13.056 2.943-2.943-13.058-13.057z"></path>
</symbol>
<symbol id="icon-51" viewBox="0 0 32 32">
<title>51</title>
<path class="path1"  d="M25.473 15.992l-2.938-2.945-0.008 0.008-13.062-13.055-2.938 2.945 13.055 13.055-13.055 13.063 2.938 2.937 13.062-13.055 0.008 0.008 2.938-2.945v-0.008z"></path>
</symbol>
<symbol id="icon-52" viewBox="0 0 32 32">
<title>52</title>
<path class="path1"  d="M19.364 0.36v9.472h-2.841v5.714h5.486v-10.54c3.884 2.128 6.519 6.252 6.519 10.993 0 6.112-4.378 11.195-10.167 12.3v-5.864h2.635c0.56 0 1.014-0.455 1.014-1.016v-5.277h-5.486v4.035h-1.015v-4.035h-5.474v5.277c0 0.561 0.455 1.016 1.015 1.016h2.626v5.87c-5.808-1.091-10.205-6.181-10.205-12.305 0-4.759 2.654-8.899 6.563-11.020v10.566h5.474v-5.714h-2.816v-9.486c-7.248 1.525-12.692 7.952-12.692 15.654 0 8.836 7.164 16 16 16s16-7.163 16-16c0-7.681-5.416-14.093-12.636-15.64zM17.741 0.088h-3.457v8.335h3.457v-8.335z"></path>
</symbol>
<symbol id="icon-53" viewBox="0 0 32 32">
<title>53</title>
<path class="path1"  d="M16.007 0c-3.333 0-6.409 1.069-8.928 2.865v11.145c0.646-4.344 4.39-7.682 8.928-7.682 4.989 0 9.036 4.034 9.036 9.008 0 4.973-4.047 9.008-9.036 9.008-4.538 0-8.281-3.339-8.928-7.683v15.335h1.858v-3.056c2.119 1.095 4.52 1.724 7.069 1.724 8.498 0 15.384-6.865 15.384-15.333 0.001-8.466-6.885-15.331-15.383-15.331zM0.609 15.189v16.811h4.901v-27.854c-2.966 2.768-4.839 6.682-4.88 11.042h-0.021zM16.007 11.738c1.705 0 3.123 1.182 3.5 2.764h2.581c-0.41-2.998-2.958-5.315-6.081-5.315-3.405 0-6.163 2.752-6.163 6.144 0 3.395 2.76 6.143 6.163 6.143 3.035 0 5.541-2.188 6.056-5.063h-2.632c-0.462 1.453-1.812 2.514-3.424 2.514-1.991 0-3.605-1.61-3.605-3.596-0.001-1.981 1.614-3.591 3.605-3.591z"></path>
</symbol>
<symbol id="icon-54" viewBox="0 0 32 32">
<title>54</title>
<path class="path1"  d="M22.249 0h-12.498c-2.083 0-3.773 1.648-3.773 3.684v24.633c0 2.033 1.69 3.683 3.773 3.683h12.498c2.084 0 3.773-1.65 3.773-3.684v-24.632c0-2.036-1.689-3.684-3.773-3.684zM22.406 28.316h-12.733v-24.632h12.733v24.632z"></path>
</symbol>
</defs>
</svg>
