<svg style="position: absolute; width: 0; height: 0; overflow: hidden;" version="1.1" xmlns="http://www.w3.org/2000/svg" xmlns:xlink="http://www.w3.org/1999/xlink">
<defs>
<symbol id="icon-1" viewBox="0 0 32 32">
<title>1</title>
<path class="path1" d="M22.125 2.531v-2.531h-2.531v2.531h-7.282v-2.469h-2.437v2.469h-7.375v4.844h27v-4.844h-7.375zM2.5 32h27v-22.157h-27v22.157zM22.125 14.75h2.375v2.531h-2.375v-2.531zM22.125 19.688h2.375v2.531h-2.375v-2.531zM22.125 24.594h2.375v2.531h-2.375v-2.531zM17.219 14.75h2.375v2.531h-2.375v-2.531zM17.219 19.688h2.375v2.531h-2.375v-2.531zM17.219 24.594h2.375v2.531h-2.375v-2.531zM12.312 14.75h2.375v2.531h-2.375v-2.531zM12.312 19.688h2.375v2.531h-2.375v-2.531zM12.312 24.594h2.375v2.531h-2.375v-2.531zM7.406 14.75h2.375v2.531h-2.375v-2.531zM7.406 19.688h2.375v2.531h-2.375v-2.531zM7.406 24.594h2.375v2.531h-2.375v-2.531z"></path>
</symbol>
<symbol id="icon-2" viewBox="0 0 32 32">
<title>2</title>
<path class="path1" d="M16.938 15.178h1.756v7.454h-1.756v-7.454z"></path>
<path class="path2" d="M13.188 15.178h1.757v7.454h-1.757v-7.454z"></path>
<path class="path3" d="M0 0v32h32v-32h-32zM22.559 24.452h-13.118v-11.21h13.118v11.21zM22.559 11.363h-13.118v-1.937h5.622v-1.878h1.875v1.878h5.621v1.937z"></path>
</symbol>
<symbol id="icon-3" viewBox="0 0 32 32">
<title>3</title>
<path class="path1" d="M25.587 0.005h-8.892l-11.685 15.974 11.685 15.974h8.892l-11.685-15.974z"></path>
</symbol>
<symbol id="icon-4" viewBox="0 0 32 32">
<title>4</title>
<path class="path1" d="M31.84 22.001v-16.855c0-2.843-2.286-5.147-5.107-5.147h-21.518c-2.821 0-5.109 2.305-5.109 5.147v21.708c0 2.841 2.288 5.145 5.109 5.145h21.518c2.748 0 4.973-2.191 5.087-4.932l-12.241-5.619c0 0-3.518 5.886-10.115 5.503-6.109-0.355-7.076-4.068-7.046-5.795 0.030-1.711 0.833-4.43 4.757-5.323 6.145-0.915 10.94 1.759 11.167 1.647 0.896-0.879 1.847-3.833 1.872-4.247h-12.445v-1.298h6.205v-2.193h-7.482v-1.481h7.48v-3.668h3.65v3.668h7.986v1.482h-7.986v2.194h2.793v0.015c0.84-0.009 3.757-0.036 3.717 0.002-0.213 1.458-1.339 4.989-2.496 6.653l10.204 3.394zM7.709 17.861c-4.015 0.337-3.952 3.433-3.954 3.585-0.003 0.212 0.092 3.402 5.109 3.37 4.595-0.027 7.664-3.98 7.907-4.687 0 0-5.048-2.606-9.062-2.268z"></path>
</symbol>
<symbol id="icon-5" viewBox="0 0 32 32">
<title>5</title>
<path class="path1" d="M11.558 10.568c0 0.717-0.581 1.298-1.298 1.298s-1.298-0.581-1.298-1.298c0-0.717 0.581-1.298 1.298-1.298s1.298 0.581 1.298 1.298z"></path>
<path class="path2" d="M19.543 16.738c0 0.594-0.481 1.075-1.075 1.075s-1.075-0.481-1.075-1.075c0-0.594 0.481-1.075 1.075-1.075s1.075 0.481 1.075 1.075z"></path>
<path class="path3" d="M17.024 10.568c0 0.717-0.581 1.298-1.298 1.298s-1.298-0.581-1.298-1.298c0-0.717 0.581-1.298 1.298-1.298s1.298 0.581 1.298 1.298z"></path>
<path class="path4" d="M26.839 0h-21.678c-2.85 0-5.161 2.311-5.161 5.161v21.679c0 2.85 2.311 5.16 5.161 5.16h21.678c2.85 0 5.161-2.31 5.161-5.16v-21.679c0-2.849-2.311-5.161-5.161-5.161zM10.147 19.587l-3.967 2.577 0.968-4.153 0.194 0.064c-1.808-1.439-2.952-3.524-2.952-5.85 0-4.345 3.972-7.869 8.872-7.869 4.253 0 7.801 2.655 8.666 6.197-0.224-0.014-0.444-0.030-0.672-0.030-5.211 0-9.435 3.748-9.436 8.368 0 0.375 0.038 0.742 0.092 1.104-0.61-0.086-1.201-0.221-1.765-0.408zM27.257 27.189l-3.19-2.046c-0.868 0.313-1.815 0.489-2.811 0.489-4.126 0-7.469-2.967-7.469-6.625s3.343-6.625 7.469-6.625 7.468 2.966 7.468 6.625c0 1.991-0.996 3.773-2.566 4.988l1.099 3.194z"></path>
<path class="path5" d="M25.125 16.738c0 0.594-0.481 1.075-1.075 1.075s-1.075-0.481-1.075-1.075c0-0.594 0.481-1.075 1.075-1.075s1.075 0.481 1.075 1.075z"></path>
</symbol>
<symbol id="icon-6" viewBox="0 0 32 32">
<title>6</title>
<path class="path1" d="M16 0c-8.836 0-16 7.164-16 16s7.164 16 16 16c8.837 0 16-7.164 16-16s-7.163-16-16-16zM17.128 20.969l-3.26 3.258-0.003-0.004-0.003 0.004-3.257-3.258 0.004-0.005-5.007-5.005 3.257-3.257 5.008 5.005 8.433-8.432 3.257 3.258-8.433 8.431 0.004 0.005z"></path>
</symbol>
<symbol id="icon-7" viewBox="0 0 32 32">
<title>7</title>
<path class="path1" d="M0.369 32l10.088-0.346-9.747-9.858-0.341 10.204zM23.947 0l-19.576 19.803 7.682 7.771 19.578-19.803-7.684-7.771z"></path>
</symbol>
<symbol id="icon-8" viewBox="0 0 32 32">
<title>8</title>
<path class="path1" d="M15.824 23.995c-2.266 0-4.103 1.795-4.103 4.005s1.839 4 4.103 4c2.268 0 4.109-1.79 4.109-4s-1.841-4.005-4.109-4.005zM15.998 0c-6.166 0-11.165 4.594-11.165 10.261 0 0.51 0.057 1.005 0.138 1.494h6.369c-0.168-0.457-0.279-0.939-0.279-1.447 0-2.521 2.231-4.569 4.984-4.569s4.984 2.046 4.984 4.569c0 2.527-2.231 4.574-4.984 4.574-1.165 0-2.223-0.381-3.071-0.995v8.093h6.122v-1.912c4.649-1.239 8.069-5.136 8.069-9.807-0.001-5.665-4.999-10.261-11.167-10.261z"></path>
</symbol>
<symbol id="icon-9" viewBox="0 0 32 32">
<title>9</title>
<path class="path1" d="M5.858 18.367c-1.614 0-2.921 1.287-2.921 2.876s1.308 2.875 2.921 2.875c1.612 0 2.92-1.286 2.92-2.875s-1.308-2.876-2.92-2.876zM5.85 22.275c-0.58 0-1.048-0.463-1.048-1.031 0-0.569 0.469-1.031 1.048-1.031s1.047 0.462 1.047 1.031-0.469 1.031-1.047 1.031zM32 17.414c0-1.077-0.881-1.95-1.968-1.95-0.104 0-0.204 0.015-0.306 0.030l-4.959-5.456c0-0.525-0.434-0.952-0.969-0.952h-0.523v-0.252c0-0.525-0.433-0.952-0.967-0.952h-21.322c-0.535 0-0.967 0.427-0.967 0.952v7.873h-0.019v3.631l2.137-0.016c0.431-1.635 1.924-2.846 3.717-2.846 1.775 0 3.255 1.187 3.704 2.795l11.006-0.074c0.474-1.568 1.934-2.721 3.68-2.721 1.729 0 3.173 1.127 3.662 2.67l1.605-0.012c0.15 0.094 0.316 0.16 0.506 0.16h1c0.534 0 0.967-0.426 0.967-0.953v-0.714c0-0.171-0.059-0.323-0.139-0.46 0.1-0.229 0.155-0.485 0.155-0.753zM6.731 13.568c0 0.525-0.432 0.953-0.967 0.953h-2.904c-0.534 0-0.967-0.428-0.967-0.953v-1.875c0-0.526 0.434-0.953 0.967-0.953h2.903c0.535 0 0.967 0.427 0.967 0.953l0.001 1.875zM15.441 13.598c0 0.525-0.433 0.953-0.967 0.953h-5.807c-0.534 0-0.967-0.427-0.967-0.953v-1.905c0-0.526 0.434-0.953 0.967-0.953h5.807c0.535 0 0.967 0.427 0.967 0.953v1.905zM24.896 14.542h-5.535c-0.532 0-0.967-0.356-0.967-0.794v-2.221c0-0.438 0.435-0.794 0.967-0.794h2.949l3.35 3.313c0 0.437-0.228 0.496-0.764 0.496zM24.246 18.367c-1.615 0-2.921 1.287-2.921 2.876s1.306 2.875 2.921 2.875c1.611 0 2.922-1.286 2.922-2.875s-1.309-2.876-2.922-2.876zM24.238 22.275c-0.579 0-1.049-0.463-1.049-1.031 0-0.569 0.47-1.031 1.049-1.031 0.576 0 1.047 0.462 1.047 1.031s-0.471 1.031-1.047 1.031z"></path>
</symbol>
<symbol id="icon-10" viewBox="0 0 32 32">
<title>10</title>
<path class="path1" d="M0 21.703h3.080c0.445-1.615 1.93-2.813 3.713-2.813 1.782 0 3.266 1.196 3.712 2.813h8.88v-2.857h-19.385v2.857zM6.794 19.784c-1.617 0-2.927 1.29-2.927 2.881 0 1.593 1.311 2.883 2.927 2.883s2.927-1.29 2.927-2.883c0.001-1.591-1.311-2.881-2.927-2.881zM6.786 23.701c-0.58 0-1.051-0.465-1.051-1.034s0.471-1.032 1.051-1.032c0.579 0 1.050 0.463 1.050 1.032s-0.471 1.034-1.050 1.034zM31.986 15.025h-6.232c-0.304 0-0.553-0.244-0.553-0.546v-3.67c0-0.3 0.247-0.543 0.553-0.543h5.473c-1.345-3.411-4.047-2.835-4.813-2.854h-4.589c-0.8 0-1.446 0.637-1.446 1.422v11.467c0 0.021 0.012 0.039 0.014 0.063h0.711v1.146c0.127 0.073 0.266 0.128 0.408 0.166 0.454-1.6 1.932-2.782 3.705-2.782 1.79 0 3.282 1.207 3.719 2.834h1.619c0.801 0 1.446-0.639 1.446-1.424v-4.846c0-0.155-0.013-0.284-0.015-0.433zM25.218 19.784c-1.616 0-2.927 1.29-2.927 2.881 0 1.593 1.311 2.883 2.927 2.883s2.929-1.29 2.929-2.883c-0.001-1.591-1.313-2.881-2.929-2.881zM25.21 23.701c-0.578 0-1.050-0.465-1.050-1.034s0.472-1.032 1.050-1.032c0.579 0 1.049 0.463 1.049 1.032s-0.47 1.034-1.049 1.034zM6.394 17.587l9.957-7.293h-5.711l4.183-3.841h-4.395l-5.365 5.719h5.421l-4.090 5.415z"></path>
</symbol>
<symbol id="icon-11" viewBox="0 0 32 32">
<title>11</title>
<path class="path1" d="M4.855 19.318c-1.617 0-2.928 1.291-2.928 2.881 0 1.592 1.311 2.881 2.928 2.881 1.616 0 2.926-1.289 2.926-2.881 0-1.59-1.309-2.881-2.926-2.881zM4.847 23.234c-0.579 0-1.050-0.463-1.050-1.033 0-0.568 0.471-1.033 1.050-1.033s1.050 0.465 1.050 1.033c-0.001 0.57-0.471 1.033-1.050 1.033zM31.984 14.559h-6.23c-0.304 0-0.553-0.243-0.553-0.544v-3.671c0-0.301 0.247-0.544 0.553-0.544h5.473c-1.345-3.411-4.045-2.835-4.813-2.853h-4.588c-0.8 0-1.446 0.636-1.446 1.423v11.467c0 0.021 0.012 0.039 0.014 0.062h0.711v1.146c0.127 0.074 0.265 0.129 0.408 0.166 0.454-1.601 1.932-2.782 3.704-2.782 1.791 0 3.282 1.207 3.72 2.834h1.619c0.799 0 1.445-0.638 1.445-1.425v-4.844c-0.001-0.158-0.013-0.286-0.017-0.435zM11.646 16.494h7.738v-0.948h-19.384v5.692h1.141c0.446-1.614 1.931-2.813 3.712-2.813 1.782 0 3.267 1.197 3.713 2.813h3.082v-3.801h-0.001l-0.001-0.943zM16.489 18.426c1.16 0 2.188 0.516 2.896 1.313v-2.301h-6.778v3.801h0.17c0.445-1.616 1.93-2.813 3.712-2.813zM16.491 19.318c-1.617 0-2.928 1.291-2.928 2.881 0 1.592 1.311 2.881 2.928 2.881 1.614 0 2.926-1.289 2.926-2.881 0-1.59-1.312-2.881-2.926-2.881zM16.482 23.234c-0.579 0-1.050-0.463-1.050-1.033 0-0.568 0.471-1.033 1.050-1.033s1.050 0.461 1.050 1.033c0 0.57-0.469 1.033-1.050 1.033zM25.218 19.318c-1.616 0-2.927 1.291-2.927 2.881 0 1.592 1.311 2.881 2.927 2.881 1.615 0 2.927-1.289 2.927-2.881 0-1.59-1.312-2.881-2.927-2.881zM25.209 23.234c-0.578 0-1.050-0.463-1.050-1.033 0-0.568 0.472-1.033 1.050-1.033 0.58 0 1.049 0.465 1.049 1.033 0 0.57-0.469 1.033-1.049 1.033zM19.395 8.849h-0.961v6.674h0.961v-6.674z"></path>
</symbol>
<symbol id="icon-12" viewBox="0 0 32 32">
<title>12</title>
<path class="path1" d="M0 21.238h3.080c0.445-1.615 1.93-2.813 3.712-2.813s3.267 1.195 3.713 2.813h8.88v-2.861h-19.385v2.861zM6.795 19.318c-1.617 0-2.928 1.291-2.928 2.881 0 1.592 1.311 2.881 2.928 2.881 1.615 0 2.927-1.289 2.927-2.881 0-1.59-1.312-2.881-2.927-2.881zM6.786 23.234c-0.579 0-1.051-0.463-1.051-1.033 0-0.568 0.472-1.033 1.051-1.033s1.050 0.465 1.050 1.033c0 0.57-0.471 1.033-1.050 1.033zM31.984 14.559h-6.23c-0.304 0-0.553-0.243-0.553-0.544v-3.671c0-0.301 0.247-0.544 0.553-0.544h5.473c-1.345-3.411-4.045-2.835-4.813-2.853h-4.588c-0.8 0-1.446 0.636-1.446 1.423v11.467c0 0.021 0.012 0.039 0.014 0.062h0.711v1.146c0.127 0.074 0.265 0.129 0.408 0.166 0.454-1.601 1.932-2.782 3.704-2.782 1.791 0 3.282 1.207 3.72 2.834h1.619c0.799 0 1.445-0.638 1.445-1.425v-4.844c-0.001-0.158-0.013-0.286-0.017-0.435zM25.218 19.318c-1.616 0-2.927 1.291-2.927 2.881 0 1.592 1.311 2.881 2.927 2.881 1.615 0 2.927-1.289 2.927-2.881 0-1.59-1.312-2.881-2.927-2.881zM25.209 23.234c-0.578 0-1.050-0.463-1.050-1.033 0-0.568 0.472-1.033 1.050-1.033 0.58 0 1.049 0.465 1.049 1.033 0 0.57-0.469 1.033-1.049 1.033z"></path>
</symbol>
<symbol id="icon-13" viewBox="0 0 32 32">
<title>13</title>
<path class="path1" d="M6.795 19.787c-1.617 0-2.928 1.289-2.928 2.881s1.311 2.881 2.928 2.881c1.615 0 2.927-1.289 2.927-2.881 0-1.59-1.312-2.881-2.927-2.881zM6.786 23.703c-0.579 0-1.051-0.463-1.051-1.033s0.472-1.033 1.051-1.033 1.050 0.463 1.050 1.033-0.471 1.033-1.050 1.033zM0 21.707h3.080c0.445-1.615 1.93-2.811 3.712-2.811s3.268 1.192 3.713 2.811h8.88v-2.859h-19.385v2.859zM31.984 15.029h-6.23c-0.304 0-0.553-0.243-0.553-0.545v-3.671c0-0.3 0.247-0.543 0.553-0.543h5.473c-1.345-3.411-4.045-2.836-4.813-2.854h-4.588c-0.8 0-1.446 0.637-1.446 1.423v11.466c0 0.021 0.012 0.039 0.014 0.062h0.711v1.147c0.127 0.072 0.265 0.127 0.408 0.166 0.454-1.6 1.932-2.783 3.704-2.783 1.791 0 3.283 1.207 3.722 2.834h1.617c0.799 0 1.445-0.641 1.445-1.424v-4.845c-0.001-0.157-0.013-0.286-0.017-0.433zM18.434 8.372h-4.844v-1.921h-0.973v1.921h-5.813v-1.921h-0.976v1.921h-4.844v-1.921h-0.971v11.465h0.972v-0.031h4.844v0.031h0.975v-0.031h5.813v0.031h0.973v-0.031h4.846v0.031h0.973v-11.465h-0.973v1.921h-0.002zM5.828 15.977h-4.844v-1.877h4.844v1.877zM5.828 12.191h-4.844v-1.911h4.844v1.911zM12.617 15.977h-5.813v-1.877h5.813v1.877zM12.617 12.191h-5.813v-1.911h5.813v1.911zM18.434 15.977h-4.844v-1.877h4.844v1.877zM18.434 12.191h-4.844v-1.911h4.844v1.911zM25.218 19.787c-1.616 0-2.927 1.289-2.927 2.881s1.311 2.881 2.927 2.881c1.615 0 2.927-1.289 2.927-2.881 0-1.59-1.312-2.881-2.927-2.881zM25.209 23.703c-0.578 0-1.050-0.463-1.050-1.033s0.472-1.033 1.050-1.033c0.58 0 1.049 0.463 1.049 1.033s-0.469 1.033-1.049 1.033z"></path>
</symbol>
<symbol id="icon-14" viewBox="0 0 32 32">
<title>14</title>
<path class="path1" d="M6.794 19.79c-1.616 0-2.926 1.292-2.926 2.881 0 1.594 1.31 2.883 2.926 2.883s2.927-1.289 2.927-2.883c0-1.589-1.311-2.881-2.927-2.881zM6.785 23.707c-0.579 0-1.049-0.462-1.049-1.034 0-0.569 0.47-1.032 1.049-1.032 0.58 0 1.050 0.463 1.050 1.032 0 0.572-0.47 1.034-1.050 1.034zM0 21.711h3.079c0.445-1.614 1.931-2.812 3.712-2.812 1.783 0 3.268 1.194 3.712 2.812h8.881v-2.824h-19.384v2.824zM19.384 6.446h-19.38v11.466h19.381l-0.001-11.466zM31.987 15.032h-6.233c-0.304 0-0.553-0.243-0.553-0.544v-3.672c0-0.301 0.247-0.543 0.553-0.543h5.473c-1.346-3.411-4.047-2.835-4.815-2.854h-4.588c-0.796 0-1.446 0.636-1.446 1.423v11.468c0 0.021 0.012 0.038 0.012 0.059h0.714v1.149c0.127 0.073 0.264 0.128 0.407 0.166 0.454-1.6 1.932-2.783 3.704-2.783 1.791 0 3.284 1.206 3.72 2.835h1.62c0.799 0 1.446-0.641 1.446-1.425v-4.845c0-0.156-0.012-0.285-0.014-0.434zM25.218 19.79c-1.616 0-2.927 1.292-2.927 2.881 0 1.594 1.311 2.883 2.927 2.883 1.617 0 2.928-1.289 2.928-2.883-0.003-1.589-1.311-2.881-2.928-2.881zM25.21 23.707c-0.581 0-1.052-0.462-1.052-1.034 0-0.569 0.471-1.032 1.052-1.032 0.579 0 1.049 0.463 1.049 1.032-0.002 0.572-0.47 1.034-1.049 1.034z"></path>
</symbol>
<symbol id="icon-15" viewBox="0 0 32 32">
<title>15</title>
<path class="path1" d="M13.215 26.969c-0.736-1.161-6.003-4.37-6.589-8.127-0.258-1.659 1.516-2.861 5.645-4.044 8.765-2.511 6.205-4.398 6.205-4.398h0.686c0 0 1.806 1.646-1.186 3.229-2.371 1.252-7.369 2.273-8.447 4.618-0.481 1.047 0.62 2.814 10.102 9.081 0.529 0.35 0.946 0.803 1.18 1.089l11.189-0.008c0 0-1.214-0.961-4.914-2.654-4.053-1.855-11.108-4.571-10.616-7.433 0.542-3.156 8.586-2.881 7.893-6.755-0.233-1.301-2.25-2.54-3.385-2.898-1.467-0.463-2.062-1.071-2.3-1.506h3.885l-10.559-3.591-2.737 3.592h4.541c0.098 0.247 0.349 0.569 0.945 0.967 2.628 1.756 2.467 3.335-3.635 4.064-6.21 0.743-15.706 4.926-8.577 11.623 2.058 1.935 1.775 2.358 2.534 4.609l8.978-0.006c-0.191-0.515-0.484-0.893-0.838-1.452z"></path>
</symbol>
<symbol id="icon-16" viewBox="0 0 32 32">
<title>16</title>
<path class="path1" d="M11.424 7.267h0.129c0.235-2.237 2.123-3.987 4.447-3.987 2.323 0 4.213 1.75 4.449 3.985h0.13l1.642 5.121c0.994-1.296 1.59-2.907 1.59-4.661 0-4.266-3.497-7.725-7.811-7.725s-7.812 3.46-7.812 7.727c0 1.754 0.597 3.366 1.593 4.662l1.643-5.122zM26.694 14.385h-6.134l-1.508-5.551h-6.104l-1.508 5.551h-6.132l-4.371 17.615h30.127l-4.37-17.615zM21.593 20.987h-4.461v6.623h-2.237v-6.623h-4.468v-2.229h11.164v2.229h0.002z"></path>
</symbol>
<symbol id="icon-17" viewBox="0 0 32 32">
<title>17</title>
<path class="path1" d="M22.55 9.104v19.868l9.45-5.322v-19.798l-9.45 5.252zM0 29.467l21.359 0.023v-19.933l-21.359 0.015v19.895zM8.023 11.903l5.36-0.017c0.578-0.008 1.049 0.511 1.049 1.157s-0.47 1.177-1.049 1.182l-5.36 0.018c-0.579 0.007-1.049-0.51-1.049-1.156s0.47-1.177 1.049-1.184zM30.18 2.539l-19.93-0.029-10.234 5.858 19.931 0.028 10.233-5.857z"></path>
</symbol>
<symbol id="icon-18" viewBox="0 0 32 32">
<title>18</title>
<path class="path1" d="M21.682 2.213h-15.491v13.284h15.491v-13.284zM16.308 6.287l-4.669 0.015c-0.505 0.006-0.914-0.445-0.914-1.008s0.409-1.026 0.913-1.032l4.669-0.014c0.504-0.007 0.915 0.445 0.915 1.008s-0.41 1.023-0.914 1.031zM0 29.787h15.491v-13.284h-15.491v13.284zM5.446 18.552l4.669-0.015c0.504-0.006 0.913 0.446 0.913 1.008 0 0.563-0.408 1.024-0.913 1.032l-4.669 0.015c-0.504 0.007-0.913-0.445-0.913-1.008s0.409-1.026 0.913-1.032zM16.51 16.503v13.284h15.49v-13.284h-15.49zM26.626 20.577l-4.668 0.015c-0.505 0.007-0.916-0.445-0.916-1.008s0.41-1.026 0.916-1.032l4.668-0.015c0.504-0.006 0.914 0.446 0.914 1.008 0 0.563-0.41 1.024-0.914 1.032z"></path>
</symbol>
<symbol id="icon-19" viewBox="0 0 32 32">
<title>19</title>
<path class="path1" d="M16 20.921l-10.908-14.49h-5.092l16 21.248 16-21.248h-5.094z"></path>
</symbol>
<symbol id="icon-20" viewBox="0 0 32 32">
<title>20</title>
<path class="path1" d="M15.998 0c-8.834 0-15.998 7.166-15.998 16.002 0 8.833 7.164 15.998 15.998 15.998s16.002-7.165 16.002-15.998c0-8.838-7.167-16.002-16.002-16.002zM24.955 17.792h-7.167v7.165h-3.582v-7.165h-7.164v-3.583h7.166v-7.164h3.583v7.166h7.165v3.581h-0.001z"></path>
</symbol>
<symbol id="icon-21" viewBox="0 0 32 32">
<title>21</title>
<path class="path1" d="M12.859 23.682h6.265v-12.503h7.248l-10.347-11.179-10.347 11.179h7.182l-0.001 12.503zM2.362 27.834v4.166h27.312v-4.166h-27.312z"></path>
</symbol>
<symbol id="icon-22" viewBox="0 0 32 32">
<title>22</title>
<path class="path1" d="M31.291 27.81l-5.958-5.956c3.75-5.418 3.234-12.896-1.592-17.719-5.429-5.432-14.237-5.432-19.667 0-5.432 5.431-5.432 14.24 0 19.669 4.867 4.865 12.424 5.335 17.854 1.484l5.945 5.944c0.945 0.943 2.476 0.943 3.418 0 0.945-0.945 0.945-2.475 0-3.422zM6.595 21.282c-4.042-4.038-4.042-10.585 0-14.624 4.039-4.042 10.586-4.042 14.625 0 4.040 4.039 4.040 10.586 0 14.624-4.041 4.041-10.586 4.038-14.625 0z"></path>
</symbol>
<symbol id="icon-23" viewBox="0 0 32 32">
<title>23</title>
<path class="path1" d="M15.998 0c-8.835 0-15.998 7.164-15.998 16s7.163 16 15.998 16c8.837 0 16.002-7.164 16.002-16s-7.165-16-16.002-16zM15.937 22.748v-4.723h-9.061v-4.36h9.061v-4.72l9.686 6.901-9.686 6.902z"></path>
</symbol>
<symbol id="icon-24" viewBox="0 0 32 32">
<title>24</title>
<path class="path1" d="M19.367 20.523h0.229c0.954 0.029 1.879-0.797 1.957-1.172l0.022-0.147c0.001-0.005 0.005-0.011 0.006-0.015 0.369-1.849 0.802-4.099 1.219-6.188 0.085-0.263 0.11-0.477 0.115-0.671l0.010-0.065c0.082-0.507-0.425-1.137-0.999-1.108h-0.764l0.001-0.006h-16.851c-0.542 0-0.99 0.213-1.339 0.476-0.010-0.004-0.020-0.008-0.020-0.008s-0.211 0.167-0.466 0.466c-0.039 0.045-0.075 0.086-0.108 0.128-0.003 0.004-0.006 0.008-0.010 0.012-0.171 0.219-0.267 0.388-0.267 0.388h0.005c-0.213 0.351-0.406 0.786-0.491 1.304 0 0 0.714-1.218 2.245-1.278 0.104-0.004 0.186-0.014 0.255-0.026h16.499l-0.383 1.936h-16.313c-0.75 0-1.34 0.352-1.771 0.735l-0.003-0.001c0 0-0.034 0.029-0.080 0.072-0.47 0.442-0.722 0.901-0.722 0.901h0.004c-0.237 0.396-0.455 0.899-0.533 1.503 0 0 0.712-1.312 2.321-1.426 0.262-0.018 0.527-0.070 0.729-0.074 0.006 0 0.007-0.002 0.012-0.003h16.019l-0.443 2.239h-16.16c-1.213 0.104-1.94 0.755-2.349 1.294-0.154 0.17-0.926 1.091-0.954 2.437 0 0 0.528-1.31 2.013-1.574 0.217-0.037 0.451-0.084 0.618-0.115l16.747-0.014zM5.026 7.757h1.458l-0.522 2.294h2.751l0.522-2.294h0.625c1.823 0 2.172-1.208 2.172-1.208l0.58-2.616h-2.3l-0.322 1.394c-0.26 1.141-1.639 0.939-1.639 0.939h-2.382c-0.888 0-1.525 0.264-1.98 0.569-0.001 0-0.007-0.002-0.007-0.002s-0.046 0.034-0.11 0.084c-0.544 0.402-0.78 0.84-0.78 0.84h0.006c-0.234 0.338-0.453 0.763-0.567 1.278 0 0 0.983-1.19 2.495-1.278zM22.258 21.188c-1.895 0-3.662 1.352-3.955 3.017-0.291 1.666 1.008 3.017 2.901 3.017s3.664-1.351 3.955-3.017c0.292-1.667-1.009-3.017-2.901-3.017zM23.289 24.204c-0.133 0.758-0.938 1.371-1.798 1.371-0.859 0-1.449-0.613-1.317-1.371 0.131-0.757 0.936-1.37 1.797-1.37 0.86 0 1.45 0.613 1.318 1.37zM15.291 10.028h8.068l0.42-1.621h-6.813c0 0-0.828 0.129-0.507-0.823l0.188-0.974h7.359l0.401-1.545h-7.464l0.227-1.167h-2.19l-1.017 4.672c0 0-0.113 1.458 1.328 1.458zM25.323 7.625l-2.446 12.551c1.83 0.158 3.158 1.271 3.448 2.784h4.034l1.553-8.154c0.915-7.887-6.589-7.181-6.589-7.181zM28.956 21.236h-1.404c-0.661-1.148-1.677-1.83-2.721-2.223l1.942-9.609c0 0 3.539 0.31 3.609 3.723 0.028 1.273-1.426 8.109-1.426 8.109zM7.216 21.188c-1.893 0-3.663 1.352-3.955 3.017-0.291 1.666 1.008 3.017 2.901 3.017s3.665-1.351 3.956-3.017-1.008-3.017-2.902-3.017zM8.249 24.204c-0.132 0.758-0.937 1.371-1.797 1.371s-1.45-0.613-1.318-1.371c0.132-0.757 0.937-1.37 1.798-1.37 0.858 0 1.449 0.613 1.317 1.37z"></path>
</symbol>
<symbol id="icon-25" viewBox="0 0 32 32">
<title>25</title>
<path class="path1" d="M32 12.801h-12.756v-12.801h-6.275v12.801h-12.969v6.4h12.969v12.799h6.275v-12.799h12.756z"></path>
</symbol>
</defs>
</svg>
